%TF.GenerationSoftware,KiCad,Pcbnew,(6.0.1)*%
%TF.CreationDate,2022-04-27T15:56:50+10:00*%
%TF.ProjectId,bellerophon,62656c6c-6572-46f7-9068-6f6e2e6b6963,rev?*%
%TF.SameCoordinates,Original*%
%TF.FileFunction,Copper,L2,Bot*%
%TF.FilePolarity,Positive*%
%FSLAX46Y46*%
G04 Gerber Fmt 4.6, Leading zero omitted, Abs format (unit mm)*
G04 Created by KiCad (PCBNEW (6.0.1)) date 2022-04-27 15:56:50*
%MOMM*%
%LPD*%
G01*
G04 APERTURE LIST*
%TA.AperFunction,ComponentPad*%
%ADD10R,1.905000X2.000000*%
%TD*%
%TA.AperFunction,ComponentPad*%
%ADD11O,1.905000X2.000000*%
%TD*%
%TA.AperFunction,ComponentPad*%
%ADD12C,4.400000*%
%TD*%
%TA.AperFunction,ComponentPad*%
%ADD13O,2.600000X2.600000*%
%TD*%
%TA.AperFunction,ComponentPad*%
%ADD14C,1.600000*%
%TD*%
%TA.AperFunction,ComponentPad*%
%ADD15O,1.600000X1.600000*%
%TD*%
%TA.AperFunction,ComponentPad*%
%ADD16R,1.070000X1.800000*%
%TD*%
%TA.AperFunction,ComponentPad*%
%ADD17O,1.070000X1.800000*%
%TD*%
%TA.AperFunction,ComponentPad*%
%ADD18R,1.980000X1.980000*%
%TD*%
%TA.AperFunction,ComponentPad*%
%ADD19C,1.980000*%
%TD*%
%TA.AperFunction,ComponentPad*%
%ADD20R,1.800000X1.800000*%
%TD*%
%TA.AperFunction,ComponentPad*%
%ADD21C,1.800000*%
%TD*%
%TA.AperFunction,ComponentPad*%
%ADD22C,1.524000*%
%TD*%
%TA.AperFunction,ComponentPad*%
%ADD23R,1.778000X1.778000*%
%TD*%
%TA.AperFunction,ComponentPad*%
%ADD24C,1.778000*%
%TD*%
%TA.AperFunction,ComponentPad*%
%ADD25R,2.000000X2.000000*%
%TD*%
%TA.AperFunction,ComponentPad*%
%ADD26C,2.000000*%
%TD*%
%TA.AperFunction,ComponentPad*%
%ADD27R,1.875000X1.875000*%
%TD*%
%TA.AperFunction,ComponentPad*%
%ADD28C,1.875000*%
%TD*%
%TA.AperFunction,Conductor*%
%ADD29C,1.500000*%
%TD*%
%TA.AperFunction,Conductor*%
%ADD30C,0.300000*%
%TD*%
G04 APERTURE END LIST*
D10*
%TO.P,Q1,1,G*%
%TO.N,Net-(Q1-Pad1)*%
X168460000Y-57745000D03*
D11*
%TO.P,Q1,2,D*%
%TO.N,Net-(PYRO1-Pad1)*%
X171000000Y-57745000D03*
%TO.P,Q1,3,S*%
%TO.N,GND*%
X173540000Y-57745000D03*
%TD*%
D12*
%TO.P,H1,1,1*%
%TO.N,GND*%
X128000000Y-143000000D03*
%TD*%
D13*
%TO.P,D2,1,K*%
%TO.N,Net-(D2-Pad1)*%
X169600000Y-143950000D03*
%TO.P,D2,2,A*%
%TO.N,BATT+*%
X169600000Y-126500000D03*
%TD*%
D14*
%TO.P,R6,1*%
%TO.N,GND*%
X152690000Y-66300000D03*
D15*
%TO.P,R6,2*%
%TO.N,/PY2*%
X160310000Y-66300000D03*
%TD*%
D16*
%TO.P,D1,1,BA*%
%TO.N,Net-(D1-Pad1)*%
X134700000Y-89900000D03*
D17*
%TO.P,D1,2,GA*%
%TO.N,Net-(D1-Pad2)*%
X133430000Y-89900000D03*
%TO.P,D1,3,RA*%
%TO.N,Net-(D1-Pad3)*%
X132160000Y-89900000D03*
%TO.P,D1,4,K*%
%TO.N,GND*%
X130890000Y-89900000D03*
%TD*%
D14*
%TO.P,R3,1*%
%TO.N,RGB3*%
X128990000Y-83400000D03*
D15*
%TO.P,R3,2*%
%TO.N,Net-(D1-Pad1)*%
X136610000Y-83400000D03*
%TD*%
D18*
%TO.P,IC1,1,INPUT*%
%TO.N,BATT+*%
X145450000Y-127230000D03*
D19*
%TO.P,IC1,2,GND*%
%TO.N,GND*%
X142900000Y-127230000D03*
%TO.P,IC1,3,OUTPUT*%
%TO.N,+5V*%
X140350000Y-127230000D03*
%TD*%
D14*
%TO.P,R7,1*%
%TO.N,/PY2*%
X160310000Y-62000000D03*
D15*
%TO.P,R7,2*%
%TO.N,Net-(Q2-Pad1)*%
X152690000Y-62000000D03*
%TD*%
D12*
%TO.P,H4,1,1*%
%TO.N,GND*%
X177000000Y-51021320D03*
%TD*%
D20*
%TO.P,PYRO1,1,Pin_1*%
%TO.N,Net-(PYRO1-Pad1)*%
X160000000Y-54300000D03*
D21*
%TO.P,PYRO1,2,Pin_2*%
%TO.N,BATT+*%
X155000000Y-54300000D03*
%TO.P,PYRO1,3,Pin_3*%
X150000000Y-54300000D03*
%TO.P,PYRO1,4,Pin_4*%
%TO.N,Net-(PYRO1-Pad4)*%
X145000000Y-54300000D03*
%TD*%
D12*
%TO.P,H2,1,1*%
%TO.N,GND*%
X177000000Y-143000000D03*
%TD*%
%TO.P,H3,1,1*%
%TO.N,GND*%
X128000000Y-51121320D03*
%TD*%
D22*
%TO.P,U3,1,V_in*%
%TO.N,+3.3V*%
X130180000Y-77250000D03*
%TO.P,U3,2,3.3V_out*%
%TO.N,unconnected-(U3-Pad2)*%
X132720000Y-77250000D03*
%TO.P,U3,3,GND*%
%TO.N,GND*%
X135260000Y-77250000D03*
%TO.P,U3,4,SCK*%
%TO.N,/SCK*%
X137800000Y-77250000D03*
%TO.P,U3,5,MISO*%
%TO.N,/MISO*%
X140340000Y-77250000D03*
%TO.P,U3,6,MOSI*%
%TO.N,/MOSI*%
X142880000Y-77250000D03*
%TO.P,U3,7,SS*%
%TO.N,/CS*%
X145420000Y-77250000D03*
%TD*%
D14*
%TO.P,C1,1*%
%TO.N,BATT+*%
X162100000Y-127500000D03*
%TO.P,C1,2*%
%TO.N,GND*%
X152100000Y-127500000D03*
%TD*%
D10*
%TO.P,Q2,1,G*%
%TO.N,Net-(Q2-Pad1)*%
X131500000Y-57745000D03*
D11*
%TO.P,Q2,2,D*%
%TO.N,Net-(PYRO1-Pad4)*%
X134040000Y-57745000D03*
%TO.P,Q2,3,S*%
%TO.N,GND*%
X136580000Y-57745000D03*
%TD*%
D23*
%TO.P,IC2,1,Vin*%
%TO.N,+3.3V*%
X130480000Y-119740000D03*
D24*
%TO.P,IC2,2,GND*%
%TO.N,GND*%
X133020000Y-119740000D03*
%TO.P,IC2,3,3vo*%
%TO.N,unconnected-(IC2-Pad3)*%
X135560000Y-119740000D03*
%TO.P,IC2,4,INT2*%
%TO.N,unconnected-(IC2-Pad4)*%
X138100000Y-119740000D03*
%TO.P,IC2,5,INT1*%
%TO.N,unconnected-(IC2-Pad5)*%
X140640000Y-119740000D03*
%TO.P,IC2,6,SCL*%
%TO.N,MPL3115A2 SCL*%
X143180000Y-119740000D03*
%TO.P,IC2,7,SDA*%
%TO.N,MPL3115A2 SDA*%
X145720000Y-119740000D03*
%TD*%
D25*
%TO.P,BZ1,1,-*%
%TO.N,BZR1*%
X152700000Y-75500000D03*
D26*
%TO.P,BZ1,2,+*%
%TO.N,GND*%
X160300000Y-75500000D03*
%TD*%
D25*
%TO.P,BZ2,1,-*%
%TO.N,BZR2*%
X166700000Y-75500000D03*
D26*
%TO.P,BZ2,2,+*%
%TO.N,GND*%
X174300000Y-75500000D03*
%TD*%
D14*
%TO.P,R2,1*%
%TO.N,RGB2*%
X136700000Y-100500000D03*
D15*
%TO.P,R2,2*%
%TO.N,Net-(D1-Pad2)*%
X129080000Y-100500000D03*
%TD*%
D14*
%TO.P,R1,1*%
%TO.N,RGB1*%
X136610000Y-96000000D03*
D15*
%TO.P,R1,2*%
%TO.N,Net-(D1-Pad3)*%
X128990000Y-96000000D03*
%TD*%
D14*
%TO.P,R4,1*%
%TO.N,GND*%
X167200000Y-66500000D03*
D15*
%TO.P,R4,2*%
%TO.N,/PY1*%
X174820000Y-66500000D03*
%TD*%
D20*
%TO.P,BATT1,1,Pin_1*%
%TO.N,Net-(BATT1-Pad1)*%
X133300000Y-139500000D03*
D21*
%TO.P,BATT1,2,Pin_2*%
%TO.N,GND*%
X138300000Y-139500000D03*
%TO.P,BATT1,3,Pin_3*%
%TO.N,Net-(BATT1-Pad1)*%
X143300000Y-139500000D03*
%TO.P,BATT1,4,Pin_4*%
%TO.N,GND*%
X148300000Y-139500000D03*
%TD*%
D27*
%TO.P,SWITCH1,1,Pin_1*%
%TO.N,Net-(D2-Pad1)*%
X160250000Y-139800000D03*
D28*
%TO.P,SWITCH1,2,Pin_2*%
%TO.N,Net-(BATT1-Pad1)*%
X155250000Y-139800000D03*
%TD*%
D14*
%TO.P,U2,1,GND*%
%TO.N,GND*%
X176975000Y-84680000D03*
%TO.P,U2,2,0_RX1_CRX2_CS1*%
%TO.N,unconnected-(U2-Pad2)*%
X174435000Y-84680000D03*
%TO.P,U2,3,1_TX1_CTX2_MISO1*%
%TO.N,unconnected-(U2-Pad3)*%
X171895000Y-84680000D03*
%TO.P,U2,4,2_OUT2*%
%TO.N,/PY1*%
X169355000Y-84680000D03*
%TO.P,U2,5,3_LRCLK2*%
%TO.N,/PY2*%
X166815000Y-84680000D03*
%TO.P,U2,6,4_BCLK2*%
%TO.N,unconnected-(U2-Pad6)*%
X164275000Y-84680000D03*
%TO.P,U2,7,5_IN2*%
%TO.N,unconnected-(U2-Pad7)*%
X161735000Y-84680000D03*
%TO.P,U2,8,6_OUT1D*%
%TO.N,BZR2*%
X159195000Y-84680000D03*
%TO.P,U2,9,7_RX2_OUT1A*%
%TO.N,BZR1*%
X156655000Y-84680000D03*
%TO.P,U2,10,8_TX2_IN1*%
%TO.N,RGB3*%
X154115000Y-84680000D03*
%TO.P,U2,11,9_OUT1C*%
%TO.N,unconnected-(U2-Pad11)*%
X151575000Y-84680000D03*
%TO.P,U2,12,10_CS_MQSR*%
%TO.N,/CS*%
X149035000Y-84680000D03*
%TO.P,U2,13,11_MOSI_CTX1*%
%TO.N,/MOSI*%
X146495000Y-84680000D03*
%TO.P,U2,14,12_MISO_MQSL*%
%TO.N,/MISO*%
X143955000Y-84680000D03*
%TO.P,U2,15,VBAT*%
%TO.N,unconnected-(U2-Pad15)*%
X143955000Y-87220000D03*
%TO.P,U2,16,3V3*%
%TO.N,unconnected-(U2-Pad16)*%
X143955000Y-89760000D03*
%TO.P,U2,17,GND*%
%TO.N,unconnected-(U2-Pad17)*%
X143955000Y-92300000D03*
%TO.P,U2,18,PROGRAM*%
%TO.N,unconnected-(U2-Pad18)*%
X143955000Y-94840000D03*
%TO.P,U2,19,ON_OFF*%
%TO.N,unconnected-(U2-Pad19)*%
X143955000Y-97380000D03*
%TO.P,U2,20,13_SCK_CRX1_LED*%
%TO.N,/SCK*%
X143955000Y-99920000D03*
%TO.P,U2,21,14_A0_TX3_SPDIF_OUT*%
%TO.N,RGB1*%
X146495000Y-99920000D03*
%TO.P,U2,22,15_A1_RX3_SPDIF_IN*%
%TO.N,RGB2*%
X149035000Y-99920000D03*
%TO.P,U2,23,16_A2_RX4_SCL1*%
%TO.N,MPL3115A2 SCL*%
X151575000Y-99920000D03*
%TO.P,U2,24,17_A3_TX4_SDA1*%
%TO.N,MPL3115A2 SDA*%
X154115000Y-99920000D03*
%TO.P,U2,25,18_A4_SDA0*%
%TO.N,/SDA0*%
X156655000Y-99920000D03*
%TO.P,U2,26,19_A5_SCL0*%
%TO.N,/SCL0*%
X159195000Y-99920000D03*
%TO.P,U2,27,20_A6_TX5_LRCLK1*%
%TO.N,unconnected-(U2-Pad27)*%
X161735000Y-99920000D03*
%TO.P,U2,28,21_A7_RX5_BCLK1*%
%TO.N,unconnected-(U2-Pad28)*%
X164275000Y-99920000D03*
%TO.P,U2,29,22_A8_CTX1*%
%TO.N,unconnected-(U2-Pad29)*%
X166815000Y-99920000D03*
%TO.P,U2,30,23_A9_CRX1_MCLK1*%
%TO.N,unconnected-(U2-Pad30)*%
X169355000Y-99920000D03*
%TO.P,U2,31,3V3*%
%TO.N,+3.3V*%
X171895000Y-99920000D03*
%TO.P,U2,32,GND*%
%TO.N,GND*%
X174435000Y-99920000D03*
%TO.P,U2,33,VIN*%
%TO.N,+5V*%
X176975000Y-99920000D03*
%TO.P,U2,34,VUSB*%
%TO.N,unconnected-(U2-Pad34)*%
X174435000Y-97380000D03*
%TO.P,U2,35,24_A10_TX6_SCL2*%
%TO.N,unconnected-(U2-Pad35)*%
X149035000Y-97380000D03*
%TO.P,U2,36,25_A11_RX6_SDA2*%
%TO.N,unconnected-(U2-Pad36)*%
X151575000Y-97380000D03*
%TO.P,U2,37,26_A12_MOSI1*%
%TO.N,unconnected-(U2-Pad37)*%
X149035000Y-94840000D03*
%TO.P,U2,38,27_A13_SCK1*%
%TO.N,unconnected-(U2-Pad38)*%
X151575000Y-94840000D03*
%TO.P,U2,39,28_RX7*%
%TO.N,unconnected-(U2-Pad39)*%
X149035000Y-92300000D03*
%TO.P,U2,40,29_TX7*%
%TO.N,unconnected-(U2-Pad40)*%
X151575000Y-92300000D03*
%TO.P,U2,41,30_CRX3*%
%TO.N,unconnected-(U2-Pad41)*%
X149035000Y-89760000D03*
%TO.P,U2,42,31_CTX3*%
%TO.N,unconnected-(U2-Pad42)*%
X151575000Y-89760000D03*
%TO.P,U2,43,32_OUT1B*%
%TO.N,unconnected-(U2-Pad43)*%
X149035000Y-87220000D03*
%TO.P,U2,44,33_MCLK2*%
%TO.N,unconnected-(U2-Pad44)*%
X151575000Y-87220000D03*
%TD*%
%TO.P,R5,1*%
%TO.N,/PY1*%
X174800000Y-62300000D03*
D15*
%TO.P,R5,2*%
%TO.N,Net-(Q1-Pad1)*%
X167180000Y-62300000D03*
%TD*%
D14*
%TO.P,C2,1*%
%TO.N,+5V*%
X134100000Y-128500000D03*
%TO.P,C2,2*%
%TO.N,GND*%
X129100000Y-128500000D03*
%TD*%
D24*
%TO.P,U1,1,VIN*%
%TO.N,+3.3V*%
X171664988Y-106494475D03*
%TO.P,U1,2,1.8V_OUT*%
%TO.N,unconnected-(U1-Pad2)*%
X169124988Y-106494475D03*
%TO.P,U1,3,GND*%
%TO.N,GND*%
X166584988Y-106494475D03*
%TO.P,U1,4,SCL*%
%TO.N,/SCL0*%
X164044988Y-106494475D03*
%TO.P,U1,5,SDA*%
%TO.N,/SDA0*%
X161504988Y-106494475D03*
%TO.P,U1,6,INT*%
%TO.N,unconnected-(U1-Pad6)*%
X158964988Y-106494475D03*
%TO.P,U1,7,FS*%
%TO.N,unconnected-(U1-Pad7)*%
X171664988Y-119194475D03*
%TO.P,U1,8,AD*%
%TO.N,unconnected-(U1-Pad8)*%
X169124988Y-119194475D03*
%TO.P,U1,9,AC*%
%TO.N,unconnected-(U1-Pad9)*%
X166584988Y-119194475D03*
%TO.P,U1,10,G*%
%TO.N,unconnected-(U1-Pad10)*%
X164044988Y-119194475D03*
%TO.P,U1,11,SDO*%
%TO.N,unconnected-(U1-Pad11)*%
X161504988Y-119194475D03*
%TO.P,U1,12,CS*%
%TO.N,unconnected-(U1-Pad12)*%
X158964988Y-119194475D03*
%TD*%
D29*
%TO.N,+5V*%
X140350000Y-124050000D02*
X140350000Y-127230000D01*
X141500000Y-122900000D02*
X148200000Y-122900000D01*
X172795000Y-104100000D02*
X176975000Y-99920000D01*
X149600000Y-121500000D02*
X149600000Y-106200000D01*
X140350000Y-124050000D02*
X141500000Y-122900000D01*
X151700000Y-104100000D02*
X172795000Y-104100000D01*
X148200000Y-122900000D02*
X149600000Y-121500000D01*
X149600000Y-106200000D02*
X151700000Y-104100000D01*
D30*
%TO.N,+3.3V*%
X134180000Y-73250000D02*
X175450000Y-73250000D01*
X175500000Y-73200000D02*
X178900000Y-76600000D01*
X178100000Y-87400000D02*
X173300000Y-87400000D01*
X130180000Y-77250000D02*
X134180000Y-73250000D01*
X175450000Y-73250000D02*
X175500000Y-73200000D01*
X171895000Y-88805000D02*
X171895000Y-99920000D01*
X173300000Y-87400000D02*
X171895000Y-88805000D01*
X178900000Y-86600000D02*
X178100000Y-87400000D01*
X178900000Y-76600000D02*
X178900000Y-86600000D01*
%TO.N,BZR1*%
X156655000Y-84680000D02*
X156655000Y-79455000D01*
X156655000Y-79455000D02*
X152700000Y-75500000D01*
%TO.N,BZR2*%
X159195000Y-83105000D02*
X166700000Y-75600000D01*
X159195000Y-84680000D02*
X159195000Y-83105000D01*
D29*
%TO.N,BATT+*%
X126100000Y-129100000D02*
X128000000Y-131000000D01*
X126100000Y-78200000D02*
X126100000Y-129100000D01*
X155000000Y-58000000D02*
X154000000Y-59000000D01*
X155000000Y-54300000D02*
X155000000Y-58000000D01*
X145400000Y-58900000D02*
X126100000Y-78200000D01*
X150000000Y-54300000D02*
X145400000Y-58900000D01*
X154000000Y-59000000D02*
X145500000Y-59000000D01*
X165100000Y-131000000D02*
X169600000Y-126500000D01*
X145500000Y-59000000D02*
X145400000Y-58900000D01*
X128000000Y-131000000D02*
X165100000Y-131000000D01*
%TD*%
%TA.AperFunction,Conductor*%
%TO.N,GND*%
G36*
X150853423Y-74119454D02*
G01*
X150934205Y-74173430D01*
X150988181Y-74254212D01*
X151007135Y-74349500D01*
X151006091Y-74372271D01*
X150999500Y-74444007D01*
X150999500Y-74449725D01*
X150999501Y-75501207D01*
X150999501Y-76555992D01*
X151006171Y-76628594D01*
X151056873Y-76790383D01*
X151144703Y-76935408D01*
X151264592Y-77055297D01*
X151409617Y-77143127D01*
X151571406Y-77193829D01*
X151584561Y-77195038D01*
X151584562Y-77195038D01*
X151600963Y-77196545D01*
X151644007Y-77200500D01*
X151725619Y-77200500D01*
X153094571Y-77200499D01*
X153189859Y-77219453D01*
X153270641Y-77273429D01*
X155731570Y-79734358D01*
X155785546Y-79815140D01*
X155804500Y-79910428D01*
X155804500Y-83317690D01*
X155785546Y-83412978D01*
X155731570Y-83493760D01*
X155705005Y-83516811D01*
X155676358Y-83538320D01*
X155655364Y-83554083D01*
X155648307Y-83561467D01*
X155648301Y-83561473D01*
X155565255Y-83648376D01*
X155485719Y-83704172D01*
X155390886Y-83725283D01*
X155295192Y-83708496D01*
X155213207Y-83656366D01*
X155201077Y-83643937D01*
X155141846Y-83578842D01*
X154948210Y-83425918D01*
X154936117Y-83419242D01*
X154741143Y-83311611D01*
X154741144Y-83311611D01*
X154732198Y-83306673D01*
X154722572Y-83303264D01*
X154722567Y-83303262D01*
X154509240Y-83227719D01*
X154509238Y-83227718D01*
X154499610Y-83224309D01*
X154256694Y-83181039D01*
X154246474Y-83180914D01*
X154246472Y-83180914D01*
X154106179Y-83179200D01*
X154009972Y-83178025D01*
X153820826Y-83206968D01*
X153776166Y-83213802D01*
X153776165Y-83213802D01*
X153766070Y-83215347D01*
X153756359Y-83218521D01*
X153541250Y-83288829D01*
X153541247Y-83288830D01*
X153531540Y-83292003D01*
X153312679Y-83405935D01*
X153115364Y-83554083D01*
X153108307Y-83561467D01*
X153108301Y-83561473D01*
X153025255Y-83648376D01*
X152945719Y-83704172D01*
X152850886Y-83725283D01*
X152755192Y-83708496D01*
X152673207Y-83656366D01*
X152661077Y-83643937D01*
X152601846Y-83578842D01*
X152408210Y-83425918D01*
X152396117Y-83419242D01*
X152201143Y-83311611D01*
X152201144Y-83311611D01*
X152192198Y-83306673D01*
X152182572Y-83303264D01*
X152182567Y-83303262D01*
X151969240Y-83227719D01*
X151969238Y-83227718D01*
X151959610Y-83224309D01*
X151716694Y-83181039D01*
X151706474Y-83180914D01*
X151706472Y-83180914D01*
X151566179Y-83179200D01*
X151469972Y-83178025D01*
X151280826Y-83206968D01*
X151236166Y-83213802D01*
X151236165Y-83213802D01*
X151226070Y-83215347D01*
X151216359Y-83218521D01*
X151001250Y-83288829D01*
X151001247Y-83288830D01*
X150991540Y-83292003D01*
X150772679Y-83405935D01*
X150575364Y-83554083D01*
X150568307Y-83561467D01*
X150568301Y-83561473D01*
X150485255Y-83648376D01*
X150405719Y-83704172D01*
X150310886Y-83725283D01*
X150215192Y-83708496D01*
X150133207Y-83656366D01*
X150121077Y-83643937D01*
X150061846Y-83578842D01*
X149868210Y-83425918D01*
X149856117Y-83419242D01*
X149661143Y-83311611D01*
X149661144Y-83311611D01*
X149652198Y-83306673D01*
X149642572Y-83303264D01*
X149642567Y-83303262D01*
X149429240Y-83227719D01*
X149429238Y-83227718D01*
X149419610Y-83224309D01*
X149176694Y-83181039D01*
X149166474Y-83180914D01*
X149166472Y-83180914D01*
X149026179Y-83179200D01*
X148929972Y-83178025D01*
X148740826Y-83206968D01*
X148696166Y-83213802D01*
X148696165Y-83213802D01*
X148686070Y-83215347D01*
X148676359Y-83218521D01*
X148461250Y-83288829D01*
X148461247Y-83288830D01*
X148451540Y-83292003D01*
X148232679Y-83405935D01*
X148035364Y-83554083D01*
X148028307Y-83561467D01*
X148028301Y-83561473D01*
X147945255Y-83648376D01*
X147865719Y-83704172D01*
X147770886Y-83725283D01*
X147675192Y-83708496D01*
X147593207Y-83656366D01*
X147581077Y-83643937D01*
X147521846Y-83578842D01*
X147328210Y-83425918D01*
X147316117Y-83419242D01*
X147121143Y-83311611D01*
X147121144Y-83311611D01*
X147112198Y-83306673D01*
X147102572Y-83303264D01*
X147102567Y-83303262D01*
X146889240Y-83227719D01*
X146889238Y-83227718D01*
X146879610Y-83224309D01*
X146636694Y-83181039D01*
X146626474Y-83180914D01*
X146626472Y-83180914D01*
X146486179Y-83179200D01*
X146389972Y-83178025D01*
X146200826Y-83206968D01*
X146156166Y-83213802D01*
X146156165Y-83213802D01*
X146146070Y-83215347D01*
X146136359Y-83218521D01*
X145921250Y-83288829D01*
X145921247Y-83288830D01*
X145911540Y-83292003D01*
X145692679Y-83405935D01*
X145495364Y-83554083D01*
X145488307Y-83561467D01*
X145488301Y-83561473D01*
X145405255Y-83648376D01*
X145325719Y-83704172D01*
X145230886Y-83725283D01*
X145135192Y-83708496D01*
X145053207Y-83656366D01*
X145041077Y-83643937D01*
X144981846Y-83578842D01*
X144788210Y-83425918D01*
X144776117Y-83419242D01*
X144581143Y-83311611D01*
X144581144Y-83311611D01*
X144572198Y-83306673D01*
X144562572Y-83303264D01*
X144562567Y-83303262D01*
X144349240Y-83227719D01*
X144349238Y-83227718D01*
X144339610Y-83224309D01*
X144096694Y-83181039D01*
X144086474Y-83180914D01*
X144086472Y-83180914D01*
X143946179Y-83179200D01*
X143849972Y-83178025D01*
X143660826Y-83206968D01*
X143616166Y-83213802D01*
X143616165Y-83213802D01*
X143606070Y-83215347D01*
X143596359Y-83218521D01*
X143381250Y-83288829D01*
X143381247Y-83288830D01*
X143371540Y-83292003D01*
X143152679Y-83405935D01*
X142955364Y-83554083D01*
X142948312Y-83561463D01*
X142948307Y-83561467D01*
X142857620Y-83656366D01*
X142784896Y-83732468D01*
X142645851Y-83936300D01*
X142541965Y-84160104D01*
X142539238Y-84169939D01*
X142539236Y-84169943D01*
X142478757Y-84388022D01*
X142476026Y-84397871D01*
X142471889Y-84436582D01*
X142451558Y-84626824D01*
X142449806Y-84643214D01*
X142464010Y-84889545D01*
X142466257Y-84899514D01*
X142466257Y-84899517D01*
X142486209Y-84988049D01*
X142518255Y-85130249D01*
X142611084Y-85358861D01*
X142740006Y-85569241D01*
X142901557Y-85755741D01*
X142909424Y-85762272D01*
X142916718Y-85769415D01*
X142915359Y-85770803D01*
X142967614Y-85835219D01*
X142995288Y-85928349D01*
X142985215Y-86024981D01*
X142938930Y-86110402D01*
X142927371Y-86123375D01*
X142791963Y-86265072D01*
X142791959Y-86265077D01*
X142784896Y-86272468D01*
X142779134Y-86280915D01*
X142700773Y-86395788D01*
X142645851Y-86476300D01*
X142541965Y-86700104D01*
X142539238Y-86709939D01*
X142539236Y-86709943D01*
X142478757Y-86928022D01*
X142476026Y-86937871D01*
X142449806Y-87183214D01*
X142464010Y-87429545D01*
X142518255Y-87670249D01*
X142611084Y-87898861D01*
X142616421Y-87907571D01*
X142616422Y-87907572D01*
X142635559Y-87938800D01*
X142740006Y-88109241D01*
X142901557Y-88295741D01*
X142909425Y-88302273D01*
X142916718Y-88309415D01*
X142915359Y-88310803D01*
X142967614Y-88375219D01*
X142995288Y-88468349D01*
X142985215Y-88564981D01*
X142938930Y-88650402D01*
X142927371Y-88663375D01*
X142791963Y-88805072D01*
X142791959Y-88805077D01*
X142784896Y-88812468D01*
X142779134Y-88820915D01*
X142669168Y-88982119D01*
X142645851Y-89016300D01*
X142541965Y-89240104D01*
X142539238Y-89249939D01*
X142539236Y-89249943D01*
X142478757Y-89468022D01*
X142476026Y-89477871D01*
X142449806Y-89723214D01*
X142464010Y-89969545D01*
X142518255Y-90210249D01*
X142611084Y-90438861D01*
X142616421Y-90447571D01*
X142616422Y-90447572D01*
X142664669Y-90526303D01*
X142740006Y-90649241D01*
X142901557Y-90835741D01*
X142909425Y-90842273D01*
X142916718Y-90849415D01*
X142915359Y-90850803D01*
X142967614Y-90915219D01*
X142995288Y-91008349D01*
X142985215Y-91104981D01*
X142938930Y-91190402D01*
X142927371Y-91203375D01*
X142791963Y-91345072D01*
X142791959Y-91345077D01*
X142784896Y-91352468D01*
X142779134Y-91360915D01*
X142681835Y-91503550D01*
X142645851Y-91556300D01*
X142541965Y-91780104D01*
X142539238Y-91789939D01*
X142539236Y-91789943D01*
X142529600Y-91824690D01*
X142476026Y-92017871D01*
X142449806Y-92263214D01*
X142464010Y-92509545D01*
X142518255Y-92750249D01*
X142611084Y-92978861D01*
X142740006Y-93189241D01*
X142901557Y-93375741D01*
X142909425Y-93382273D01*
X142916718Y-93389415D01*
X142915359Y-93390803D01*
X142967614Y-93455219D01*
X142995288Y-93548349D01*
X142985215Y-93644981D01*
X142938930Y-93730402D01*
X142927371Y-93743375D01*
X142791963Y-93885072D01*
X142791959Y-93885077D01*
X142784896Y-93892468D01*
X142645851Y-94096300D01*
X142541965Y-94320104D01*
X142539238Y-94329939D01*
X142539236Y-94329943D01*
X142482701Y-94533802D01*
X142476026Y-94557871D01*
X142471067Y-94604271D01*
X142455253Y-94752248D01*
X142449806Y-94803214D01*
X142464010Y-95049545D01*
X142466257Y-95059514D01*
X142466257Y-95059517D01*
X142515929Y-95279928D01*
X142518255Y-95290249D01*
X142611084Y-95518861D01*
X142740006Y-95729241D01*
X142901557Y-95915741D01*
X142909425Y-95922273D01*
X142916718Y-95929415D01*
X142915359Y-95930803D01*
X142967614Y-95995219D01*
X142995288Y-96088349D01*
X142985215Y-96184981D01*
X142938930Y-96270402D01*
X142927371Y-96283375D01*
X142791963Y-96425072D01*
X142791959Y-96425077D01*
X142784896Y-96432468D01*
X142779134Y-96440915D01*
X142673787Y-96595348D01*
X142645851Y-96636300D01*
X142541965Y-96860104D01*
X142539238Y-96869939D01*
X142539236Y-96869943D01*
X142482163Y-97075741D01*
X142476026Y-97097871D01*
X142466149Y-97190294D01*
X142455142Y-97293287D01*
X142449806Y-97343214D01*
X142464010Y-97589545D01*
X142518255Y-97830249D01*
X142611084Y-98058861D01*
X142740006Y-98269241D01*
X142901557Y-98455741D01*
X142909424Y-98462272D01*
X142916718Y-98469415D01*
X142915359Y-98470803D01*
X142967614Y-98535219D01*
X142995288Y-98628349D01*
X142985215Y-98724981D01*
X142938930Y-98810402D01*
X142927371Y-98823375D01*
X142791963Y-98965072D01*
X142791959Y-98965077D01*
X142784896Y-98972468D01*
X142765406Y-99001039D01*
X142676336Y-99131611D01*
X142645851Y-99176300D01*
X142541965Y-99400104D01*
X142539238Y-99409939D01*
X142539236Y-99409943D01*
X142489325Y-99589917D01*
X142476026Y-99637871D01*
X142449806Y-99883214D01*
X142464010Y-100129545D01*
X142466257Y-100139514D01*
X142466257Y-100139517D01*
X142490695Y-100247956D01*
X142518255Y-100370249D01*
X142611084Y-100598861D01*
X142740006Y-100809241D01*
X142901557Y-100995741D01*
X143091399Y-101153351D01*
X143304433Y-101277838D01*
X143534939Y-101365859D01*
X143544950Y-101367896D01*
X143544954Y-101367897D01*
X143766713Y-101413015D01*
X143766715Y-101413015D01*
X143776726Y-101415052D01*
X143879353Y-101418815D01*
X144013087Y-101423719D01*
X144013093Y-101423719D01*
X144023300Y-101424093D01*
X144033431Y-101422795D01*
X144033436Y-101422795D01*
X144168670Y-101405471D01*
X144268041Y-101392741D01*
X144279708Y-101389241D01*
X144357644Y-101365859D01*
X144504374Y-101321838D01*
X144725954Y-101213287D01*
X144819132Y-101146824D01*
X144918512Y-101075937D01*
X144918516Y-101075934D01*
X144926829Y-101070004D01*
X145048473Y-100948784D01*
X145129349Y-100894949D01*
X145224670Y-100876161D01*
X145319925Y-100895282D01*
X145400612Y-100949399D01*
X145412442Y-100962130D01*
X145441557Y-100995741D01*
X145631399Y-101153351D01*
X145844433Y-101277838D01*
X146074939Y-101365859D01*
X146084950Y-101367896D01*
X146084954Y-101367897D01*
X146306713Y-101413015D01*
X146306715Y-101413015D01*
X146316726Y-101415052D01*
X146419353Y-101418815D01*
X146553087Y-101423719D01*
X146553093Y-101423719D01*
X146563300Y-101424093D01*
X146573431Y-101422795D01*
X146573436Y-101422795D01*
X146708670Y-101405471D01*
X146808041Y-101392741D01*
X146819708Y-101389241D01*
X146897644Y-101365859D01*
X147044374Y-101321838D01*
X147265954Y-101213287D01*
X147359132Y-101146824D01*
X147458512Y-101075937D01*
X147458516Y-101075934D01*
X147466829Y-101070004D01*
X147588473Y-100948784D01*
X147669349Y-100894949D01*
X147764670Y-100876161D01*
X147859925Y-100895282D01*
X147940612Y-100949399D01*
X147952442Y-100962130D01*
X147981557Y-100995741D01*
X148171399Y-101153351D01*
X148384433Y-101277838D01*
X148614939Y-101365859D01*
X148624950Y-101367896D01*
X148624954Y-101367897D01*
X148846713Y-101413015D01*
X148846715Y-101413015D01*
X148856726Y-101415052D01*
X148959353Y-101418815D01*
X149093087Y-101423719D01*
X149093093Y-101423719D01*
X149103300Y-101424093D01*
X149113431Y-101422795D01*
X149113436Y-101422795D01*
X149248670Y-101405471D01*
X149348041Y-101392741D01*
X149359708Y-101389241D01*
X149437644Y-101365859D01*
X149584374Y-101321838D01*
X149805954Y-101213287D01*
X149899132Y-101146824D01*
X149998512Y-101075937D01*
X149998516Y-101075934D01*
X150006829Y-101070004D01*
X150128473Y-100948784D01*
X150209349Y-100894949D01*
X150304670Y-100876161D01*
X150399925Y-100895282D01*
X150480612Y-100949399D01*
X150492442Y-100962130D01*
X150521557Y-100995741D01*
X150711399Y-101153351D01*
X150924433Y-101277838D01*
X151154939Y-101365859D01*
X151164950Y-101367896D01*
X151164954Y-101367897D01*
X151386713Y-101413015D01*
X151386715Y-101413015D01*
X151396726Y-101415052D01*
X151499353Y-101418815D01*
X151633087Y-101423719D01*
X151633093Y-101423719D01*
X151643300Y-101424093D01*
X151653431Y-101422795D01*
X151653436Y-101422795D01*
X151788670Y-101405471D01*
X151888041Y-101392741D01*
X151899708Y-101389241D01*
X151977644Y-101365859D01*
X152124374Y-101321838D01*
X152345954Y-101213287D01*
X152439132Y-101146824D01*
X152538512Y-101075937D01*
X152538516Y-101075934D01*
X152546829Y-101070004D01*
X152668473Y-100948784D01*
X152749349Y-100894949D01*
X152844670Y-100876161D01*
X152939925Y-100895282D01*
X153020612Y-100949399D01*
X153032442Y-100962130D01*
X153061557Y-100995741D01*
X153251399Y-101153351D01*
X153464433Y-101277838D01*
X153694939Y-101365859D01*
X153704950Y-101367896D01*
X153704954Y-101367897D01*
X153926713Y-101413015D01*
X153926715Y-101413015D01*
X153936726Y-101415052D01*
X154039353Y-101418815D01*
X154173087Y-101423719D01*
X154173093Y-101423719D01*
X154183300Y-101424093D01*
X154193431Y-101422795D01*
X154193436Y-101422795D01*
X154328670Y-101405471D01*
X154428041Y-101392741D01*
X154439708Y-101389241D01*
X154517644Y-101365859D01*
X154664374Y-101321838D01*
X154885954Y-101213287D01*
X154979132Y-101146824D01*
X155078512Y-101075937D01*
X155078516Y-101075934D01*
X155086829Y-101070004D01*
X155208473Y-100948784D01*
X155289349Y-100894949D01*
X155384670Y-100876161D01*
X155479925Y-100895282D01*
X155560612Y-100949399D01*
X155572442Y-100962130D01*
X155601557Y-100995741D01*
X155791399Y-101153351D01*
X156004433Y-101277838D01*
X156234939Y-101365859D01*
X156244950Y-101367896D01*
X156244954Y-101367897D01*
X156466713Y-101413015D01*
X156466715Y-101413015D01*
X156476726Y-101415052D01*
X156579353Y-101418815D01*
X156713087Y-101423719D01*
X156713093Y-101423719D01*
X156723300Y-101424093D01*
X156733431Y-101422795D01*
X156733436Y-101422795D01*
X156868670Y-101405471D01*
X156968041Y-101392741D01*
X156979708Y-101389241D01*
X157057644Y-101365859D01*
X157204374Y-101321838D01*
X157425954Y-101213287D01*
X157519132Y-101146824D01*
X157618512Y-101075937D01*
X157618516Y-101075934D01*
X157626829Y-101070004D01*
X157748473Y-100948784D01*
X157829349Y-100894949D01*
X157924670Y-100876161D01*
X158019925Y-100895282D01*
X158100612Y-100949399D01*
X158112442Y-100962130D01*
X158141557Y-100995741D01*
X158331399Y-101153351D01*
X158544433Y-101277838D01*
X158774939Y-101365859D01*
X158784950Y-101367896D01*
X158784954Y-101367897D01*
X159006713Y-101413015D01*
X159006715Y-101413015D01*
X159016726Y-101415052D01*
X159119353Y-101418815D01*
X159253087Y-101423719D01*
X159253093Y-101423719D01*
X159263300Y-101424093D01*
X159273431Y-101422795D01*
X159273436Y-101422795D01*
X159408670Y-101405471D01*
X159508041Y-101392741D01*
X159519708Y-101389241D01*
X159597644Y-101365859D01*
X159744374Y-101321838D01*
X159965954Y-101213287D01*
X160059132Y-101146824D01*
X160158512Y-101075937D01*
X160158516Y-101075934D01*
X160166829Y-101070004D01*
X160288473Y-100948784D01*
X160369349Y-100894949D01*
X160464670Y-100876161D01*
X160559925Y-100895282D01*
X160640612Y-100949399D01*
X160652442Y-100962130D01*
X160681557Y-100995741D01*
X160871399Y-101153351D01*
X161084433Y-101277838D01*
X161314939Y-101365859D01*
X161324950Y-101367896D01*
X161324954Y-101367897D01*
X161546713Y-101413015D01*
X161546715Y-101413015D01*
X161556726Y-101415052D01*
X161659353Y-101418815D01*
X161793087Y-101423719D01*
X161793093Y-101423719D01*
X161803300Y-101424093D01*
X161813431Y-101422795D01*
X161813436Y-101422795D01*
X161948670Y-101405471D01*
X162048041Y-101392741D01*
X162059708Y-101389241D01*
X162137644Y-101365859D01*
X162284374Y-101321838D01*
X162505954Y-101213287D01*
X162599132Y-101146824D01*
X162698512Y-101075937D01*
X162698516Y-101075934D01*
X162706829Y-101070004D01*
X162828473Y-100948784D01*
X162909349Y-100894949D01*
X163004670Y-100876161D01*
X163099925Y-100895282D01*
X163180612Y-100949399D01*
X163192442Y-100962130D01*
X163221557Y-100995741D01*
X163411399Y-101153351D01*
X163624433Y-101277838D01*
X163854939Y-101365859D01*
X163864950Y-101367896D01*
X163864954Y-101367897D01*
X164086713Y-101413015D01*
X164086715Y-101413015D01*
X164096726Y-101415052D01*
X164199353Y-101418815D01*
X164333087Y-101423719D01*
X164333093Y-101423719D01*
X164343300Y-101424093D01*
X164353431Y-101422795D01*
X164353436Y-101422795D01*
X164488670Y-101405471D01*
X164588041Y-101392741D01*
X164599708Y-101389241D01*
X164677644Y-101365859D01*
X164824374Y-101321838D01*
X165045954Y-101213287D01*
X165139132Y-101146824D01*
X165238512Y-101075937D01*
X165238516Y-101075934D01*
X165246829Y-101070004D01*
X165368473Y-100948784D01*
X165449349Y-100894949D01*
X165544670Y-100876161D01*
X165639925Y-100895282D01*
X165720612Y-100949399D01*
X165732442Y-100962130D01*
X165761557Y-100995741D01*
X165951399Y-101153351D01*
X166164433Y-101277838D01*
X166394939Y-101365859D01*
X166404950Y-101367896D01*
X166404954Y-101367897D01*
X166626713Y-101413015D01*
X166626715Y-101413015D01*
X166636726Y-101415052D01*
X166739353Y-101418815D01*
X166873087Y-101423719D01*
X166873093Y-101423719D01*
X166883300Y-101424093D01*
X166893431Y-101422795D01*
X166893436Y-101422795D01*
X167028670Y-101405471D01*
X167128041Y-101392741D01*
X167139708Y-101389241D01*
X167217644Y-101365859D01*
X167364374Y-101321838D01*
X167585954Y-101213287D01*
X167679132Y-101146824D01*
X167778512Y-101075937D01*
X167778516Y-101075934D01*
X167786829Y-101070004D01*
X167908473Y-100948784D01*
X167989349Y-100894949D01*
X168084670Y-100876161D01*
X168179925Y-100895282D01*
X168260612Y-100949399D01*
X168272442Y-100962130D01*
X168301557Y-100995741D01*
X168491399Y-101153351D01*
X168704433Y-101277838D01*
X168934939Y-101365859D01*
X168944950Y-101367896D01*
X168944954Y-101367897D01*
X169166713Y-101413015D01*
X169166715Y-101413015D01*
X169176726Y-101415052D01*
X169279353Y-101418815D01*
X169413087Y-101423719D01*
X169413093Y-101423719D01*
X169423300Y-101424093D01*
X169433431Y-101422795D01*
X169433436Y-101422795D01*
X169568670Y-101405471D01*
X169668041Y-101392741D01*
X169679708Y-101389241D01*
X169757644Y-101365859D01*
X169904374Y-101321838D01*
X170125954Y-101213287D01*
X170219132Y-101146824D01*
X170318512Y-101075937D01*
X170318516Y-101075934D01*
X170326829Y-101070004D01*
X170448473Y-100948784D01*
X170529349Y-100894949D01*
X170624670Y-100876161D01*
X170719925Y-100895282D01*
X170800612Y-100949399D01*
X170812442Y-100962130D01*
X170841557Y-100995741D01*
X171031399Y-101153351D01*
X171244433Y-101277838D01*
X171474939Y-101365859D01*
X171484950Y-101367896D01*
X171484954Y-101367897D01*
X171706713Y-101413015D01*
X171706715Y-101413015D01*
X171716726Y-101415052D01*
X171819353Y-101418815D01*
X171953087Y-101423719D01*
X171953093Y-101423719D01*
X171963300Y-101424093D01*
X171973431Y-101422795D01*
X171973436Y-101422795D01*
X172108670Y-101405471D01*
X172208041Y-101392741D01*
X172219708Y-101389241D01*
X172297644Y-101365859D01*
X172444374Y-101321838D01*
X172665954Y-101213287D01*
X172759132Y-101146824D01*
X172858512Y-101075937D01*
X172858516Y-101075934D01*
X172866829Y-101070004D01*
X173041605Y-100895837D01*
X173185588Y-100695463D01*
X173294911Y-100474264D01*
X173298269Y-100463214D01*
X173363669Y-100247956D01*
X173363669Y-100247954D01*
X173366639Y-100238180D01*
X173367975Y-100228036D01*
X173397981Y-100000114D01*
X173397981Y-100000111D01*
X173398845Y-99993550D01*
X173400643Y-99920000D01*
X173380425Y-99674089D01*
X173320316Y-99434783D01*
X173221928Y-99208507D01*
X173087905Y-99001339D01*
X172921846Y-98818842D01*
X172913829Y-98812511D01*
X172913822Y-98812504D01*
X172840175Y-98754341D01*
X172777142Y-98680409D01*
X172747200Y-98587983D01*
X172745500Y-98558932D01*
X172745500Y-98377805D01*
X172764454Y-98282517D01*
X172818430Y-98201735D01*
X172899212Y-98147759D01*
X172994500Y-98128805D01*
X173089788Y-98147759D01*
X173170570Y-98201735D01*
X173206808Y-98247704D01*
X173220006Y-98269241D01*
X173381557Y-98455741D01*
X173571399Y-98613351D01*
X173784433Y-98737838D01*
X174014939Y-98825859D01*
X174024950Y-98827896D01*
X174024954Y-98827897D01*
X174246713Y-98873015D01*
X174246715Y-98873015D01*
X174256726Y-98875052D01*
X174359353Y-98878815D01*
X174493087Y-98883719D01*
X174493093Y-98883719D01*
X174503300Y-98884093D01*
X174513431Y-98882795D01*
X174513436Y-98882795D01*
X174648670Y-98865471D01*
X174748041Y-98852741D01*
X174984374Y-98781838D01*
X175205954Y-98673287D01*
X175325546Y-98587983D01*
X175398512Y-98535937D01*
X175398516Y-98535934D01*
X175406829Y-98530004D01*
X175581605Y-98355837D01*
X175725588Y-98155463D01*
X175834911Y-97934264D01*
X175866514Y-97830249D01*
X175903669Y-97707956D01*
X175903669Y-97707954D01*
X175906639Y-97698180D01*
X175933650Y-97493015D01*
X175937981Y-97460114D01*
X175937981Y-97460111D01*
X175938845Y-97453550D01*
X175940643Y-97380000D01*
X175920425Y-97134089D01*
X175860316Y-96894783D01*
X175761928Y-96668507D01*
X175627905Y-96461339D01*
X175461846Y-96278842D01*
X175268210Y-96125918D01*
X175223463Y-96101216D01*
X175061143Y-96011611D01*
X175061144Y-96011611D01*
X175052198Y-96006673D01*
X175042572Y-96003264D01*
X175042567Y-96003262D01*
X174829240Y-95927719D01*
X174829238Y-95927718D01*
X174819610Y-95924309D01*
X174576694Y-95881039D01*
X174566474Y-95880914D01*
X174566472Y-95880914D01*
X174426179Y-95879200D01*
X174329972Y-95878025D01*
X174140826Y-95906968D01*
X174096166Y-95913802D01*
X174096165Y-95913802D01*
X174086070Y-95915347D01*
X174076359Y-95918521D01*
X173861250Y-95988829D01*
X173861247Y-95988830D01*
X173851540Y-95992003D01*
X173632679Y-96105935D01*
X173435364Y-96254083D01*
X173428312Y-96261463D01*
X173428307Y-96261467D01*
X173337620Y-96356366D01*
X173264896Y-96432468D01*
X173200195Y-96527316D01*
X173130844Y-96595348D01*
X173040731Y-96631665D01*
X172943581Y-96630732D01*
X172854182Y-96592693D01*
X172786146Y-96523338D01*
X172749829Y-96433225D01*
X172745500Y-96386994D01*
X172745500Y-89260428D01*
X172764454Y-89165140D01*
X172818430Y-89084359D01*
X173579357Y-88323431D01*
X173660139Y-88269454D01*
X173755427Y-88250500D01*
X178053777Y-88250500D01*
X178074613Y-88251373D01*
X178107464Y-88254132D01*
X178107468Y-88254132D01*
X178120902Y-88255260D01*
X178152920Y-88250988D01*
X178199205Y-88244813D01*
X178205241Y-88244083D01*
X178270299Y-88237015D01*
X178270300Y-88237015D01*
X178283709Y-88235558D01*
X178293661Y-88232209D01*
X178304069Y-88230820D01*
X178378321Y-88203794D01*
X178384007Y-88201804D01*
X178446063Y-88180920D01*
X178446066Y-88180919D01*
X178458848Y-88176617D01*
X178467848Y-88171209D01*
X178477715Y-88167618D01*
X178489096Y-88160396D01*
X178489099Y-88160394D01*
X178544365Y-88125321D01*
X178549539Y-88122125D01*
X178605686Y-88088388D01*
X178605687Y-88088387D01*
X178617244Y-88081443D01*
X178624718Y-88074375D01*
X178625119Y-88074072D01*
X178633738Y-88068602D01*
X178637972Y-88064817D01*
X178690302Y-88012487D01*
X178695287Y-88007641D01*
X178741707Y-87963743D01*
X178751507Y-87954476D01*
X178757052Y-87946317D01*
X178763976Y-87938813D01*
X178874932Y-87827856D01*
X178955712Y-87773882D01*
X179051000Y-87754928D01*
X179146288Y-87773882D01*
X179227070Y-87827858D01*
X179281046Y-87908640D01*
X179300000Y-88003928D01*
X179300000Y-141657521D01*
X179281046Y-141752809D01*
X179227070Y-141833591D01*
X178060660Y-143000000D01*
X177000000Y-144060660D01*
X175833591Y-145227070D01*
X175752809Y-145281046D01*
X175657521Y-145300000D01*
X171564591Y-145300000D01*
X171469303Y-145281046D01*
X171388521Y-145227070D01*
X171334545Y-145146288D01*
X171315591Y-145051000D01*
X171334545Y-144955712D01*
X171353311Y-144919237D01*
X171367829Y-144895958D01*
X171367832Y-144895952D01*
X171372489Y-144888485D01*
X171487040Y-144629376D01*
X171563939Y-144356712D01*
X171601652Y-144075933D01*
X171605610Y-143950000D01*
X171601150Y-143887002D01*
X171589516Y-143722705D01*
X171585601Y-143667407D01*
X171573697Y-143612112D01*
X171527829Y-143399066D01*
X171525975Y-143390453D01*
X171427920Y-143124663D01*
X171349366Y-142979076D01*
X174287572Y-142979076D01*
X174303061Y-143290212D01*
X174304704Y-143305093D01*
X174357459Y-143612112D01*
X174360880Y-143626696D01*
X174450135Y-143925147D01*
X174455279Y-143939205D01*
X174579751Y-144224788D01*
X174586537Y-144238106D01*
X174616571Y-144289197D01*
X174630446Y-144304769D01*
X174634953Y-144303200D01*
X174640193Y-144299146D01*
X175921999Y-143017341D01*
X175933586Y-143000000D01*
X175921999Y-142982659D01*
X174644814Y-141705475D01*
X174627473Y-141693888D01*
X174622393Y-141697283D01*
X174619853Y-141700496D01*
X174613001Y-141711612D01*
X174605930Y-141724799D01*
X174475506Y-142007711D01*
X174470070Y-142021653D01*
X174374579Y-142318183D01*
X174370859Y-142332675D01*
X174311682Y-142638538D01*
X174309731Y-142653363D01*
X174287728Y-142964114D01*
X174287572Y-142979076D01*
X171349366Y-142979076D01*
X171293393Y-142875340D01*
X171249388Y-142815761D01*
X171130306Y-142654538D01*
X171130305Y-142654537D01*
X171125078Y-142647460D01*
X170926334Y-142445570D01*
X170872718Y-142404651D01*
X170708127Y-142279039D01*
X170701126Y-142273696D01*
X170693447Y-142269395D01*
X170693443Y-142269393D01*
X170461634Y-142139575D01*
X170453947Y-142135270D01*
X170189730Y-142033052D01*
X170181163Y-142031066D01*
X170181159Y-142031065D01*
X169922329Y-141971071D01*
X169922326Y-141971071D01*
X169913747Y-141969082D01*
X169631503Y-141944637D01*
X169433439Y-141955538D01*
X169357421Y-141959721D01*
X169357418Y-141959721D01*
X169348630Y-141960205D01*
X169340002Y-141961921D01*
X169339996Y-141961922D01*
X169079405Y-142013757D01*
X169079402Y-142013758D01*
X169070774Y-142015474D01*
X168963010Y-142053318D01*
X168811773Y-142106428D01*
X168811769Y-142106430D01*
X168803476Y-142109342D01*
X168795675Y-142113394D01*
X168795671Y-142113396D01*
X168559883Y-142235878D01*
X168559878Y-142235881D01*
X168552072Y-142239936D01*
X168544909Y-142245055D01*
X168544907Y-142245056D01*
X168328740Y-142399531D01*
X168328735Y-142399535D01*
X168321576Y-142404651D01*
X168278682Y-142445570D01*
X168122966Y-142594114D01*
X168122961Y-142594119D01*
X168116588Y-142600199D01*
X168111132Y-142607120D01*
X168111131Y-142607121D01*
X168079331Y-142647460D01*
X167941199Y-142822680D01*
X167798907Y-143067654D01*
X167795604Y-143075810D01*
X167795601Y-143075815D01*
X167714018Y-143277234D01*
X167692552Y-143330232D01*
X167624255Y-143605177D01*
X167595380Y-143887002D01*
X167606502Y-144170084D01*
X167608083Y-144178742D01*
X167608084Y-144178749D01*
X167638992Y-144347985D01*
X167657400Y-144448775D01*
X167747058Y-144717514D01*
X167822789Y-144869076D01*
X167858079Y-144939703D01*
X167883715Y-145033414D01*
X167871538Y-145129803D01*
X167823402Y-145214195D01*
X167746634Y-145273742D01*
X167652923Y-145299378D01*
X167635337Y-145300000D01*
X129342479Y-145300000D01*
X129247191Y-145281046D01*
X129166409Y-145227070D01*
X126939340Y-143000000D01*
X129066414Y-143000000D01*
X129078001Y-143017341D01*
X130356267Y-144295606D01*
X130373608Y-144307193D01*
X130378561Y-144303883D01*
X130380583Y-144300205D01*
X130513961Y-144018676D01*
X130519548Y-144004778D01*
X130618135Y-143709277D01*
X130622009Y-143694820D01*
X130684383Y-143389609D01*
X130686494Y-143374774D01*
X130711997Y-143061223D01*
X130712401Y-143052395D01*
X130712904Y-143004400D01*
X130712686Y-142995616D01*
X130693752Y-142681562D01*
X130691952Y-142666691D01*
X130635988Y-142360260D01*
X130632413Y-142345702D01*
X130540036Y-142048199D01*
X130534747Y-142034201D01*
X130407288Y-141749931D01*
X130400366Y-141736690D01*
X130384307Y-141710015D01*
X130370269Y-141694589D01*
X130365148Y-141696433D01*
X130360930Y-141699731D01*
X129078001Y-142982659D01*
X129066414Y-143000000D01*
X126939340Y-143000000D01*
X125772930Y-141833591D01*
X125718954Y-141752809D01*
X125700000Y-141657521D01*
X125700000Y-140630116D01*
X126694937Y-140630116D01*
X126696643Y-140634933D01*
X126700316Y-140639655D01*
X127982659Y-141921999D01*
X128000000Y-141933586D01*
X128017341Y-141921999D01*
X129294063Y-140645276D01*
X129305650Y-140627935D01*
X129302439Y-140623130D01*
X129298729Y-140620213D01*
X129275876Y-140606291D01*
X129262639Y-140599282D01*
X128979064Y-140470348D01*
X128965082Y-140464981D01*
X128668058Y-140371045D01*
X128653555Y-140367402D01*
X128347394Y-140309828D01*
X128332537Y-140307951D01*
X128021692Y-140287578D01*
X128006714Y-140287499D01*
X127695659Y-140304617D01*
X127680803Y-140306337D01*
X127374063Y-140360699D01*
X127359495Y-140364197D01*
X127061520Y-140455013D01*
X127047478Y-140460235D01*
X126762565Y-140586194D01*
X126749262Y-140593060D01*
X126710437Y-140616159D01*
X126694937Y-140630116D01*
X125700000Y-140630116D01*
X125700000Y-138549725D01*
X131699500Y-138549725D01*
X131699501Y-139501088D01*
X131699501Y-140455992D01*
X131706171Y-140528594D01*
X131756873Y-140690383D01*
X131844703Y-140835408D01*
X131964592Y-140955297D01*
X132109617Y-141043127D01*
X132271406Y-141093829D01*
X132284561Y-141095038D01*
X132284562Y-141095038D01*
X132300963Y-141096545D01*
X132344007Y-141100500D01*
X132349725Y-141100500D01*
X133301087Y-141100499D01*
X134255992Y-141100499D01*
X134281921Y-141098117D01*
X134315439Y-141095038D01*
X134315443Y-141095037D01*
X134328594Y-141093829D01*
X134341197Y-141089879D01*
X134341199Y-141089879D01*
X134405462Y-141069740D01*
X134490383Y-141043127D01*
X134635408Y-140955297D01*
X134718713Y-140871992D01*
X137993984Y-140871992D01*
X137999730Y-140875831D01*
X138122700Y-140900849D01*
X138142926Y-140903261D01*
X138353878Y-140910997D01*
X138374225Y-140910074D01*
X138583615Y-140883249D01*
X138594767Y-140880879D01*
X138608465Y-140873610D01*
X138603395Y-140864055D01*
X138317341Y-140578001D01*
X138300000Y-140566414D01*
X138282659Y-140578001D01*
X138004689Y-140855971D01*
X137993984Y-140871992D01*
X134718713Y-140871992D01*
X134755297Y-140835408D01*
X134843127Y-140690383D01*
X134893829Y-140528594D01*
X134900500Y-140455993D01*
X134900500Y-139500000D01*
X134900500Y-139475689D01*
X136888185Y-139475689D01*
X136900336Y-139686431D01*
X136903168Y-139706587D01*
X136921609Y-139788418D01*
X136929430Y-139806026D01*
X136936419Y-139802921D01*
X137221999Y-139517341D01*
X137233586Y-139500000D01*
X139366414Y-139500000D01*
X139378001Y-139517341D01*
X139658523Y-139797863D01*
X139674544Y-139808568D01*
X139679506Y-139801141D01*
X139682252Y-139788438D01*
X139710275Y-139575581D01*
X139711301Y-139562399D01*
X139712664Y-139506626D01*
X139712473Y-139500000D01*
X141694551Y-139500000D01*
X141714317Y-139751148D01*
X141773127Y-139996111D01*
X141869534Y-140228859D01*
X141874648Y-140237205D01*
X141874651Y-140237210D01*
X141905469Y-140287499D01*
X142001164Y-140443659D01*
X142007510Y-140451089D01*
X142007512Y-140451092D01*
X142062469Y-140515438D01*
X142164776Y-140635224D01*
X142172218Y-140641580D01*
X142317625Y-140765769D01*
X142356341Y-140798836D01*
X142416021Y-140835408D01*
X142562790Y-140925349D01*
X142562795Y-140925352D01*
X142571141Y-140930466D01*
X142803889Y-141026873D01*
X142813396Y-141029156D01*
X142813401Y-141029157D01*
X142871592Y-141043127D01*
X143048852Y-141085683D01*
X143300000Y-141105449D01*
X143551148Y-141085683D01*
X143728408Y-141043127D01*
X143786599Y-141029157D01*
X143786604Y-141029156D01*
X143796111Y-141026873D01*
X144028859Y-140930466D01*
X144037205Y-140925352D01*
X144037210Y-140925349D01*
X144124280Y-140871992D01*
X147993984Y-140871992D01*
X147999730Y-140875831D01*
X148122700Y-140900849D01*
X148142926Y-140903261D01*
X148353878Y-140910997D01*
X148374225Y-140910074D01*
X148583615Y-140883249D01*
X148594767Y-140880879D01*
X148608465Y-140873610D01*
X148603395Y-140864055D01*
X148317341Y-140578001D01*
X148300000Y-140566414D01*
X148282659Y-140578001D01*
X148004689Y-140855971D01*
X147993984Y-140871992D01*
X144124280Y-140871992D01*
X144183979Y-140835408D01*
X144243659Y-140798836D01*
X144282376Y-140765769D01*
X144427782Y-140641580D01*
X144435224Y-140635224D01*
X144537531Y-140515438D01*
X144592488Y-140451092D01*
X144592490Y-140451089D01*
X144598836Y-140443659D01*
X144694531Y-140287499D01*
X144725349Y-140237210D01*
X144725352Y-140237205D01*
X144730466Y-140228859D01*
X144826873Y-139996111D01*
X144885683Y-139751148D01*
X144905449Y-139500000D01*
X144903536Y-139475689D01*
X146888185Y-139475689D01*
X146900336Y-139686431D01*
X146903168Y-139706587D01*
X146921609Y-139788418D01*
X146929430Y-139806026D01*
X146936419Y-139802921D01*
X147221999Y-139517341D01*
X147233586Y-139500000D01*
X149366414Y-139500000D01*
X149378001Y-139517341D01*
X149658523Y-139797863D01*
X149674544Y-139808568D01*
X149679506Y-139801141D01*
X149679753Y-139800000D01*
X153606935Y-139800000D01*
X153627164Y-140057032D01*
X153687352Y-140307735D01*
X153786018Y-140545936D01*
X153791133Y-140554282D01*
X153791135Y-140554287D01*
X153915623Y-140757432D01*
X153920732Y-140765769D01*
X154088178Y-140961822D01*
X154284231Y-141129268D01*
X154292567Y-141134377D01*
X154292568Y-141134377D01*
X154495713Y-141258865D01*
X154495718Y-141258867D01*
X154504064Y-141263982D01*
X154742265Y-141362648D01*
X154992968Y-141422836D01*
X155250000Y-141443065D01*
X155507032Y-141422836D01*
X155757735Y-141362648D01*
X155995936Y-141263982D01*
X156004282Y-141258867D01*
X156004287Y-141258865D01*
X156207432Y-141134377D01*
X156207433Y-141134377D01*
X156215769Y-141129268D01*
X156411822Y-140961822D01*
X156579268Y-140765769D01*
X156584377Y-140757432D01*
X156708865Y-140554287D01*
X156708867Y-140554282D01*
X156713982Y-140545936D01*
X156812648Y-140307735D01*
X156872836Y-140057032D01*
X156893065Y-139800000D01*
X156872836Y-139542968D01*
X156812648Y-139292265D01*
X156713982Y-139054064D01*
X156708867Y-139045718D01*
X156708865Y-139045713D01*
X156584377Y-138842568D01*
X156584377Y-138842567D01*
X156579268Y-138834231D01*
X156560473Y-138812225D01*
X158612000Y-138812225D01*
X158612001Y-139801129D01*
X158612001Y-140793492D01*
X158614383Y-140819421D01*
X158616827Y-140846020D01*
X158618671Y-140866094D01*
X158622621Y-140878697D01*
X158622621Y-140878699D01*
X158638844Y-140930466D01*
X158669373Y-141027883D01*
X158757203Y-141172908D01*
X158877092Y-141292797D01*
X159022117Y-141380627D01*
X159183906Y-141431329D01*
X159197061Y-141432538D01*
X159197062Y-141432538D01*
X159213463Y-141434045D01*
X159256507Y-141438000D01*
X159262225Y-141438000D01*
X160251130Y-141437999D01*
X161243492Y-141437999D01*
X161269421Y-141435617D01*
X161302939Y-141432538D01*
X161302943Y-141432537D01*
X161316094Y-141431329D01*
X161328697Y-141427379D01*
X161328699Y-141427379D01*
X161392962Y-141407240D01*
X161477883Y-141380627D01*
X161622908Y-141292797D01*
X161742797Y-141172908D01*
X161830627Y-141027883D01*
X161881329Y-140866094D01*
X161888000Y-140793493D01*
X161888000Y-140630116D01*
X175694937Y-140630116D01*
X175696643Y-140634933D01*
X175700316Y-140639655D01*
X176982659Y-141921999D01*
X177000000Y-141933586D01*
X177017341Y-141921999D01*
X178294063Y-140645276D01*
X178305650Y-140627935D01*
X178302439Y-140623130D01*
X178298729Y-140620213D01*
X178275876Y-140606291D01*
X178262639Y-140599282D01*
X177979064Y-140470348D01*
X177965082Y-140464981D01*
X177668058Y-140371045D01*
X177653555Y-140367402D01*
X177347394Y-140309828D01*
X177332537Y-140307951D01*
X177021692Y-140287578D01*
X177006714Y-140287499D01*
X176695659Y-140304617D01*
X176680803Y-140306337D01*
X176374063Y-140360699D01*
X176359495Y-140364197D01*
X176061520Y-140455013D01*
X176047478Y-140460235D01*
X175762565Y-140586194D01*
X175749262Y-140593060D01*
X175710437Y-140616159D01*
X175694937Y-140630116D01*
X161888000Y-140630116D01*
X161888000Y-139800000D01*
X161887999Y-138812213D01*
X161887999Y-138806508D01*
X161881329Y-138733906D01*
X161830627Y-138572117D01*
X161742797Y-138427092D01*
X161622908Y-138307203D01*
X161477883Y-138219373D01*
X161316094Y-138168671D01*
X161302939Y-138167462D01*
X161302938Y-138167462D01*
X161286537Y-138165955D01*
X161243493Y-138162000D01*
X161237775Y-138162000D01*
X160248870Y-138162001D01*
X159256508Y-138162001D01*
X159230579Y-138164383D01*
X159197061Y-138167462D01*
X159197057Y-138167463D01*
X159183906Y-138168671D01*
X159171303Y-138172621D01*
X159171301Y-138172621D01*
X159149510Y-138179450D01*
X159022117Y-138219373D01*
X158877092Y-138307203D01*
X158757203Y-138427092D01*
X158669373Y-138572117D01*
X158618671Y-138733906D01*
X158612000Y-138806507D01*
X158612000Y-138812225D01*
X156560473Y-138812225D01*
X156411822Y-138638178D01*
X156215769Y-138470732D01*
X156196301Y-138458802D01*
X156004287Y-138341135D01*
X156004282Y-138341133D01*
X155995936Y-138336018D01*
X155757735Y-138237352D01*
X155507032Y-138177164D01*
X155250000Y-138156935D01*
X154992968Y-138177164D01*
X154742265Y-138237352D01*
X154504064Y-138336018D01*
X154495718Y-138341133D01*
X154495713Y-138341135D01*
X154303699Y-138458802D01*
X154284231Y-138470732D01*
X154088178Y-138638178D01*
X153920732Y-138834231D01*
X153915623Y-138842567D01*
X153915623Y-138842568D01*
X153791135Y-139045713D01*
X153791133Y-139045718D01*
X153786018Y-139054064D01*
X153687352Y-139292265D01*
X153627164Y-139542968D01*
X153606935Y-139800000D01*
X149679753Y-139800000D01*
X149682252Y-139788438D01*
X149710275Y-139575581D01*
X149711301Y-139562399D01*
X149712664Y-139506626D01*
X149712283Y-139493394D01*
X149694692Y-139279432D01*
X149691365Y-139259336D01*
X149679264Y-139211157D01*
X149671014Y-139193743D01*
X149663228Y-139197432D01*
X149378001Y-139482659D01*
X149366414Y-139500000D01*
X147233586Y-139500000D01*
X147221999Y-139482659D01*
X146943089Y-139203749D01*
X146927068Y-139193044D01*
X146921665Y-139201131D01*
X146914928Y-139225422D01*
X146911113Y-139245422D01*
X146888683Y-139455315D01*
X146888185Y-139475689D01*
X144903536Y-139475689D01*
X144885683Y-139248852D01*
X144826873Y-139003889D01*
X144730466Y-138771141D01*
X144725352Y-138762795D01*
X144725349Y-138762790D01*
X144617282Y-138586442D01*
X144598836Y-138556341D01*
X144583453Y-138538329D01*
X144441580Y-138372218D01*
X144435224Y-138364776D01*
X144286030Y-138237352D01*
X144251092Y-138207512D01*
X144251089Y-138207510D01*
X144243659Y-138201164D01*
X144122116Y-138126682D01*
X147990607Y-138126682D01*
X147991979Y-138130464D01*
X147995086Y-138134426D01*
X148282659Y-138421999D01*
X148300000Y-138433586D01*
X148317341Y-138421999D01*
X148596360Y-138142980D01*
X148607065Y-138126959D01*
X148602426Y-138123860D01*
X148600420Y-138123273D01*
X148443023Y-138095237D01*
X148422736Y-138093319D01*
X148211672Y-138090741D01*
X148191340Y-138092162D01*
X148008719Y-138120107D01*
X147990607Y-138126682D01*
X144122116Y-138126682D01*
X144116553Y-138123273D01*
X144037210Y-138074651D01*
X144037205Y-138074648D01*
X144028859Y-138069534D01*
X143796111Y-137973127D01*
X143786604Y-137970844D01*
X143786599Y-137970843D01*
X143684145Y-137946246D01*
X143551148Y-137914317D01*
X143300000Y-137894551D01*
X143048852Y-137914317D01*
X142915855Y-137946246D01*
X142813401Y-137970843D01*
X142813396Y-137970844D01*
X142803889Y-137973127D01*
X142571141Y-138069534D01*
X142562795Y-138074648D01*
X142562790Y-138074651D01*
X142483447Y-138123273D01*
X142356341Y-138201164D01*
X142348911Y-138207510D01*
X142348908Y-138207512D01*
X142313970Y-138237352D01*
X142164776Y-138364776D01*
X142158420Y-138372218D01*
X142016548Y-138538329D01*
X142001164Y-138556341D01*
X141982718Y-138586442D01*
X141874651Y-138762790D01*
X141874648Y-138762795D01*
X141869534Y-138771141D01*
X141773127Y-139003889D01*
X141714317Y-139248852D01*
X141694551Y-139500000D01*
X139712473Y-139500000D01*
X139712283Y-139493394D01*
X139694692Y-139279432D01*
X139691365Y-139259336D01*
X139679264Y-139211157D01*
X139671014Y-139193743D01*
X139663228Y-139197432D01*
X139378001Y-139482659D01*
X139366414Y-139500000D01*
X137233586Y-139500000D01*
X137221999Y-139482659D01*
X136943089Y-139203749D01*
X136927068Y-139193044D01*
X136921665Y-139201131D01*
X136914928Y-139225422D01*
X136911113Y-139245422D01*
X136888683Y-139455315D01*
X136888185Y-139475689D01*
X134900500Y-139475689D01*
X134900499Y-138549713D01*
X134900499Y-138544008D01*
X134893829Y-138471406D01*
X134843127Y-138309617D01*
X134755297Y-138164592D01*
X134717387Y-138126682D01*
X137990607Y-138126682D01*
X137991979Y-138130464D01*
X137995086Y-138134426D01*
X138282659Y-138421999D01*
X138300000Y-138433586D01*
X138317341Y-138421999D01*
X138596360Y-138142980D01*
X138607065Y-138126959D01*
X138602426Y-138123860D01*
X138600420Y-138123273D01*
X138443023Y-138095237D01*
X138422736Y-138093319D01*
X138211672Y-138090741D01*
X138191340Y-138092162D01*
X138008719Y-138120107D01*
X137990607Y-138126682D01*
X134717387Y-138126682D01*
X134635408Y-138044703D01*
X134490383Y-137956873D01*
X134328594Y-137906171D01*
X134315439Y-137904962D01*
X134315438Y-137904962D01*
X134299037Y-137903455D01*
X134255993Y-137899500D01*
X134250275Y-137899500D01*
X133298913Y-137899501D01*
X132344008Y-137899501D01*
X132318079Y-137901883D01*
X132284561Y-137904962D01*
X132284557Y-137904963D01*
X132271406Y-137906171D01*
X132258803Y-137910121D01*
X132258801Y-137910121D01*
X132194538Y-137930260D01*
X132109617Y-137956873D01*
X131964592Y-138044703D01*
X131844703Y-138164592D01*
X131756873Y-138309617D01*
X131706171Y-138471406D01*
X131699500Y-138544007D01*
X131699500Y-138549725D01*
X125700000Y-138549725D01*
X125700000Y-131352457D01*
X125718954Y-131257169D01*
X125772930Y-131176387D01*
X125853712Y-131122411D01*
X125949000Y-131103457D01*
X126044288Y-131122411D01*
X126125069Y-131176387D01*
X126889397Y-131940714D01*
X126899529Y-131951465D01*
X126905461Y-131958146D01*
X126911602Y-131966325D01*
X126985552Y-132036994D01*
X126986306Y-132037714D01*
X126990346Y-132041662D01*
X127017096Y-132068412D01*
X127020977Y-132071704D01*
X127020981Y-132071707D01*
X127023316Y-132073687D01*
X127034277Y-132083556D01*
X127084042Y-132131113D01*
X127092488Y-132136874D01*
X127092490Y-132136876D01*
X127108984Y-132148127D01*
X127129712Y-132163917D01*
X127152737Y-132183444D01*
X127161502Y-132188690D01*
X127161505Y-132188692D01*
X127211786Y-132218785D01*
X127224229Y-132226743D01*
X127281082Y-132265525D01*
X127306144Y-132277158D01*
X127308464Y-132278235D01*
X127331497Y-132290431D01*
X127347409Y-132299954D01*
X127357401Y-132305934D01*
X127366907Y-132309678D01*
X127366916Y-132309683D01*
X127421428Y-132331156D01*
X127435004Y-132336974D01*
X127488158Y-132361647D01*
X127488168Y-132361651D01*
X127497428Y-132365949D01*
X127526522Y-132374017D01*
X127551227Y-132382284D01*
X127569809Y-132389604D01*
X127569817Y-132389606D01*
X127579323Y-132393351D01*
X127625326Y-132403213D01*
X127646615Y-132407777D01*
X127660954Y-132411299D01*
X127727272Y-132429691D01*
X127751799Y-132432312D01*
X127757297Y-132432900D01*
X127783024Y-132437021D01*
X127812542Y-132443349D01*
X127881306Y-132446592D01*
X127895998Y-132447723D01*
X127921986Y-132450500D01*
X127958297Y-132450500D01*
X127970027Y-132450776D01*
X128040592Y-132454104D01*
X128040594Y-132454104D01*
X128050795Y-132454585D01*
X128060941Y-132453393D01*
X128060944Y-132453393D01*
X128071088Y-132452201D01*
X128100140Y-132450500D01*
X164979860Y-132450500D01*
X164994628Y-132450938D01*
X165003560Y-132451469D01*
X165013681Y-132452909D01*
X165117022Y-132450564D01*
X165122672Y-132450500D01*
X165160463Y-132450500D01*
X165168577Y-132449833D01*
X165183328Y-132449060D01*
X165217580Y-132448282D01*
X165241924Y-132447730D01*
X165241927Y-132447730D01*
X165252138Y-132447498D01*
X165281808Y-132441892D01*
X165307626Y-132438401D01*
X165337716Y-132435927D01*
X165347632Y-132433436D01*
X165347634Y-132433436D01*
X165404447Y-132419166D01*
X165418874Y-132415994D01*
X165476464Y-132405112D01*
X165476473Y-132405109D01*
X165486510Y-132403213D01*
X165514865Y-132392837D01*
X165539766Y-132385176D01*
X165569048Y-132377821D01*
X165632165Y-132350377D01*
X165645867Y-132344896D01*
X165710500Y-132321244D01*
X165719391Y-132316214D01*
X165719397Y-132316211D01*
X165736773Y-132306380D01*
X165760095Y-132294751D01*
X165787784Y-132282712D01*
X165845580Y-132245322D01*
X165858186Y-132237687D01*
X165918096Y-132203792D01*
X165926043Y-132197380D01*
X165926050Y-132197375D01*
X165941590Y-132184836D01*
X165962698Y-132169556D01*
X165979463Y-132158710D01*
X165979466Y-132158707D01*
X165988049Y-132153155D01*
X166038949Y-132106839D01*
X166050170Y-132097222D01*
X166065333Y-132084987D01*
X166070494Y-132080823D01*
X166096185Y-132055132D01*
X166104674Y-132047034D01*
X166156915Y-131999498D01*
X166164464Y-131992629D01*
X166170787Y-131984622D01*
X166170795Y-131984614D01*
X166177126Y-131976597D01*
X166196466Y-131954851D01*
X169580859Y-128570458D01*
X169661641Y-128516482D01*
X169751062Y-128497597D01*
X169788745Y-128496709D01*
X170068200Y-128450195D01*
X170338314Y-128364769D01*
X170593697Y-128242136D01*
X170829253Y-128084743D01*
X170845946Y-128069792D01*
X171033721Y-127901606D01*
X171033724Y-127901603D01*
X171040281Y-127895730D01*
X171222573Y-127678868D01*
X171323310Y-127517341D01*
X171367831Y-127445955D01*
X171367835Y-127445948D01*
X171372489Y-127438485D01*
X171487040Y-127179376D01*
X171494716Y-127152161D01*
X171561548Y-126915190D01*
X171563939Y-126906712D01*
X171601652Y-126625933D01*
X171605610Y-126500000D01*
X171603408Y-126468892D01*
X171588068Y-126252248D01*
X171585601Y-126217407D01*
X171583139Y-126205969D01*
X171560066Y-126098801D01*
X171525975Y-125940453D01*
X171427920Y-125674663D01*
X171293393Y-125425340D01*
X171249388Y-125365761D01*
X171130306Y-125204538D01*
X171130305Y-125204537D01*
X171125078Y-125197460D01*
X170926334Y-124995570D01*
X170872718Y-124954651D01*
X170708127Y-124829039D01*
X170701126Y-124823696D01*
X170693447Y-124819395D01*
X170693443Y-124819393D01*
X170461634Y-124689575D01*
X170453947Y-124685270D01*
X170189730Y-124583052D01*
X170181163Y-124581066D01*
X170181159Y-124581065D01*
X169922329Y-124521071D01*
X169922326Y-124521071D01*
X169913747Y-124519082D01*
X169631503Y-124494637D01*
X169433439Y-124505538D01*
X169357421Y-124509721D01*
X169357418Y-124509721D01*
X169348630Y-124510205D01*
X169340002Y-124511921D01*
X169339996Y-124511922D01*
X169079405Y-124563757D01*
X169079402Y-124563758D01*
X169070774Y-124565474D01*
X169020719Y-124583052D01*
X168811773Y-124656428D01*
X168811769Y-124656430D01*
X168803476Y-124659342D01*
X168795675Y-124663394D01*
X168795671Y-124663396D01*
X168559883Y-124785878D01*
X168559878Y-124785881D01*
X168552072Y-124789936D01*
X168544909Y-124795055D01*
X168544907Y-124795056D01*
X168328740Y-124949531D01*
X168328735Y-124949535D01*
X168321576Y-124954651D01*
X168278682Y-124995570D01*
X168122966Y-125144114D01*
X168122961Y-125144119D01*
X168116588Y-125150199D01*
X168111132Y-125157120D01*
X168111131Y-125157121D01*
X168079331Y-125197460D01*
X167941199Y-125372680D01*
X167798907Y-125617654D01*
X167795604Y-125625810D01*
X167795601Y-125625815D01*
X167752562Y-125732075D01*
X167692552Y-125880232D01*
X167671758Y-125963942D01*
X167632183Y-126123262D01*
X167624255Y-126155177D01*
X167610295Y-126291434D01*
X167602544Y-126367081D01*
X167573977Y-126459941D01*
X167530911Y-126517772D01*
X164572113Y-129476570D01*
X164491331Y-129530546D01*
X164396043Y-129549500D01*
X135655964Y-129549500D01*
X135560676Y-129530546D01*
X135479894Y-129476570D01*
X135425918Y-129395788D01*
X135406964Y-129300500D01*
X135425918Y-129205212D01*
X135432730Y-129190195D01*
X135499911Y-129054264D01*
X135517788Y-128995426D01*
X135568669Y-128827956D01*
X135568669Y-128827954D01*
X135571639Y-128818180D01*
X135574325Y-128797782D01*
X135602981Y-128580114D01*
X135602981Y-128580111D01*
X135603845Y-128573550D01*
X135604020Y-128566414D01*
X135605481Y-128506625D01*
X135605643Y-128500000D01*
X135603657Y-128475837D01*
X135594231Y-128361198D01*
X135585425Y-128254089D01*
X135525316Y-128014783D01*
X135426928Y-127788507D01*
X135292905Y-127581339D01*
X135126846Y-127398842D01*
X134933210Y-127245918D01*
X134915679Y-127236240D01*
X134726143Y-127131611D01*
X134726144Y-127131611D01*
X134717198Y-127126673D01*
X134707572Y-127123264D01*
X134707567Y-127123262D01*
X134494240Y-127047719D01*
X134494238Y-127047718D01*
X134484610Y-127044309D01*
X134241694Y-127001039D01*
X134231474Y-127000914D01*
X134231472Y-127000914D01*
X134091179Y-126999200D01*
X133994972Y-126998025D01*
X133805826Y-127026968D01*
X133761166Y-127033802D01*
X133761165Y-127033802D01*
X133751070Y-127035347D01*
X133741359Y-127038521D01*
X133526250Y-127108829D01*
X133526247Y-127108830D01*
X133516540Y-127112003D01*
X133357373Y-127194860D01*
X133329829Y-127209199D01*
X133297679Y-127225935D01*
X133100364Y-127374083D01*
X133093312Y-127381463D01*
X133093307Y-127381467D01*
X132990379Y-127489176D01*
X132929896Y-127552468D01*
X132924134Y-127560915D01*
X132812322Y-127724825D01*
X132790851Y-127756300D01*
X132686965Y-127980104D01*
X132684238Y-127989939D01*
X132684236Y-127989943D01*
X132623757Y-128208022D01*
X132621026Y-128217871D01*
X132614041Y-128283228D01*
X132596043Y-128451640D01*
X132594806Y-128463214D01*
X132609010Y-128709545D01*
X132611257Y-128719514D01*
X132611257Y-128719517D01*
X132656551Y-128920500D01*
X132663255Y-128950249D01*
X132756084Y-129178861D01*
X132761428Y-129187581D01*
X132761755Y-129188229D01*
X132787801Y-129281828D01*
X132776046Y-129378269D01*
X132728279Y-129462870D01*
X132651773Y-129522753D01*
X132558174Y-129548799D01*
X132539502Y-129549500D01*
X130440230Y-129549500D01*
X130344942Y-129530546D01*
X130264160Y-129476570D01*
X130210184Y-129395788D01*
X130191230Y-129300500D01*
X130210184Y-129205212D01*
X130226512Y-129175451D01*
X130225417Y-129174819D01*
X130241680Y-129146651D01*
X130329221Y-128958919D01*
X130336625Y-128938576D01*
X130390237Y-128738493D01*
X130393996Y-128717176D01*
X130412049Y-128510824D01*
X130412049Y-128489176D01*
X130394031Y-128283228D01*
X130389947Y-128274947D01*
X130381592Y-128279068D01*
X129276070Y-129384590D01*
X129195288Y-129438566D01*
X129100000Y-129457520D01*
X129004712Y-129438566D01*
X128923930Y-129384590D01*
X127825220Y-128285880D01*
X127806013Y-128273047D01*
X127767684Y-128265422D01*
X127750931Y-128265423D01*
X127661170Y-128228247D01*
X127592469Y-128159550D01*
X127555286Y-128069792D01*
X127550500Y-128021206D01*
X127550500Y-127210053D01*
X128874947Y-127210053D01*
X128879068Y-127218408D01*
X129082659Y-127421999D01*
X129100000Y-127433586D01*
X129117341Y-127421999D01*
X129314120Y-127225220D01*
X129324825Y-127209199D01*
X129321072Y-127206692D01*
X129317170Y-127206004D01*
X129110824Y-127187951D01*
X129089176Y-127187951D01*
X128883228Y-127205969D01*
X128874947Y-127210053D01*
X127550500Y-127210053D01*
X127550500Y-118800725D01*
X128890500Y-118800725D01*
X128890501Y-119741071D01*
X128890501Y-120684992D01*
X128897171Y-120757594D01*
X128947873Y-120919383D01*
X129035703Y-121064408D01*
X129155592Y-121184297D01*
X129300617Y-121272127D01*
X129462406Y-121322829D01*
X129475561Y-121324038D01*
X129475562Y-121324038D01*
X129491963Y-121325545D01*
X129535007Y-121329500D01*
X129540725Y-121329500D01*
X130481075Y-121329499D01*
X131424992Y-121329499D01*
X131450921Y-121327117D01*
X131484439Y-121324038D01*
X131484443Y-121324037D01*
X131497594Y-121322829D01*
X131510197Y-121318879D01*
X131510199Y-121318879D01*
X131642413Y-121277445D01*
X131659383Y-121272127D01*
X131804408Y-121184297D01*
X131924297Y-121064408D01*
X131952345Y-121018095D01*
X132017919Y-120946409D01*
X132105935Y-120905273D01*
X132202994Y-120900950D01*
X132290956Y-120932099D01*
X132405479Y-120999020D01*
X132423855Y-121007824D01*
X132619367Y-121082482D01*
X132638928Y-121088165D01*
X132844010Y-121129890D01*
X132864232Y-121132301D01*
X133073377Y-121139971D01*
X133093725Y-121139047D01*
X133301315Y-121112454D01*
X133307733Y-121111090D01*
X133319630Y-121104776D01*
X133314560Y-121095221D01*
X132142430Y-119923090D01*
X132088454Y-119842308D01*
X132069500Y-119747038D01*
X132069499Y-119740000D01*
X133965585Y-119740000D01*
X133985215Y-119989421D01*
X133987499Y-119998936D01*
X133987500Y-119998940D01*
X134019361Y-120131649D01*
X134043621Y-120232701D01*
X134047363Y-120241735D01*
X134047364Y-120241738D01*
X134083203Y-120328259D01*
X134139366Y-120463849D01*
X134270091Y-120677174D01*
X134432578Y-120867422D01*
X134622826Y-121029909D01*
X134658177Y-121051572D01*
X134744999Y-121104776D01*
X134836151Y-121160634D01*
X134845186Y-121164376D01*
X134845189Y-121164378D01*
X135058262Y-121252636D01*
X135058265Y-121252637D01*
X135067299Y-121256379D01*
X135076806Y-121258662D01*
X135076811Y-121258663D01*
X135301060Y-121312500D01*
X135301064Y-121312501D01*
X135310579Y-121314785D01*
X135560000Y-121334415D01*
X135809421Y-121314785D01*
X135818936Y-121312501D01*
X135818940Y-121312500D01*
X136043189Y-121258663D01*
X136043194Y-121258662D01*
X136052701Y-121256379D01*
X136061735Y-121252637D01*
X136061738Y-121252636D01*
X136274811Y-121164378D01*
X136274814Y-121164376D01*
X136283849Y-121160634D01*
X136375002Y-121104776D01*
X136461823Y-121051572D01*
X136497174Y-121029909D01*
X136668288Y-120883764D01*
X136753055Y-120836292D01*
X136849536Y-120824873D01*
X136943044Y-120851244D01*
X136991712Y-120883764D01*
X137162826Y-121029909D01*
X137198177Y-121051572D01*
X137284999Y-121104776D01*
X137376151Y-121160634D01*
X137385186Y-121164376D01*
X137385189Y-121164378D01*
X137598262Y-121252636D01*
X137598265Y-121252637D01*
X137607299Y-121256379D01*
X137616806Y-121258662D01*
X137616811Y-121258663D01*
X137841060Y-121312500D01*
X137841064Y-121312501D01*
X137850579Y-121314785D01*
X138100000Y-121334415D01*
X138349421Y-121314785D01*
X138358936Y-121312501D01*
X138358940Y-121312500D01*
X138583189Y-121258663D01*
X138583194Y-121258662D01*
X138592701Y-121256379D01*
X138601735Y-121252637D01*
X138601738Y-121252636D01*
X138814811Y-121164378D01*
X138814814Y-121164376D01*
X138823849Y-121160634D01*
X138915002Y-121104776D01*
X139001823Y-121051572D01*
X139037174Y-121029909D01*
X139208288Y-120883764D01*
X139293055Y-120836292D01*
X139389536Y-120824873D01*
X139483044Y-120851244D01*
X139531712Y-120883764D01*
X139702826Y-121029909D01*
X139738177Y-121051572D01*
X139824999Y-121104776D01*
X139916151Y-121160634D01*
X139925186Y-121164376D01*
X139925189Y-121164378D01*
X140138262Y-121252636D01*
X140138265Y-121252637D01*
X140147299Y-121256379D01*
X140156806Y-121258662D01*
X140156811Y-121258663D01*
X140381060Y-121312500D01*
X140381064Y-121312501D01*
X140390579Y-121314785D01*
X140422023Y-121317260D01*
X140457728Y-121320070D01*
X140551235Y-121346442D01*
X140627532Y-121406591D01*
X140675004Y-121491358D01*
X140686422Y-121587840D01*
X140660050Y-121681347D01*
X140605772Y-121752468D01*
X140561050Y-121793162D01*
X140549830Y-121802778D01*
X140529506Y-121819177D01*
X140503815Y-121844868D01*
X140495326Y-121852966D01*
X140435536Y-121907371D01*
X140429213Y-121915378D01*
X140429205Y-121915386D01*
X140422874Y-121923403D01*
X140403534Y-121945149D01*
X139409277Y-122939406D01*
X139398526Y-122949537D01*
X139391854Y-122955461D01*
X139383675Y-122961602D01*
X139313070Y-123035485D01*
X139312307Y-123036284D01*
X139308359Y-123040324D01*
X139281588Y-123067095D01*
X139278288Y-123070986D01*
X139278278Y-123070997D01*
X139276310Y-123073317D01*
X139266428Y-123084292D01*
X139225954Y-123126646D01*
X139225950Y-123126651D01*
X139218887Y-123134042D01*
X139201870Y-123158988D01*
X139186080Y-123179715D01*
X139166556Y-123202737D01*
X139131204Y-123261805D01*
X139123265Y-123274218D01*
X139090231Y-123322643D01*
X139090228Y-123322649D01*
X139084475Y-123331082D01*
X139080173Y-123340349D01*
X139080171Y-123340353D01*
X139071766Y-123358459D01*
X139059574Y-123381487D01*
X139049311Y-123398635D01*
X139049308Y-123398641D01*
X139044066Y-123407400D01*
X139040324Y-123416900D01*
X139040322Y-123416904D01*
X139018841Y-123471437D01*
X139013021Y-123485015D01*
X138988358Y-123538148D01*
X138988355Y-123538155D01*
X138984051Y-123547428D01*
X138975986Y-123576511D01*
X138967716Y-123601226D01*
X138960395Y-123619812D01*
X138956649Y-123629322D01*
X138954508Y-123639308D01*
X138954507Y-123639312D01*
X138942224Y-123696609D01*
X138938700Y-123710956D01*
X138920309Y-123777272D01*
X138919224Y-123787427D01*
X138917101Y-123807288D01*
X138912979Y-123833020D01*
X138908791Y-123852554D01*
X138908789Y-123852568D01*
X138906651Y-123862542D01*
X138906170Y-123872735D01*
X138906170Y-123872738D01*
X138903410Y-123931279D01*
X138902276Y-123946013D01*
X138899500Y-123971986D01*
X138899500Y-124008312D01*
X138899224Y-124020041D01*
X138895416Y-124100795D01*
X138896606Y-124110928D01*
X138896607Y-124110946D01*
X138897799Y-124121089D01*
X138899500Y-124150140D01*
X138899500Y-126291910D01*
X138880546Y-126387198D01*
X138863373Y-126421085D01*
X138844319Y-126452484D01*
X138844316Y-126452490D01*
X138839530Y-126460377D01*
X138835961Y-126468888D01*
X138835959Y-126468892D01*
X138785209Y-126589917D01*
X138742364Y-126692092D01*
X138680515Y-126935625D01*
X138679589Y-126944816D01*
X138679589Y-126944819D01*
X138656824Y-127170899D01*
X138655341Y-127185624D01*
X138659642Y-127275175D01*
X138666758Y-127423306D01*
X138667396Y-127436598D01*
X138716415Y-127683033D01*
X138719536Y-127691725D01*
X138719536Y-127691726D01*
X138794891Y-127901606D01*
X138801321Y-127919516D01*
X138869639Y-128046662D01*
X138890101Y-128084743D01*
X138920249Y-128140852D01*
X138925777Y-128148254D01*
X138925777Y-128148255D01*
X139065055Y-128334772D01*
X139065060Y-128334778D01*
X139070586Y-128342178D01*
X139249030Y-128519071D01*
X139451660Y-128667645D01*
X139577202Y-128733696D01*
X139656273Y-128775297D01*
X139674025Y-128784637D01*
X139682752Y-128787685D01*
X139682753Y-128787685D01*
X139691676Y-128790801D01*
X139911240Y-128867476D01*
X139920314Y-128869199D01*
X139920315Y-128869199D01*
X140149021Y-128912621D01*
X140149026Y-128912622D01*
X140158093Y-128914343D01*
X140167313Y-128914705D01*
X140167320Y-128914706D01*
X140288474Y-128919465D01*
X140409163Y-128924207D01*
X140418338Y-128923202D01*
X140418343Y-128923202D01*
X140649748Y-128897859D01*
X140649749Y-128897859D01*
X140658933Y-128896853D01*
X140667869Y-128894500D01*
X140667871Y-128894500D01*
X140892973Y-128835236D01*
X140892979Y-128835234D01*
X140901916Y-128832881D01*
X141132775Y-128733696D01*
X141346437Y-128601478D01*
X141538209Y-128439131D01*
X141681278Y-128275993D01*
X141697787Y-128257168D01*
X141697789Y-128257165D01*
X141703879Y-128250221D01*
X141839806Y-128038899D01*
X141847777Y-128021206D01*
X141939209Y-127818233D01*
X141939209Y-127818232D01*
X141943005Y-127809806D01*
X141946371Y-127797873D01*
X141971281Y-127709545D01*
X142011208Y-127567976D01*
X142042917Y-127318722D01*
X142044609Y-127254089D01*
X142045077Y-127236240D01*
X142045077Y-127236232D01*
X142045240Y-127230000D01*
X142044777Y-127223766D01*
X142039456Y-127152161D01*
X142051296Y-127055730D01*
X142099138Y-126971171D01*
X142111701Y-126957639D01*
X142723930Y-126345410D01*
X142804712Y-126291434D01*
X142900000Y-126272480D01*
X142995288Y-126291434D01*
X143076070Y-126345410D01*
X143686570Y-126955910D01*
X143740546Y-127036692D01*
X143759500Y-127131979D01*
X143759501Y-127328018D01*
X143740547Y-127423306D01*
X143686571Y-127504089D01*
X142528368Y-128662292D01*
X142517663Y-128678313D01*
X142523409Y-128682152D01*
X142712007Y-128720522D01*
X142732233Y-128722934D01*
X142957975Y-128731213D01*
X142978323Y-128730289D01*
X143202392Y-128701584D01*
X143222299Y-128697353D01*
X143438665Y-128632440D01*
X143457640Y-128625004D01*
X143583990Y-128563106D01*
X143677900Y-128538206D01*
X143774190Y-128551140D01*
X143858202Y-128599937D01*
X143889483Y-128633075D01*
X143896929Y-128642571D01*
X143904703Y-128655408D01*
X144024592Y-128775297D01*
X144169617Y-128863127D01*
X144331406Y-128913829D01*
X144344561Y-128915038D01*
X144344562Y-128915038D01*
X144360963Y-128916545D01*
X144404007Y-128920500D01*
X144409725Y-128920500D01*
X145451190Y-128920499D01*
X146495992Y-128920499D01*
X146521921Y-128918117D01*
X146555439Y-128915038D01*
X146555443Y-128915037D01*
X146568594Y-128913829D01*
X146581197Y-128909879D01*
X146581199Y-128909879D01*
X146711007Y-128869199D01*
X146730383Y-128863127D01*
X146849808Y-128790801D01*
X151875175Y-128790801D01*
X151878928Y-128793308D01*
X151882830Y-128793996D01*
X152089176Y-128812049D01*
X152110824Y-128812049D01*
X152316772Y-128794031D01*
X152325053Y-128789947D01*
X152320932Y-128781592D01*
X152117341Y-128578001D01*
X152100000Y-128566414D01*
X152082659Y-128578001D01*
X151885880Y-128774780D01*
X151875175Y-128790801D01*
X146849808Y-128790801D01*
X146875408Y-128775297D01*
X146995297Y-128655408D01*
X147083127Y-128510383D01*
X147133829Y-128348594D01*
X147140500Y-128275993D01*
X147140500Y-127510824D01*
X150787951Y-127510824D01*
X150805969Y-127716772D01*
X150810053Y-127725053D01*
X150818408Y-127720932D01*
X151021999Y-127517341D01*
X151033586Y-127500000D01*
X153166414Y-127500000D01*
X153178001Y-127517341D01*
X153374780Y-127714120D01*
X153390801Y-127724825D01*
X153393308Y-127721072D01*
X153393996Y-127717170D01*
X153412049Y-127510824D01*
X153412049Y-127489176D01*
X153409778Y-127463214D01*
X160594806Y-127463214D01*
X160609010Y-127709545D01*
X160611257Y-127719514D01*
X160611257Y-127719517D01*
X160652293Y-127901606D01*
X160663255Y-127950249D01*
X160756084Y-128178861D01*
X160761421Y-128187571D01*
X160761422Y-128187572D01*
X160796111Y-128244178D01*
X160885006Y-128389241D01*
X161046557Y-128575741D01*
X161157256Y-128667645D01*
X161223852Y-128722934D01*
X161236399Y-128733351D01*
X161449433Y-128857838D01*
X161679939Y-128945859D01*
X161689950Y-128947896D01*
X161689954Y-128947897D01*
X161911713Y-128993015D01*
X161911715Y-128993015D01*
X161921726Y-128995052D01*
X162024353Y-128998815D01*
X162158087Y-129003719D01*
X162158093Y-129003719D01*
X162168300Y-129004093D01*
X162178431Y-129002795D01*
X162178436Y-129002795D01*
X162313670Y-128985471D01*
X162413041Y-128972741D01*
X162456453Y-128959717D01*
X162502644Y-128945859D01*
X162649374Y-128901838D01*
X162870954Y-128793287D01*
X162949387Y-128737341D01*
X163063512Y-128655937D01*
X163063516Y-128655934D01*
X163071829Y-128650004D01*
X163246605Y-128475837D01*
X163390588Y-128275463D01*
X163499911Y-128054264D01*
X163504580Y-128038899D01*
X163568669Y-127827956D01*
X163568669Y-127827954D01*
X163571639Y-127818180D01*
X163574313Y-127797873D01*
X163602981Y-127580114D01*
X163602981Y-127580111D01*
X163603845Y-127573550D01*
X163604206Y-127558811D01*
X163605481Y-127506625D01*
X163605643Y-127500000D01*
X163600586Y-127438485D01*
X163586262Y-127264271D01*
X163585425Y-127254089D01*
X163525316Y-127014783D01*
X163426928Y-126788507D01*
X163292905Y-126581339D01*
X163126846Y-126398842D01*
X162933210Y-126245918D01*
X162897488Y-126226198D01*
X162726143Y-126131611D01*
X162726144Y-126131611D01*
X162717198Y-126126673D01*
X162707572Y-126123264D01*
X162707567Y-126123262D01*
X162494240Y-126047719D01*
X162494238Y-126047718D01*
X162484610Y-126044309D01*
X162241694Y-126001039D01*
X162231474Y-126000914D01*
X162231472Y-126000914D01*
X162091179Y-125999200D01*
X161994972Y-125998025D01*
X161805826Y-126026968D01*
X161761166Y-126033802D01*
X161761165Y-126033802D01*
X161751070Y-126035347D01*
X161741359Y-126038521D01*
X161526250Y-126108829D01*
X161526247Y-126108830D01*
X161516540Y-126112003D01*
X161367261Y-126189713D01*
X161329829Y-126209199D01*
X161297679Y-126225935D01*
X161100364Y-126374083D01*
X161093312Y-126381463D01*
X161093307Y-126381467D01*
X160963052Y-126517772D01*
X160929896Y-126552468D01*
X160790851Y-126756300D01*
X160686965Y-126980104D01*
X160684238Y-126989939D01*
X160684236Y-126989943D01*
X160624317Y-127206004D01*
X160621026Y-127217871D01*
X160616067Y-127264271D01*
X160597449Y-127438485D01*
X160594806Y-127463214D01*
X153409778Y-127463214D01*
X153394031Y-127283228D01*
X153389947Y-127274947D01*
X153381592Y-127279068D01*
X153178001Y-127482659D01*
X153166414Y-127500000D01*
X151033586Y-127500000D01*
X151021999Y-127482659D01*
X150825220Y-127285880D01*
X150809199Y-127275175D01*
X150806692Y-127278928D01*
X150806004Y-127282830D01*
X150787951Y-127489176D01*
X150787951Y-127510824D01*
X147140500Y-127510824D01*
X147140500Y-127230000D01*
X147140499Y-126210053D01*
X151874947Y-126210053D01*
X151879068Y-126218408D01*
X152082659Y-126421999D01*
X152100000Y-126433586D01*
X152117341Y-126421999D01*
X152314120Y-126225220D01*
X152324825Y-126209199D01*
X152321072Y-126206692D01*
X152317170Y-126206004D01*
X152110824Y-126187951D01*
X152089176Y-126187951D01*
X151883228Y-126205969D01*
X151874947Y-126210053D01*
X147140499Y-126210053D01*
X147140499Y-126189713D01*
X147140499Y-126184008D01*
X147137066Y-126146637D01*
X147135038Y-126124561D01*
X147135037Y-126124557D01*
X147133829Y-126111406D01*
X147083127Y-125949617D01*
X146995297Y-125804592D01*
X146875408Y-125684703D01*
X146730383Y-125596873D01*
X146568594Y-125546171D01*
X146555439Y-125544962D01*
X146555438Y-125544962D01*
X146539037Y-125543455D01*
X146495993Y-125539500D01*
X146490275Y-125539500D01*
X145448810Y-125539501D01*
X144404008Y-125539501D01*
X144378079Y-125541883D01*
X144344561Y-125544962D01*
X144344557Y-125544963D01*
X144331406Y-125546171D01*
X144318803Y-125550121D01*
X144318801Y-125550121D01*
X144254538Y-125570260D01*
X144169617Y-125596873D01*
X144024592Y-125684703D01*
X143904703Y-125804592D01*
X143896927Y-125817432D01*
X143889940Y-125826343D01*
X143816229Y-125889634D01*
X143723909Y-125919900D01*
X143627034Y-125912533D01*
X143573652Y-125890694D01*
X143525113Y-125863898D01*
X143506538Y-125855550D01*
X143293599Y-125780145D01*
X143273907Y-125774943D01*
X143051521Y-125735330D01*
X143031235Y-125733412D01*
X142805373Y-125730653D01*
X142785040Y-125732075D01*
X142561754Y-125766242D01*
X142541940Y-125770962D01*
X142327219Y-125841143D01*
X142308444Y-125849035D01*
X142164476Y-125923981D01*
X142071202Y-125951168D01*
X141974625Y-125940592D01*
X141889446Y-125893861D01*
X141828635Y-125818092D01*
X141801448Y-125724818D01*
X141800500Y-125703116D01*
X141800500Y-124753956D01*
X141819454Y-124658668D01*
X141873430Y-124577887D01*
X142027885Y-124423431D01*
X142108666Y-124369454D01*
X142203955Y-124350500D01*
X148079860Y-124350500D01*
X148094628Y-124350938D01*
X148103560Y-124351469D01*
X148113681Y-124352909D01*
X148217022Y-124350564D01*
X148222672Y-124350500D01*
X148260463Y-124350500D01*
X148268577Y-124349833D01*
X148283328Y-124349060D01*
X148317580Y-124348282D01*
X148341924Y-124347730D01*
X148341927Y-124347730D01*
X148352138Y-124347498D01*
X148381808Y-124341892D01*
X148407626Y-124338401D01*
X148437716Y-124335927D01*
X148447632Y-124333436D01*
X148447634Y-124333436D01*
X148504447Y-124319166D01*
X148518874Y-124315994D01*
X148576464Y-124305112D01*
X148576473Y-124305109D01*
X148586510Y-124303213D01*
X148614865Y-124292837D01*
X148639766Y-124285176D01*
X148669048Y-124277821D01*
X148732165Y-124250377D01*
X148745867Y-124244896D01*
X148810500Y-124221244D01*
X148819391Y-124216214D01*
X148819397Y-124216211D01*
X148836773Y-124206380D01*
X148860095Y-124194751D01*
X148887784Y-124182712D01*
X148945580Y-124145322D01*
X148958186Y-124137687D01*
X149018096Y-124103792D01*
X149026043Y-124097380D01*
X149026050Y-124097375D01*
X149041590Y-124084836D01*
X149062698Y-124069556D01*
X149079463Y-124058710D01*
X149079466Y-124058707D01*
X149088049Y-124053155D01*
X149138949Y-124006839D01*
X149150170Y-123997222D01*
X149165333Y-123984987D01*
X149170494Y-123980823D01*
X149196185Y-123955132D01*
X149204674Y-123947034D01*
X149256915Y-123899498D01*
X149264464Y-123892629D01*
X149270787Y-123884622D01*
X149270795Y-123884614D01*
X149277126Y-123876597D01*
X149296466Y-123854851D01*
X150540723Y-122610594D01*
X150551474Y-122600463D01*
X150558146Y-122594539D01*
X150566325Y-122588398D01*
X150637693Y-122513716D01*
X150641641Y-122509676D01*
X150668412Y-122482905D01*
X150671712Y-122479014D01*
X150671722Y-122479003D01*
X150673690Y-122476683D01*
X150683572Y-122465708D01*
X150724046Y-122423354D01*
X150724050Y-122423349D01*
X150731113Y-122415958D01*
X150748130Y-122391012D01*
X150763920Y-122370285D01*
X150776835Y-122355056D01*
X150783444Y-122347263D01*
X150818796Y-122288195D01*
X150826735Y-122275782D01*
X150859769Y-122227357D01*
X150859772Y-122227351D01*
X150865525Y-122218918D01*
X150869829Y-122209647D01*
X150878234Y-122191541D01*
X150890426Y-122168513D01*
X150900689Y-122151365D01*
X150900692Y-122151359D01*
X150905934Y-122142600D01*
X150909678Y-122133096D01*
X150931159Y-122078563D01*
X150936979Y-122064985D01*
X150961642Y-122011852D01*
X150961645Y-122011845D01*
X150965949Y-122002572D01*
X150974015Y-121973486D01*
X150982284Y-121948774D01*
X150989605Y-121930188D01*
X150989606Y-121930186D01*
X150993351Y-121920678D01*
X150997677Y-121900502D01*
X151007776Y-121853391D01*
X151011300Y-121839043D01*
X151026962Y-121782569D01*
X151026962Y-121782567D01*
X151029691Y-121772728D01*
X151032899Y-121742711D01*
X151037021Y-121716980D01*
X151041209Y-121697446D01*
X151041211Y-121697432D01*
X151043349Y-121687458D01*
X151046590Y-121618720D01*
X151047724Y-121603987D01*
X151049796Y-121584600D01*
X151050500Y-121578014D01*
X151050500Y-121541688D01*
X151050776Y-121529959D01*
X151054103Y-121459403D01*
X151054584Y-121449205D01*
X151053394Y-121439072D01*
X151053393Y-121439054D01*
X151052201Y-121428911D01*
X151050500Y-121399860D01*
X151050500Y-119194475D01*
X157370573Y-119194475D01*
X157390203Y-119443896D01*
X157392487Y-119453411D01*
X157392488Y-119453415D01*
X157401411Y-119490579D01*
X157448609Y-119687176D01*
X157452351Y-119696210D01*
X157452352Y-119696213D01*
X157473405Y-119747038D01*
X157544354Y-119918324D01*
X157549463Y-119926662D01*
X157549464Y-119926663D01*
X157587922Y-119989421D01*
X157675079Y-120131649D01*
X157837566Y-120321897D01*
X158027814Y-120484384D01*
X158241139Y-120615109D01*
X158250174Y-120618851D01*
X158250177Y-120618853D01*
X158463250Y-120707111D01*
X158463253Y-120707112D01*
X158472287Y-120710854D01*
X158481794Y-120713137D01*
X158481799Y-120713138D01*
X158706048Y-120766975D01*
X158706052Y-120766976D01*
X158715567Y-120769260D01*
X158964988Y-120788890D01*
X159214409Y-120769260D01*
X159223924Y-120766976D01*
X159223928Y-120766975D01*
X159448177Y-120713138D01*
X159448182Y-120713137D01*
X159457689Y-120710854D01*
X159466723Y-120707112D01*
X159466726Y-120707111D01*
X159679799Y-120618853D01*
X159679802Y-120618851D01*
X159688837Y-120615109D01*
X159902162Y-120484384D01*
X160073276Y-120338239D01*
X160158043Y-120290767D01*
X160254524Y-120279348D01*
X160348032Y-120305719D01*
X160396700Y-120338239D01*
X160567814Y-120484384D01*
X160781139Y-120615109D01*
X160790174Y-120618851D01*
X160790177Y-120618853D01*
X161003250Y-120707111D01*
X161003253Y-120707112D01*
X161012287Y-120710854D01*
X161021794Y-120713137D01*
X161021799Y-120713138D01*
X161246048Y-120766975D01*
X161246052Y-120766976D01*
X161255567Y-120769260D01*
X161504988Y-120788890D01*
X161754409Y-120769260D01*
X161763924Y-120766976D01*
X161763928Y-120766975D01*
X161988177Y-120713138D01*
X161988182Y-120713137D01*
X161997689Y-120710854D01*
X162006723Y-120707112D01*
X162006726Y-120707111D01*
X162219799Y-120618853D01*
X162219802Y-120618851D01*
X162228837Y-120615109D01*
X162442162Y-120484384D01*
X162613276Y-120338239D01*
X162698043Y-120290767D01*
X162794524Y-120279348D01*
X162888032Y-120305719D01*
X162936700Y-120338239D01*
X163107814Y-120484384D01*
X163321139Y-120615109D01*
X163330174Y-120618851D01*
X163330177Y-120618853D01*
X163543250Y-120707111D01*
X163543253Y-120707112D01*
X163552287Y-120710854D01*
X163561794Y-120713137D01*
X163561799Y-120713138D01*
X163786048Y-120766975D01*
X163786052Y-120766976D01*
X163795567Y-120769260D01*
X164044988Y-120788890D01*
X164294409Y-120769260D01*
X164303924Y-120766976D01*
X164303928Y-120766975D01*
X164528177Y-120713138D01*
X164528182Y-120713137D01*
X164537689Y-120710854D01*
X164546723Y-120707112D01*
X164546726Y-120707111D01*
X164759799Y-120618853D01*
X164759802Y-120618851D01*
X164768837Y-120615109D01*
X164982162Y-120484384D01*
X165153276Y-120338239D01*
X165238043Y-120290767D01*
X165334524Y-120279348D01*
X165428032Y-120305719D01*
X165476700Y-120338239D01*
X165647814Y-120484384D01*
X165861139Y-120615109D01*
X165870174Y-120618851D01*
X165870177Y-120618853D01*
X166083250Y-120707111D01*
X166083253Y-120707112D01*
X166092287Y-120710854D01*
X166101794Y-120713137D01*
X166101799Y-120713138D01*
X166326048Y-120766975D01*
X166326052Y-120766976D01*
X166335567Y-120769260D01*
X166584988Y-120788890D01*
X166834409Y-120769260D01*
X166843924Y-120766976D01*
X166843928Y-120766975D01*
X167068177Y-120713138D01*
X167068182Y-120713137D01*
X167077689Y-120710854D01*
X167086723Y-120707112D01*
X167086726Y-120707111D01*
X167299799Y-120618853D01*
X167299802Y-120618851D01*
X167308837Y-120615109D01*
X167522162Y-120484384D01*
X167693276Y-120338239D01*
X167778043Y-120290767D01*
X167874524Y-120279348D01*
X167968032Y-120305719D01*
X168016700Y-120338239D01*
X168187814Y-120484384D01*
X168401139Y-120615109D01*
X168410174Y-120618851D01*
X168410177Y-120618853D01*
X168623250Y-120707111D01*
X168623253Y-120707112D01*
X168632287Y-120710854D01*
X168641794Y-120713137D01*
X168641799Y-120713138D01*
X168866048Y-120766975D01*
X168866052Y-120766976D01*
X168875567Y-120769260D01*
X169124988Y-120788890D01*
X169374409Y-120769260D01*
X169383924Y-120766976D01*
X169383928Y-120766975D01*
X169608177Y-120713138D01*
X169608182Y-120713137D01*
X169617689Y-120710854D01*
X169626723Y-120707112D01*
X169626726Y-120707111D01*
X169839799Y-120618853D01*
X169839802Y-120618851D01*
X169848837Y-120615109D01*
X170062162Y-120484384D01*
X170233276Y-120338239D01*
X170318043Y-120290767D01*
X170414524Y-120279348D01*
X170508032Y-120305719D01*
X170556700Y-120338239D01*
X170727814Y-120484384D01*
X170941139Y-120615109D01*
X170950174Y-120618851D01*
X170950177Y-120618853D01*
X171163250Y-120707111D01*
X171163253Y-120707112D01*
X171172287Y-120710854D01*
X171181794Y-120713137D01*
X171181799Y-120713138D01*
X171406048Y-120766975D01*
X171406052Y-120766976D01*
X171415567Y-120769260D01*
X171664988Y-120788890D01*
X171914409Y-120769260D01*
X171923924Y-120766976D01*
X171923928Y-120766975D01*
X172148177Y-120713138D01*
X172148182Y-120713137D01*
X172157689Y-120710854D01*
X172166723Y-120707112D01*
X172166726Y-120707111D01*
X172379799Y-120618853D01*
X172379802Y-120618851D01*
X172388837Y-120615109D01*
X172602162Y-120484384D01*
X172792410Y-120321897D01*
X172954897Y-120131649D01*
X173042054Y-119989421D01*
X173080512Y-119926663D01*
X173080513Y-119926662D01*
X173085622Y-119918324D01*
X173156572Y-119747038D01*
X173177624Y-119696213D01*
X173177625Y-119696210D01*
X173181367Y-119687176D01*
X173228566Y-119490579D01*
X173237488Y-119453415D01*
X173237489Y-119453411D01*
X173239773Y-119443896D01*
X173259403Y-119194475D01*
X173239773Y-118945054D01*
X173237488Y-118935535D01*
X173183651Y-118711286D01*
X173183650Y-118711281D01*
X173181367Y-118701774D01*
X173144421Y-118612578D01*
X173089366Y-118479664D01*
X173089364Y-118479661D01*
X173085622Y-118470626D01*
X173078527Y-118459047D01*
X172978430Y-118295703D01*
X172954897Y-118257301D01*
X172792410Y-118067053D01*
X172602162Y-117904566D01*
X172388837Y-117773841D01*
X172379802Y-117770099D01*
X172379799Y-117770097D01*
X172166726Y-117681839D01*
X172166723Y-117681838D01*
X172157689Y-117678096D01*
X172148182Y-117675813D01*
X172148177Y-117675812D01*
X171923928Y-117621975D01*
X171923924Y-117621974D01*
X171914409Y-117619690D01*
X171664988Y-117600060D01*
X171415567Y-117619690D01*
X171406052Y-117621974D01*
X171406048Y-117621975D01*
X171181799Y-117675812D01*
X171181794Y-117675813D01*
X171172287Y-117678096D01*
X171163253Y-117681838D01*
X171163250Y-117681839D01*
X170950177Y-117770097D01*
X170950174Y-117770099D01*
X170941139Y-117773841D01*
X170727814Y-117904566D01*
X170563533Y-118044875D01*
X170556700Y-118050711D01*
X170471933Y-118098183D01*
X170375452Y-118109602D01*
X170281944Y-118083231D01*
X170233276Y-118050711D01*
X170226443Y-118044875D01*
X170062162Y-117904566D01*
X169848837Y-117773841D01*
X169839802Y-117770099D01*
X169839799Y-117770097D01*
X169626726Y-117681839D01*
X169626723Y-117681838D01*
X169617689Y-117678096D01*
X169608182Y-117675813D01*
X169608177Y-117675812D01*
X169383928Y-117621975D01*
X169383924Y-117621974D01*
X169374409Y-117619690D01*
X169124988Y-117600060D01*
X168875567Y-117619690D01*
X168866052Y-117621974D01*
X168866048Y-117621975D01*
X168641799Y-117675812D01*
X168641794Y-117675813D01*
X168632287Y-117678096D01*
X168623253Y-117681838D01*
X168623250Y-117681839D01*
X168410177Y-117770097D01*
X168410174Y-117770099D01*
X168401139Y-117773841D01*
X168187814Y-117904566D01*
X168023533Y-118044875D01*
X168016700Y-118050711D01*
X167931933Y-118098183D01*
X167835452Y-118109602D01*
X167741944Y-118083231D01*
X167693276Y-118050711D01*
X167686443Y-118044875D01*
X167522162Y-117904566D01*
X167308837Y-117773841D01*
X167299802Y-117770099D01*
X167299799Y-117770097D01*
X167086726Y-117681839D01*
X167086723Y-117681838D01*
X167077689Y-117678096D01*
X167068182Y-117675813D01*
X167068177Y-117675812D01*
X166843928Y-117621975D01*
X166843924Y-117621974D01*
X166834409Y-117619690D01*
X166584988Y-117600060D01*
X166335567Y-117619690D01*
X166326052Y-117621974D01*
X166326048Y-117621975D01*
X166101799Y-117675812D01*
X166101794Y-117675813D01*
X166092287Y-117678096D01*
X166083253Y-117681838D01*
X166083250Y-117681839D01*
X165870177Y-117770097D01*
X165870174Y-117770099D01*
X165861139Y-117773841D01*
X165647814Y-117904566D01*
X165483533Y-118044875D01*
X165476700Y-118050711D01*
X165391933Y-118098183D01*
X165295452Y-118109602D01*
X165201944Y-118083231D01*
X165153276Y-118050711D01*
X165146443Y-118044875D01*
X164982162Y-117904566D01*
X164768837Y-117773841D01*
X164759802Y-117770099D01*
X164759799Y-117770097D01*
X164546726Y-117681839D01*
X164546723Y-117681838D01*
X164537689Y-117678096D01*
X164528182Y-117675813D01*
X164528177Y-117675812D01*
X164303928Y-117621975D01*
X164303924Y-117621974D01*
X164294409Y-117619690D01*
X164044988Y-117600060D01*
X163795567Y-117619690D01*
X163786052Y-117621974D01*
X163786048Y-117621975D01*
X163561799Y-117675812D01*
X163561794Y-117675813D01*
X163552287Y-117678096D01*
X163543253Y-117681838D01*
X163543250Y-117681839D01*
X163330177Y-117770097D01*
X163330174Y-117770099D01*
X163321139Y-117773841D01*
X163107814Y-117904566D01*
X162943533Y-118044875D01*
X162936700Y-118050711D01*
X162851933Y-118098183D01*
X162755452Y-118109602D01*
X162661944Y-118083231D01*
X162613276Y-118050711D01*
X162606443Y-118044875D01*
X162442162Y-117904566D01*
X162228837Y-117773841D01*
X162219802Y-117770099D01*
X162219799Y-117770097D01*
X162006726Y-117681839D01*
X162006723Y-117681838D01*
X161997689Y-117678096D01*
X161988182Y-117675813D01*
X161988177Y-117675812D01*
X161763928Y-117621975D01*
X161763924Y-117621974D01*
X161754409Y-117619690D01*
X161504988Y-117600060D01*
X161255567Y-117619690D01*
X161246052Y-117621974D01*
X161246048Y-117621975D01*
X161021799Y-117675812D01*
X161021794Y-117675813D01*
X161012287Y-117678096D01*
X161003253Y-117681838D01*
X161003250Y-117681839D01*
X160790177Y-117770097D01*
X160790174Y-117770099D01*
X160781139Y-117773841D01*
X160567814Y-117904566D01*
X160403533Y-118044875D01*
X160396700Y-118050711D01*
X160311933Y-118098183D01*
X160215452Y-118109602D01*
X160121944Y-118083231D01*
X160073276Y-118050711D01*
X160066443Y-118044875D01*
X159902162Y-117904566D01*
X159688837Y-117773841D01*
X159679802Y-117770099D01*
X159679799Y-117770097D01*
X159466726Y-117681839D01*
X159466723Y-117681838D01*
X159457689Y-117678096D01*
X159448182Y-117675813D01*
X159448177Y-117675812D01*
X159223928Y-117621975D01*
X159223924Y-117621974D01*
X159214409Y-117619690D01*
X158964988Y-117600060D01*
X158715567Y-117619690D01*
X158706052Y-117621974D01*
X158706048Y-117621975D01*
X158481799Y-117675812D01*
X158481794Y-117675813D01*
X158472287Y-117678096D01*
X158463253Y-117681838D01*
X158463250Y-117681839D01*
X158250177Y-117770097D01*
X158250174Y-117770099D01*
X158241139Y-117773841D01*
X158027814Y-117904566D01*
X157837566Y-118067053D01*
X157675079Y-118257301D01*
X157651546Y-118295703D01*
X157551450Y-118459047D01*
X157544354Y-118470626D01*
X157540612Y-118479661D01*
X157540610Y-118479664D01*
X157485555Y-118612578D01*
X157448609Y-118701774D01*
X157446326Y-118711281D01*
X157446325Y-118711286D01*
X157392488Y-118935535D01*
X157390203Y-118945054D01*
X157370573Y-119194475D01*
X151050500Y-119194475D01*
X151050500Y-106903957D01*
X151069454Y-106808669D01*
X151123430Y-106727887D01*
X152227887Y-105623430D01*
X152308669Y-105569454D01*
X152403957Y-105550500D01*
X157262878Y-105550500D01*
X157358166Y-105569454D01*
X157438948Y-105623430D01*
X157492924Y-105704212D01*
X157511878Y-105799500D01*
X157492924Y-105894788D01*
X157448609Y-106001774D01*
X157446326Y-106011281D01*
X157446325Y-106011286D01*
X157409617Y-106164188D01*
X157390203Y-106245054D01*
X157370573Y-106494475D01*
X157390203Y-106743896D01*
X157392487Y-106753411D01*
X157392488Y-106753415D01*
X157405754Y-106808669D01*
X157448609Y-106987176D01*
X157544354Y-107218324D01*
X157675079Y-107431649D01*
X157837566Y-107621897D01*
X158027814Y-107784384D01*
X158036153Y-107789494D01*
X158149987Y-107859251D01*
X158241139Y-107915109D01*
X158250174Y-107918851D01*
X158250177Y-107918853D01*
X158463250Y-108007111D01*
X158463253Y-108007112D01*
X158472287Y-108010854D01*
X158481794Y-108013137D01*
X158481799Y-108013138D01*
X158706048Y-108066975D01*
X158706052Y-108066976D01*
X158715567Y-108069260D01*
X158964988Y-108088890D01*
X159214409Y-108069260D01*
X159223924Y-108066976D01*
X159223928Y-108066975D01*
X159448177Y-108013138D01*
X159448182Y-108013137D01*
X159457689Y-108010854D01*
X159466723Y-108007112D01*
X159466726Y-108007111D01*
X159679799Y-107918853D01*
X159679802Y-107918851D01*
X159688837Y-107915109D01*
X159779990Y-107859251D01*
X159893823Y-107789494D01*
X159902162Y-107784384D01*
X160073276Y-107638239D01*
X160158043Y-107590767D01*
X160254524Y-107579348D01*
X160348032Y-107605719D01*
X160396700Y-107638239D01*
X160567814Y-107784384D01*
X160576153Y-107789494D01*
X160689987Y-107859251D01*
X160781139Y-107915109D01*
X160790174Y-107918851D01*
X160790177Y-107918853D01*
X161003250Y-108007111D01*
X161003253Y-108007112D01*
X161012287Y-108010854D01*
X161021794Y-108013137D01*
X161021799Y-108013138D01*
X161246048Y-108066975D01*
X161246052Y-108066976D01*
X161255567Y-108069260D01*
X161504988Y-108088890D01*
X161754409Y-108069260D01*
X161763924Y-108066976D01*
X161763928Y-108066975D01*
X161988177Y-108013138D01*
X161988182Y-108013137D01*
X161997689Y-108010854D01*
X162006723Y-108007112D01*
X162006726Y-108007111D01*
X162219799Y-107918853D01*
X162219802Y-107918851D01*
X162228837Y-107915109D01*
X162319990Y-107859251D01*
X162433823Y-107789494D01*
X162442162Y-107784384D01*
X162613276Y-107638239D01*
X162698043Y-107590767D01*
X162794524Y-107579348D01*
X162888032Y-107605719D01*
X162936700Y-107638239D01*
X163107814Y-107784384D01*
X163116153Y-107789494D01*
X163229987Y-107859251D01*
X163321139Y-107915109D01*
X163330174Y-107918851D01*
X163330177Y-107918853D01*
X163543250Y-108007111D01*
X163543253Y-108007112D01*
X163552287Y-108010854D01*
X163561794Y-108013137D01*
X163561799Y-108013138D01*
X163786048Y-108066975D01*
X163786052Y-108066976D01*
X163795567Y-108069260D01*
X164044988Y-108088890D01*
X164294409Y-108069260D01*
X164303924Y-108066976D01*
X164303928Y-108066975D01*
X164528177Y-108013138D01*
X164528182Y-108013137D01*
X164537689Y-108010854D01*
X164546723Y-108007112D01*
X164546726Y-108007111D01*
X164759799Y-107918853D01*
X164759802Y-107918851D01*
X164768837Y-107915109D01*
X164859990Y-107859251D01*
X164863436Y-107857139D01*
X166288301Y-107857139D01*
X166294047Y-107860978D01*
X166408995Y-107884364D01*
X166429222Y-107886776D01*
X166638365Y-107894446D01*
X166658713Y-107893522D01*
X166866303Y-107866929D01*
X166872721Y-107865565D01*
X166884618Y-107859251D01*
X166879548Y-107849696D01*
X166602329Y-107572477D01*
X166584988Y-107560890D01*
X166567647Y-107572477D01*
X166299006Y-107841118D01*
X166288301Y-107857139D01*
X164863436Y-107857139D01*
X164973823Y-107789494D01*
X164982162Y-107784384D01*
X165172410Y-107621897D01*
X165334897Y-107431649D01*
X165465622Y-107218324D01*
X165561367Y-106987176D01*
X165604223Y-106808669D01*
X165617488Y-106753415D01*
X165617489Y-106753411D01*
X165619773Y-106743896D01*
X165639403Y-106494475D01*
X165638635Y-106484717D01*
X165638635Y-106483306D01*
X165657589Y-106388018D01*
X165711566Y-106307236D01*
X166395373Y-105623430D01*
X166476154Y-105569454D01*
X166571442Y-105550500D01*
X166598534Y-105550500D01*
X166693822Y-105569454D01*
X166774603Y-105623430D01*
X167458410Y-106307236D01*
X167512387Y-106388018D01*
X167531341Y-106483306D01*
X167531341Y-106484717D01*
X167530573Y-106494475D01*
X167550203Y-106743896D01*
X167552487Y-106753411D01*
X167552488Y-106753415D01*
X167565754Y-106808669D01*
X167608609Y-106987176D01*
X167704354Y-107218324D01*
X167835079Y-107431649D01*
X167997566Y-107621897D01*
X168187814Y-107784384D01*
X168196153Y-107789494D01*
X168309987Y-107859251D01*
X168401139Y-107915109D01*
X168410174Y-107918851D01*
X168410177Y-107918853D01*
X168623250Y-108007111D01*
X168623253Y-108007112D01*
X168632287Y-108010854D01*
X168641794Y-108013137D01*
X168641799Y-108013138D01*
X168866048Y-108066975D01*
X168866052Y-108066976D01*
X168875567Y-108069260D01*
X169124988Y-108088890D01*
X169374409Y-108069260D01*
X169383924Y-108066976D01*
X169383928Y-108066975D01*
X169608177Y-108013138D01*
X169608182Y-108013137D01*
X169617689Y-108010854D01*
X169626723Y-108007112D01*
X169626726Y-108007111D01*
X169839799Y-107918853D01*
X169839802Y-107918851D01*
X169848837Y-107915109D01*
X169939990Y-107859251D01*
X170053823Y-107789494D01*
X170062162Y-107784384D01*
X170233276Y-107638239D01*
X170318043Y-107590767D01*
X170414524Y-107579348D01*
X170508032Y-107605719D01*
X170556700Y-107638239D01*
X170727814Y-107784384D01*
X170736153Y-107789494D01*
X170849987Y-107859251D01*
X170941139Y-107915109D01*
X170950174Y-107918851D01*
X170950177Y-107918853D01*
X171163250Y-108007111D01*
X171163253Y-108007112D01*
X171172287Y-108010854D01*
X171181794Y-108013137D01*
X171181799Y-108013138D01*
X171406048Y-108066975D01*
X171406052Y-108066976D01*
X171415567Y-108069260D01*
X171664988Y-108088890D01*
X171914409Y-108069260D01*
X171923924Y-108066976D01*
X171923928Y-108066975D01*
X172148177Y-108013138D01*
X172148182Y-108013137D01*
X172157689Y-108010854D01*
X172166723Y-108007112D01*
X172166726Y-108007111D01*
X172379799Y-107918853D01*
X172379802Y-107918851D01*
X172388837Y-107915109D01*
X172479990Y-107859251D01*
X172593823Y-107789494D01*
X172602162Y-107784384D01*
X172792410Y-107621897D01*
X172954897Y-107431649D01*
X173085622Y-107218324D01*
X173181367Y-106987176D01*
X173224223Y-106808669D01*
X173237488Y-106753415D01*
X173237489Y-106753411D01*
X173239773Y-106743896D01*
X173259403Y-106494475D01*
X173239773Y-106245054D01*
X173220359Y-106164188D01*
X173183651Y-106011286D01*
X173183650Y-106011281D01*
X173181367Y-106001774D01*
X173102704Y-105811866D01*
X173083751Y-105716582D01*
X173102705Y-105621294D01*
X173156681Y-105540512D01*
X173237462Y-105486535D01*
X173252505Y-105480866D01*
X173254136Y-105480311D01*
X173264048Y-105477821D01*
X173327165Y-105450377D01*
X173340867Y-105444896D01*
X173405500Y-105421244D01*
X173414391Y-105416214D01*
X173414397Y-105416211D01*
X173431773Y-105406380D01*
X173455095Y-105394751D01*
X173482784Y-105382712D01*
X173540580Y-105345322D01*
X173553186Y-105337687D01*
X173613096Y-105303792D01*
X173621043Y-105297380D01*
X173621050Y-105297375D01*
X173636590Y-105284836D01*
X173657698Y-105269556D01*
X173674463Y-105258710D01*
X173674466Y-105258707D01*
X173683049Y-105253155D01*
X173733949Y-105206839D01*
X173745170Y-105197222D01*
X173760333Y-105184987D01*
X173765494Y-105180823D01*
X173791185Y-105155132D01*
X173799674Y-105147034D01*
X173851915Y-105099498D01*
X173859464Y-105092629D01*
X173865787Y-105084622D01*
X173865795Y-105084614D01*
X173872126Y-105076597D01*
X173891466Y-105054851D01*
X177694436Y-101251880D01*
X177740716Y-101215853D01*
X177745954Y-101213287D01*
X177754268Y-101207357D01*
X177938512Y-101075937D01*
X177938516Y-101075934D01*
X177946829Y-101070004D01*
X178121605Y-100895837D01*
X178265588Y-100695463D01*
X178374911Y-100474264D01*
X178378269Y-100463214D01*
X178443669Y-100247956D01*
X178443669Y-100247954D01*
X178446639Y-100238180D01*
X178447975Y-100228036D01*
X178477981Y-100000114D01*
X178477981Y-100000111D01*
X178478845Y-99993550D01*
X178480643Y-99920000D01*
X178460425Y-99674089D01*
X178400316Y-99434783D01*
X178301928Y-99208507D01*
X178167905Y-99001339D01*
X178001846Y-98818842D01*
X177808210Y-98665918D01*
X177784770Y-98652978D01*
X177601143Y-98551611D01*
X177601144Y-98551611D01*
X177592198Y-98546673D01*
X177582572Y-98543264D01*
X177582567Y-98543262D01*
X177369240Y-98467719D01*
X177369238Y-98467718D01*
X177359610Y-98464309D01*
X177116694Y-98421039D01*
X177106474Y-98420914D01*
X177106472Y-98420914D01*
X176966179Y-98419200D01*
X176869972Y-98418025D01*
X176680826Y-98446968D01*
X176636166Y-98453802D01*
X176636165Y-98453802D01*
X176626070Y-98455347D01*
X176616359Y-98458521D01*
X176401250Y-98528829D01*
X176401247Y-98528830D01*
X176391540Y-98532003D01*
X176172679Y-98645935D01*
X175975364Y-98794083D01*
X175968312Y-98801463D01*
X175968307Y-98801467D01*
X175877620Y-98896366D01*
X175804896Y-98972468D01*
X175785406Y-99001039D01*
X175675706Y-99161853D01*
X175646078Y-99197605D01*
X172267113Y-102576570D01*
X172186331Y-102630546D01*
X172091043Y-102649500D01*
X151820122Y-102649500D01*
X151805354Y-102649062D01*
X151796439Y-102648532D01*
X151786318Y-102647092D01*
X151690114Y-102649275D01*
X151683020Y-102649436D01*
X151677371Y-102649500D01*
X151639537Y-102649500D01*
X151634105Y-102649946D01*
X151631392Y-102650169D01*
X151616661Y-102650941D01*
X151558074Y-102652271D01*
X151558072Y-102652271D01*
X151547862Y-102652503D01*
X151537830Y-102654398D01*
X151537816Y-102654400D01*
X151518197Y-102658107D01*
X151492375Y-102661598D01*
X151472478Y-102663234D01*
X151472467Y-102663236D01*
X151462284Y-102664073D01*
X151395538Y-102680838D01*
X151381126Y-102684006D01*
X151323536Y-102694888D01*
X151323527Y-102694891D01*
X151313490Y-102696787D01*
X151285135Y-102707163D01*
X151260235Y-102714824D01*
X151230952Y-102722179D01*
X151167835Y-102749623D01*
X151154133Y-102755104D01*
X151089500Y-102778756D01*
X151063222Y-102793623D01*
X151039902Y-102805250D01*
X151012216Y-102817288D01*
X150954412Y-102854684D01*
X150941803Y-102862319D01*
X150881903Y-102896208D01*
X150873944Y-102902631D01*
X150873943Y-102902631D01*
X150858416Y-102915160D01*
X150837298Y-102930447D01*
X150820529Y-102941295D01*
X150820523Y-102941300D01*
X150811951Y-102946845D01*
X150804401Y-102953715D01*
X150804392Y-102953722D01*
X150761036Y-102993173D01*
X150749823Y-103002784D01*
X150729506Y-103019178D01*
X150703826Y-103044858D01*
X150695337Y-103052956D01*
X150635536Y-103107371D01*
X150622875Y-103123403D01*
X150603535Y-103145149D01*
X148659277Y-105089406D01*
X148648526Y-105099537D01*
X148641854Y-105105461D01*
X148633675Y-105111602D01*
X148596041Y-105150984D01*
X148562307Y-105186284D01*
X148558359Y-105190324D01*
X148531588Y-105217095D01*
X148528288Y-105220986D01*
X148528278Y-105220997D01*
X148526310Y-105223317D01*
X148516428Y-105234292D01*
X148475954Y-105276646D01*
X148475950Y-105276651D01*
X148468887Y-105284042D01*
X148451870Y-105308988D01*
X148436080Y-105329715D01*
X148416556Y-105352737D01*
X148381204Y-105411805D01*
X148373265Y-105424218D01*
X148340231Y-105472643D01*
X148340228Y-105472649D01*
X148334475Y-105481082D01*
X148330173Y-105490349D01*
X148330171Y-105490353D01*
X148321766Y-105508459D01*
X148309574Y-105531487D01*
X148299311Y-105548635D01*
X148299308Y-105548641D01*
X148294066Y-105557400D01*
X148290324Y-105566900D01*
X148290322Y-105566904D01*
X148268841Y-105621437D01*
X148263021Y-105635015D01*
X148238358Y-105688148D01*
X148238355Y-105688155D01*
X148234051Y-105697428D01*
X148225986Y-105726511D01*
X148217716Y-105751226D01*
X148210395Y-105769812D01*
X148206649Y-105779322D01*
X148204508Y-105789308D01*
X148204507Y-105789312D01*
X148192224Y-105846609D01*
X148188700Y-105860956D01*
X148170309Y-105927272D01*
X148169224Y-105937427D01*
X148167101Y-105957288D01*
X148162979Y-105983020D01*
X148158791Y-106002554D01*
X148158789Y-106002568D01*
X148156651Y-106012542D01*
X148156170Y-106022735D01*
X148156170Y-106022738D01*
X148153410Y-106081279D01*
X148152276Y-106096013D01*
X148149500Y-106121986D01*
X148149500Y-106158312D01*
X148149224Y-106170041D01*
X148145416Y-106250795D01*
X148146606Y-106260928D01*
X148146607Y-106260946D01*
X148147799Y-106271089D01*
X148149500Y-106300140D01*
X148149500Y-120796043D01*
X148130546Y-120891331D01*
X148076570Y-120972113D01*
X147672113Y-121376570D01*
X147591331Y-121430546D01*
X147496043Y-121449500D01*
X146840839Y-121449500D01*
X146745551Y-121430546D01*
X146664769Y-121376570D01*
X146610793Y-121295788D01*
X146591839Y-121200500D01*
X146610793Y-121105212D01*
X146664769Y-121024430D01*
X146679127Y-121011159D01*
X146810235Y-120899183D01*
X146847422Y-120867422D01*
X147009909Y-120677174D01*
X147140634Y-120463849D01*
X147196798Y-120328259D01*
X147232636Y-120241738D01*
X147232637Y-120241735D01*
X147236379Y-120232701D01*
X147260640Y-120131649D01*
X147292500Y-119998940D01*
X147292501Y-119998936D01*
X147294785Y-119989421D01*
X147314415Y-119740000D01*
X147294785Y-119490579D01*
X147285863Y-119453415D01*
X147238663Y-119256811D01*
X147238662Y-119256806D01*
X147236379Y-119247299D01*
X147232636Y-119238262D01*
X147144378Y-119025189D01*
X147144376Y-119025186D01*
X147140634Y-119016151D01*
X147103048Y-118954815D01*
X147015019Y-118811165D01*
X147009909Y-118802826D01*
X146847422Y-118612578D01*
X146657174Y-118450091D01*
X146443849Y-118319366D01*
X146434814Y-118315624D01*
X146434811Y-118315622D01*
X146221738Y-118227364D01*
X146221735Y-118227363D01*
X146212701Y-118223621D01*
X146203194Y-118221338D01*
X146203189Y-118221337D01*
X145978940Y-118167500D01*
X145978936Y-118167499D01*
X145969421Y-118165215D01*
X145720000Y-118145585D01*
X145470579Y-118165215D01*
X145461064Y-118167499D01*
X145461060Y-118167500D01*
X145236811Y-118221337D01*
X145236806Y-118221338D01*
X145227299Y-118223621D01*
X145218265Y-118227363D01*
X145218262Y-118227364D01*
X145005189Y-118315622D01*
X145005186Y-118315624D01*
X144996151Y-118319366D01*
X144782826Y-118450091D01*
X144653417Y-118560617D01*
X144611712Y-118596236D01*
X144526945Y-118643708D01*
X144430464Y-118655127D01*
X144336956Y-118628756D01*
X144288288Y-118596236D01*
X144246583Y-118560617D01*
X144117174Y-118450091D01*
X143903849Y-118319366D01*
X143894814Y-118315624D01*
X143894811Y-118315622D01*
X143681738Y-118227364D01*
X143681735Y-118227363D01*
X143672701Y-118223621D01*
X143663194Y-118221338D01*
X143663189Y-118221337D01*
X143438940Y-118167500D01*
X143438936Y-118167499D01*
X143429421Y-118165215D01*
X143180000Y-118145585D01*
X142930579Y-118165215D01*
X142921064Y-118167499D01*
X142921060Y-118167500D01*
X142696811Y-118221337D01*
X142696806Y-118221338D01*
X142687299Y-118223621D01*
X142678265Y-118227363D01*
X142678262Y-118227364D01*
X142465189Y-118315622D01*
X142465186Y-118315624D01*
X142456151Y-118319366D01*
X142242826Y-118450091D01*
X142113417Y-118560617D01*
X142071712Y-118596236D01*
X141986945Y-118643708D01*
X141890464Y-118655127D01*
X141796956Y-118628756D01*
X141748288Y-118596236D01*
X141706583Y-118560617D01*
X141577174Y-118450091D01*
X141363849Y-118319366D01*
X141354814Y-118315624D01*
X141354811Y-118315622D01*
X141141738Y-118227364D01*
X141141735Y-118227363D01*
X141132701Y-118223621D01*
X141123194Y-118221338D01*
X141123189Y-118221337D01*
X140898940Y-118167500D01*
X140898936Y-118167499D01*
X140889421Y-118165215D01*
X140640000Y-118145585D01*
X140390579Y-118165215D01*
X140381064Y-118167499D01*
X140381060Y-118167500D01*
X140156811Y-118221337D01*
X140156806Y-118221338D01*
X140147299Y-118223621D01*
X140138265Y-118227363D01*
X140138262Y-118227364D01*
X139925189Y-118315622D01*
X139925186Y-118315624D01*
X139916151Y-118319366D01*
X139702826Y-118450091D01*
X139573417Y-118560617D01*
X139531712Y-118596236D01*
X139446945Y-118643708D01*
X139350464Y-118655127D01*
X139256956Y-118628756D01*
X139208288Y-118596236D01*
X139166583Y-118560617D01*
X139037174Y-118450091D01*
X138823849Y-118319366D01*
X138814814Y-118315624D01*
X138814811Y-118315622D01*
X138601738Y-118227364D01*
X138601735Y-118227363D01*
X138592701Y-118223621D01*
X138583194Y-118221338D01*
X138583189Y-118221337D01*
X138358940Y-118167500D01*
X138358936Y-118167499D01*
X138349421Y-118165215D01*
X138100000Y-118145585D01*
X137850579Y-118165215D01*
X137841064Y-118167499D01*
X137841060Y-118167500D01*
X137616811Y-118221337D01*
X137616806Y-118221338D01*
X137607299Y-118223621D01*
X137598265Y-118227363D01*
X137598262Y-118227364D01*
X137385189Y-118315622D01*
X137385186Y-118315624D01*
X137376151Y-118319366D01*
X137162826Y-118450091D01*
X137033417Y-118560617D01*
X136991712Y-118596236D01*
X136906945Y-118643708D01*
X136810464Y-118655127D01*
X136716956Y-118628756D01*
X136668288Y-118596236D01*
X136626583Y-118560617D01*
X136497174Y-118450091D01*
X136283849Y-118319366D01*
X136274814Y-118315624D01*
X136274811Y-118315622D01*
X136061738Y-118227364D01*
X136061735Y-118227363D01*
X136052701Y-118223621D01*
X136043194Y-118221338D01*
X136043189Y-118221337D01*
X135818940Y-118167500D01*
X135818936Y-118167499D01*
X135809421Y-118165215D01*
X135560000Y-118145585D01*
X135310579Y-118165215D01*
X135301064Y-118167499D01*
X135301060Y-118167500D01*
X135076811Y-118221337D01*
X135076806Y-118221338D01*
X135067299Y-118223621D01*
X135058265Y-118227363D01*
X135058262Y-118227364D01*
X134845189Y-118315622D01*
X134845186Y-118315624D01*
X134836151Y-118319366D01*
X134622826Y-118450091D01*
X134432578Y-118612578D01*
X134270091Y-118802826D01*
X134264981Y-118811165D01*
X134176953Y-118954815D01*
X134139366Y-119016151D01*
X134135624Y-119025186D01*
X134135622Y-119025189D01*
X134047364Y-119238262D01*
X134043621Y-119247299D01*
X134041338Y-119256806D01*
X134041337Y-119256811D01*
X133994137Y-119453415D01*
X133985215Y-119490579D01*
X133965585Y-119740000D01*
X132069499Y-119740000D01*
X132069499Y-119732999D01*
X132088446Y-119637709D01*
X132142429Y-119556911D01*
X132683189Y-119016151D01*
X133306874Y-118392465D01*
X133317579Y-118376444D01*
X133312941Y-118373345D01*
X133310933Y-118372758D01*
X133161982Y-118346225D01*
X133141699Y-118344308D01*
X132932443Y-118341752D01*
X132912108Y-118343174D01*
X132705246Y-118374828D01*
X132685419Y-118379551D01*
X132486503Y-118444567D01*
X132467722Y-118452461D01*
X132278575Y-118550925D01*
X132185302Y-118578111D01*
X132088724Y-118567534D01*
X132003546Y-118520804D01*
X131950614Y-118459047D01*
X131949040Y-118456447D01*
X131941845Y-118444567D01*
X131932073Y-118428431D01*
X131932071Y-118428428D01*
X131924297Y-118415592D01*
X131804408Y-118295703D01*
X131659383Y-118207873D01*
X131497594Y-118157171D01*
X131484439Y-118155962D01*
X131484438Y-118155962D01*
X131468037Y-118154455D01*
X131424993Y-118150500D01*
X131419275Y-118150500D01*
X130478925Y-118150501D01*
X129535008Y-118150501D01*
X129509079Y-118152883D01*
X129475561Y-118155962D01*
X129475557Y-118155963D01*
X129462406Y-118157171D01*
X129449803Y-118161121D01*
X129449801Y-118161121D01*
X129429446Y-118167500D01*
X129300617Y-118207873D01*
X129155592Y-118295703D01*
X129035703Y-118415592D01*
X128947873Y-118560617D01*
X128897171Y-118722406D01*
X128890500Y-118795007D01*
X128890500Y-118800725D01*
X127550500Y-118800725D01*
X127550500Y-101693922D01*
X127569454Y-101598634D01*
X127623430Y-101517852D01*
X127704212Y-101463876D01*
X127799500Y-101444922D01*
X127894788Y-101463876D01*
X127975570Y-101517852D01*
X127987708Y-101530893D01*
X128019859Y-101568010D01*
X128019867Y-101568018D01*
X128026557Y-101575741D01*
X128216399Y-101733351D01*
X128429433Y-101857838D01*
X128659939Y-101945859D01*
X128669950Y-101947896D01*
X128669954Y-101947897D01*
X128891713Y-101993015D01*
X128891715Y-101993015D01*
X128901726Y-101995052D01*
X129004353Y-101998815D01*
X129138087Y-102003719D01*
X129138093Y-102003719D01*
X129148300Y-102004093D01*
X129158431Y-102002795D01*
X129158436Y-102002795D01*
X129293670Y-101985471D01*
X129393041Y-101972741D01*
X129629374Y-101901838D01*
X129850954Y-101793287D01*
X129944132Y-101726824D01*
X130043512Y-101655937D01*
X130043516Y-101655934D01*
X130051829Y-101650004D01*
X130226605Y-101475837D01*
X130370588Y-101275463D01*
X130479911Y-101054264D01*
X130495708Y-101002272D01*
X130548669Y-100827956D01*
X130548669Y-100827954D01*
X130551639Y-100818180D01*
X130583845Y-100573550D01*
X130585643Y-100500000D01*
X130582619Y-100463214D01*
X135194806Y-100463214D01*
X135209010Y-100709545D01*
X135211257Y-100719514D01*
X135211257Y-100719517D01*
X135250993Y-100895837D01*
X135263255Y-100950249D01*
X135356084Y-101178861D01*
X135361421Y-101187571D01*
X135361422Y-101187572D01*
X135377180Y-101213287D01*
X135485006Y-101389241D01*
X135646557Y-101575741D01*
X135836399Y-101733351D01*
X136049433Y-101857838D01*
X136279939Y-101945859D01*
X136289950Y-101947896D01*
X136289954Y-101947897D01*
X136511713Y-101993015D01*
X136511715Y-101993015D01*
X136521726Y-101995052D01*
X136624353Y-101998815D01*
X136758087Y-102003719D01*
X136758093Y-102003719D01*
X136768300Y-102004093D01*
X136778431Y-102002795D01*
X136778436Y-102002795D01*
X136913670Y-101985471D01*
X137013041Y-101972741D01*
X137249374Y-101901838D01*
X137470954Y-101793287D01*
X137564132Y-101726824D01*
X137663512Y-101655937D01*
X137663516Y-101655934D01*
X137671829Y-101650004D01*
X137846605Y-101475837D01*
X137990588Y-101275463D01*
X138099911Y-101054264D01*
X138115708Y-101002272D01*
X138168669Y-100827956D01*
X138168669Y-100827954D01*
X138171639Y-100818180D01*
X138203845Y-100573550D01*
X138205643Y-100500000D01*
X138185425Y-100254089D01*
X138125316Y-100014783D01*
X138026928Y-99788507D01*
X137892905Y-99581339D01*
X137726846Y-99398842D01*
X137533210Y-99245918D01*
X137488463Y-99221216D01*
X137326143Y-99131611D01*
X137326144Y-99131611D01*
X137317198Y-99126673D01*
X137307572Y-99123264D01*
X137307567Y-99123262D01*
X137094240Y-99047719D01*
X137094238Y-99047718D01*
X137084610Y-99044309D01*
X136841694Y-99001039D01*
X136831474Y-99000914D01*
X136831472Y-99000914D01*
X136691179Y-98999200D01*
X136594972Y-98998025D01*
X136405826Y-99026968D01*
X136361166Y-99033802D01*
X136361165Y-99033802D01*
X136351070Y-99035347D01*
X136341359Y-99038521D01*
X136126250Y-99108829D01*
X136126247Y-99108830D01*
X136116540Y-99112003D01*
X135897679Y-99225935D01*
X135700364Y-99374083D01*
X135693312Y-99381463D01*
X135693307Y-99381467D01*
X135599519Y-99479611D01*
X135529896Y-99552468D01*
X135524134Y-99560915D01*
X135446932Y-99674089D01*
X135390851Y-99756300D01*
X135286965Y-99980104D01*
X135284238Y-99989939D01*
X135284236Y-99989943D01*
X135223757Y-100208022D01*
X135221026Y-100217871D01*
X135194806Y-100463214D01*
X130582619Y-100463214D01*
X130565425Y-100254089D01*
X130505316Y-100014783D01*
X130406928Y-99788507D01*
X130272905Y-99581339D01*
X130106846Y-99398842D01*
X129913210Y-99245918D01*
X129868463Y-99221216D01*
X129706143Y-99131611D01*
X129706144Y-99131611D01*
X129697198Y-99126673D01*
X129687572Y-99123264D01*
X129687567Y-99123262D01*
X129474240Y-99047719D01*
X129474238Y-99047718D01*
X129464610Y-99044309D01*
X129221694Y-99001039D01*
X129211474Y-99000914D01*
X129211472Y-99000914D01*
X129071179Y-98999200D01*
X128974972Y-98998025D01*
X128785826Y-99026968D01*
X128741166Y-99033802D01*
X128741165Y-99033802D01*
X128731070Y-99035347D01*
X128721359Y-99038521D01*
X128506250Y-99108829D01*
X128506247Y-99108830D01*
X128496540Y-99112003D01*
X128277679Y-99225935D01*
X128080364Y-99374083D01*
X128073307Y-99381467D01*
X128073301Y-99381473D01*
X127979519Y-99479611D01*
X127899984Y-99535407D01*
X127805150Y-99556518D01*
X127709456Y-99539731D01*
X127627471Y-99487601D01*
X127571675Y-99408066D01*
X127550500Y-99307582D01*
X127550500Y-97285582D01*
X127569454Y-97190294D01*
X127623430Y-97109512D01*
X127704212Y-97055536D01*
X127799500Y-97036582D01*
X127894788Y-97055536D01*
X127958548Y-97093999D01*
X128126399Y-97233351D01*
X128339433Y-97357838D01*
X128569939Y-97445859D01*
X128579950Y-97447896D01*
X128579954Y-97447897D01*
X128801713Y-97493015D01*
X128801715Y-97493015D01*
X128811726Y-97495052D01*
X128914353Y-97498815D01*
X129048087Y-97503719D01*
X129048093Y-97503719D01*
X129058300Y-97504093D01*
X129068431Y-97502795D01*
X129068436Y-97502795D01*
X129203670Y-97485471D01*
X129303041Y-97472741D01*
X129539374Y-97401838D01*
X129760954Y-97293287D01*
X129905345Y-97190294D01*
X129953512Y-97155937D01*
X129953516Y-97155934D01*
X129961829Y-97150004D01*
X130136605Y-96975837D01*
X130280588Y-96775463D01*
X130389911Y-96554264D01*
X130420440Y-96453784D01*
X130458669Y-96327956D01*
X130458669Y-96327954D01*
X130461639Y-96318180D01*
X130467652Y-96272511D01*
X130492981Y-96080114D01*
X130492981Y-96080111D01*
X130493845Y-96073550D01*
X130495643Y-96000000D01*
X130492619Y-95963214D01*
X135104806Y-95963214D01*
X135119010Y-96209545D01*
X135121257Y-96219514D01*
X135121257Y-96219517D01*
X135169248Y-96432468D01*
X135173255Y-96450249D01*
X135266084Y-96678861D01*
X135395006Y-96889241D01*
X135556557Y-97075741D01*
X135746399Y-97233351D01*
X135959433Y-97357838D01*
X136189939Y-97445859D01*
X136199950Y-97447896D01*
X136199954Y-97447897D01*
X136421713Y-97493015D01*
X136421715Y-97493015D01*
X136431726Y-97495052D01*
X136534353Y-97498815D01*
X136668087Y-97503719D01*
X136668093Y-97503719D01*
X136678300Y-97504093D01*
X136688431Y-97502795D01*
X136688436Y-97502795D01*
X136823670Y-97485471D01*
X136923041Y-97472741D01*
X137159374Y-97401838D01*
X137380954Y-97293287D01*
X137525345Y-97190294D01*
X137573512Y-97155937D01*
X137573516Y-97155934D01*
X137581829Y-97150004D01*
X137756605Y-96975837D01*
X137900588Y-96775463D01*
X138009911Y-96554264D01*
X138040440Y-96453784D01*
X138078669Y-96327956D01*
X138078669Y-96327954D01*
X138081639Y-96318180D01*
X138087652Y-96272511D01*
X138112981Y-96080114D01*
X138112981Y-96080111D01*
X138113845Y-96073550D01*
X138115643Y-96000000D01*
X138108716Y-95915741D01*
X138096262Y-95764271D01*
X138095425Y-95754089D01*
X138035316Y-95514783D01*
X137936928Y-95288507D01*
X137802905Y-95081339D01*
X137636846Y-94898842D01*
X137443210Y-94745918D01*
X137398463Y-94721216D01*
X137236143Y-94631611D01*
X137236144Y-94631611D01*
X137227198Y-94626673D01*
X137217572Y-94623264D01*
X137217567Y-94623262D01*
X137004240Y-94547719D01*
X137004238Y-94547718D01*
X136994610Y-94544309D01*
X136751694Y-94501039D01*
X136741474Y-94500914D01*
X136741472Y-94500914D01*
X136601179Y-94499200D01*
X136504972Y-94498025D01*
X136315826Y-94526968D01*
X136271166Y-94533802D01*
X136271165Y-94533802D01*
X136261070Y-94535347D01*
X136251359Y-94538521D01*
X136036250Y-94608829D01*
X136036247Y-94608830D01*
X136026540Y-94612003D01*
X135807679Y-94725935D01*
X135610364Y-94874083D01*
X135603312Y-94881463D01*
X135603307Y-94881467D01*
X135452441Y-95039340D01*
X135439896Y-95052468D01*
X135300851Y-95256300D01*
X135196965Y-95480104D01*
X135194238Y-95489939D01*
X135194236Y-95489943D01*
X135159426Y-95615463D01*
X135131026Y-95717871D01*
X135126067Y-95764271D01*
X135108270Y-95930803D01*
X135104806Y-95963214D01*
X130492619Y-95963214D01*
X130488716Y-95915741D01*
X130476262Y-95764271D01*
X130475425Y-95754089D01*
X130415316Y-95514783D01*
X130316928Y-95288507D01*
X130182905Y-95081339D01*
X130016846Y-94898842D01*
X129823210Y-94745918D01*
X129778463Y-94721216D01*
X129616143Y-94631611D01*
X129616144Y-94631611D01*
X129607198Y-94626673D01*
X129597572Y-94623264D01*
X129597567Y-94623262D01*
X129384240Y-94547719D01*
X129384238Y-94547718D01*
X129374610Y-94544309D01*
X129131694Y-94501039D01*
X129121474Y-94500914D01*
X129121472Y-94500914D01*
X128981179Y-94499200D01*
X128884972Y-94498025D01*
X128695826Y-94526968D01*
X128651166Y-94533802D01*
X128651165Y-94533802D01*
X128641070Y-94535347D01*
X128631359Y-94538521D01*
X128416250Y-94608829D01*
X128416247Y-94608830D01*
X128406540Y-94612003D01*
X128187679Y-94725935D01*
X127990364Y-94874083D01*
X127983310Y-94881465D01*
X127979522Y-94885429D01*
X127976297Y-94887692D01*
X127975661Y-94888256D01*
X127975596Y-94888183D01*
X127899986Y-94941225D01*
X127805153Y-94962338D01*
X127709459Y-94945552D01*
X127627473Y-94893424D01*
X127571677Y-94813888D01*
X127550500Y-94713402D01*
X127550500Y-90451429D01*
X129860233Y-90451429D01*
X129860725Y-90456449D01*
X129865432Y-90480223D01*
X129917513Y-90652725D01*
X129926747Y-90675129D01*
X130011343Y-90834231D01*
X130024754Y-90854415D01*
X130138642Y-90994054D01*
X130155721Y-91011253D01*
X130294560Y-91126111D01*
X130314646Y-91139659D01*
X130333427Y-91149813D01*
X130351839Y-91155495D01*
X130355000Y-91145252D01*
X130355000Y-90459527D01*
X130350931Y-90439069D01*
X130330473Y-90435000D01*
X129883149Y-90435000D01*
X129862691Y-90439069D01*
X129860233Y-90451429D01*
X127550500Y-90451429D01*
X127550500Y-90320958D01*
X130924500Y-90320958D01*
X130924992Y-90326467D01*
X130924992Y-90326475D01*
X130934678Y-90435000D01*
X130939111Y-90484673D01*
X130942035Y-90495363D01*
X130942036Y-90495366D01*
X130991214Y-90675129D01*
X130997307Y-90697402D01*
X131002081Y-90707410D01*
X131002081Y-90707411D01*
X131040895Y-90788785D01*
X131092255Y-90896463D01*
X131098723Y-90905464D01*
X131098724Y-90905466D01*
X131105890Y-90915438D01*
X131220952Y-91075564D01*
X131228916Y-91083282D01*
X131228918Y-91083284D01*
X131371364Y-91221324D01*
X131371367Y-91221327D01*
X131379332Y-91229045D01*
X131562387Y-91352053D01*
X131764333Y-91440701D01*
X131978785Y-91492186D01*
X131989854Y-91492824D01*
X131989859Y-91492825D01*
X132187897Y-91504244D01*
X132187899Y-91504244D01*
X132198965Y-91504882D01*
X132342431Y-91487520D01*
X132406908Y-91479718D01*
X132406911Y-91479717D01*
X132417913Y-91478386D01*
X132428517Y-91475124D01*
X132517933Y-91447616D01*
X132628709Y-91413537D01*
X132681158Y-91386466D01*
X132774523Y-91359606D01*
X132871063Y-91370520D01*
X132895443Y-91379733D01*
X133034333Y-91440701D01*
X133248785Y-91492186D01*
X133259854Y-91492824D01*
X133259859Y-91492825D01*
X133457897Y-91504244D01*
X133457899Y-91504244D01*
X133468965Y-91504882D01*
X133687913Y-91478386D01*
X133698513Y-91475125D01*
X133698518Y-91475124D01*
X133765005Y-91454670D01*
X133861654Y-91444767D01*
X133912681Y-91455056D01*
X134036406Y-91493829D01*
X134049561Y-91495038D01*
X134049562Y-91495038D01*
X134065963Y-91496545D01*
X134109007Y-91500500D01*
X134114725Y-91500500D01*
X134700672Y-91500499D01*
X135290992Y-91500499D01*
X135316921Y-91498117D01*
X135350439Y-91495038D01*
X135350443Y-91495037D01*
X135363594Y-91493829D01*
X135376197Y-91489879D01*
X135376199Y-91489879D01*
X135440462Y-91469740D01*
X135525383Y-91443127D01*
X135670408Y-91355297D01*
X135790297Y-91235408D01*
X135878127Y-91090383D01*
X135928829Y-90928594D01*
X135935500Y-90855993D01*
X135935499Y-88944008D01*
X135933117Y-88918079D01*
X135930038Y-88884561D01*
X135930037Y-88884557D01*
X135928829Y-88871406D01*
X135919407Y-88841339D01*
X135882616Y-88723942D01*
X135878127Y-88709617D01*
X135790297Y-88564592D01*
X135670408Y-88444703D01*
X135525383Y-88356873D01*
X135363594Y-88306171D01*
X135350439Y-88304962D01*
X135350438Y-88304962D01*
X135334037Y-88303455D01*
X135290993Y-88299500D01*
X135285275Y-88299500D01*
X134699328Y-88299501D01*
X134109008Y-88299501D01*
X134083079Y-88301883D01*
X134049561Y-88304962D01*
X134049557Y-88304963D01*
X134036406Y-88306171D01*
X134023803Y-88310121D01*
X134023801Y-88310121D01*
X133991378Y-88320282D01*
X133914670Y-88344321D01*
X133818075Y-88354729D01*
X133782082Y-88348835D01*
X133622004Y-88310404D01*
X133622002Y-88310404D01*
X133611215Y-88307814D01*
X133600146Y-88307176D01*
X133600141Y-88307175D01*
X133402103Y-88295756D01*
X133402101Y-88295756D01*
X133391035Y-88295118D01*
X133261423Y-88310803D01*
X133183092Y-88320282D01*
X133183089Y-88320283D01*
X133172087Y-88321614D01*
X132961291Y-88386463D01*
X132908842Y-88413534D01*
X132815477Y-88440394D01*
X132718937Y-88429480D01*
X132694556Y-88420267D01*
X132555667Y-88359299D01*
X132341215Y-88307814D01*
X132330146Y-88307176D01*
X132330141Y-88307175D01*
X132132103Y-88295756D01*
X132132101Y-88295756D01*
X132121035Y-88295118D01*
X131991423Y-88310803D01*
X131913092Y-88320282D01*
X131913089Y-88320283D01*
X131902087Y-88321614D01*
X131691291Y-88386463D01*
X131495310Y-88487616D01*
X131320339Y-88621876D01*
X131171909Y-88784998D01*
X131054712Y-88971828D01*
X130972451Y-89176458D01*
X130927727Y-89392421D01*
X130924500Y-89448388D01*
X130924500Y-90320958D01*
X127550500Y-90320958D01*
X127550500Y-89340630D01*
X129862216Y-89340630D01*
X129863979Y-89361410D01*
X129875261Y-89365000D01*
X130330473Y-89365000D01*
X130350931Y-89360931D01*
X130355000Y-89340473D01*
X130355000Y-88662237D01*
X130351240Y-88643337D01*
X130339936Y-88645585D01*
X130326919Y-88652390D01*
X130306636Y-88665663D01*
X130166214Y-88778566D01*
X130148890Y-88795530D01*
X130033070Y-88933559D01*
X130019375Y-88953560D01*
X129932570Y-89111459D01*
X129923020Y-89133739D01*
X129868538Y-89305490D01*
X129863498Y-89329201D01*
X129862216Y-89340630D01*
X127550500Y-89340630D01*
X127550500Y-84685582D01*
X127569454Y-84590294D01*
X127623430Y-84509512D01*
X127704212Y-84455536D01*
X127799500Y-84436582D01*
X127894788Y-84455536D01*
X127958548Y-84493999D01*
X128126399Y-84633351D01*
X128339433Y-84757838D01*
X128569939Y-84845859D01*
X128579950Y-84847896D01*
X128579954Y-84847897D01*
X128801713Y-84893015D01*
X128801715Y-84893015D01*
X128811726Y-84895052D01*
X128914353Y-84898815D01*
X129048087Y-84903719D01*
X129048093Y-84903719D01*
X129058300Y-84904093D01*
X129068431Y-84902795D01*
X129068436Y-84902795D01*
X129203670Y-84885471D01*
X129303041Y-84872741D01*
X129539374Y-84801838D01*
X129760954Y-84693287D01*
X129905345Y-84590294D01*
X129953512Y-84555937D01*
X129953516Y-84555934D01*
X129961829Y-84550004D01*
X130136605Y-84375837D01*
X130280588Y-84175463D01*
X130389911Y-83954264D01*
X130421514Y-83850249D01*
X130458669Y-83727956D01*
X130458669Y-83727954D01*
X130461639Y-83718180D01*
X130484051Y-83547947D01*
X130492981Y-83480114D01*
X130492981Y-83480111D01*
X130493845Y-83473550D01*
X130495643Y-83400000D01*
X130494490Y-83385969D01*
X130492619Y-83363214D01*
X135104806Y-83363214D01*
X135119010Y-83609545D01*
X135121257Y-83619514D01*
X135121257Y-83619517D01*
X135153218Y-83761339D01*
X135173255Y-83850249D01*
X135266084Y-84078861D01*
X135395006Y-84289241D01*
X135556557Y-84475741D01*
X135746399Y-84633351D01*
X135959433Y-84757838D01*
X136189939Y-84845859D01*
X136199950Y-84847896D01*
X136199954Y-84847897D01*
X136421713Y-84893015D01*
X136421715Y-84893015D01*
X136431726Y-84895052D01*
X136534353Y-84898815D01*
X136668087Y-84903719D01*
X136668093Y-84903719D01*
X136678300Y-84904093D01*
X136688431Y-84902795D01*
X136688436Y-84902795D01*
X136823670Y-84885471D01*
X136923041Y-84872741D01*
X137159374Y-84801838D01*
X137380954Y-84693287D01*
X137525345Y-84590294D01*
X137573512Y-84555937D01*
X137573516Y-84555934D01*
X137581829Y-84550004D01*
X137756605Y-84375837D01*
X137900588Y-84175463D01*
X138009911Y-83954264D01*
X138041514Y-83850249D01*
X138078669Y-83727956D01*
X138078669Y-83727954D01*
X138081639Y-83718180D01*
X138104051Y-83547947D01*
X138112981Y-83480114D01*
X138112981Y-83480111D01*
X138113845Y-83473550D01*
X138115643Y-83400000D01*
X138114490Y-83385969D01*
X138096262Y-83164271D01*
X138095425Y-83154089D01*
X138035316Y-82914783D01*
X137936928Y-82688507D01*
X137802905Y-82481339D01*
X137636846Y-82298842D01*
X137443210Y-82145918D01*
X137398463Y-82121216D01*
X137236143Y-82031611D01*
X137236144Y-82031611D01*
X137227198Y-82026673D01*
X137217572Y-82023264D01*
X137217567Y-82023262D01*
X137004240Y-81947719D01*
X137004238Y-81947718D01*
X136994610Y-81944309D01*
X136751694Y-81901039D01*
X136741474Y-81900914D01*
X136741472Y-81900914D01*
X136601179Y-81899200D01*
X136504972Y-81898025D01*
X136315826Y-81926968D01*
X136271166Y-81933802D01*
X136271165Y-81933802D01*
X136261070Y-81935347D01*
X136251359Y-81938521D01*
X136036250Y-82008829D01*
X136036247Y-82008830D01*
X136026540Y-82012003D01*
X135807679Y-82125935D01*
X135610364Y-82274083D01*
X135603312Y-82281463D01*
X135603307Y-82281467D01*
X135446957Y-82445079D01*
X135439896Y-82452468D01*
X135425355Y-82473784D01*
X135307917Y-82645942D01*
X135300851Y-82656300D01*
X135196965Y-82880104D01*
X135194238Y-82889939D01*
X135194236Y-82889943D01*
X135133757Y-83108022D01*
X135131026Y-83117871D01*
X135122941Y-83193526D01*
X135106434Y-83347983D01*
X135104806Y-83363214D01*
X130492619Y-83363214D01*
X130476262Y-83164271D01*
X130475425Y-83154089D01*
X130415316Y-82914783D01*
X130316928Y-82688507D01*
X130182905Y-82481339D01*
X130016846Y-82298842D01*
X129823210Y-82145918D01*
X129778463Y-82121216D01*
X129616143Y-82031611D01*
X129616144Y-82031611D01*
X129607198Y-82026673D01*
X129597572Y-82023264D01*
X129597567Y-82023262D01*
X129384240Y-81947719D01*
X129384238Y-81947718D01*
X129374610Y-81944309D01*
X129131694Y-81901039D01*
X129121474Y-81900914D01*
X129121472Y-81900914D01*
X128981179Y-81899200D01*
X128884972Y-81898025D01*
X128695826Y-81926968D01*
X128651166Y-81933802D01*
X128651165Y-81933802D01*
X128641070Y-81935347D01*
X128631359Y-81938521D01*
X128416250Y-82008829D01*
X128416247Y-82008830D01*
X128406540Y-82012003D01*
X128187679Y-82125935D01*
X127990364Y-82274083D01*
X127983310Y-82281465D01*
X127979522Y-82285429D01*
X127976297Y-82287692D01*
X127975661Y-82288256D01*
X127975596Y-82288183D01*
X127899986Y-82341225D01*
X127805153Y-82362338D01*
X127709459Y-82345552D01*
X127627473Y-82293424D01*
X127571677Y-82213888D01*
X127550500Y-82113402D01*
X127550500Y-78903957D01*
X127569454Y-78808669D01*
X127623430Y-78727887D01*
X128483214Y-77868103D01*
X128563996Y-77814127D01*
X128659284Y-77795173D01*
X128754572Y-77814127D01*
X128835354Y-77868103D01*
X128871591Y-77914071D01*
X128990435Y-78108007D01*
X128990442Y-78108016D01*
X128995776Y-78116721D01*
X129153236Y-78298497D01*
X129338270Y-78452115D01*
X129347091Y-78457270D01*
X129347093Y-78457271D01*
X129428087Y-78504600D01*
X129545909Y-78573450D01*
X129555449Y-78577093D01*
X129658216Y-78616336D01*
X129770577Y-78659243D01*
X130006241Y-78707189D01*
X130117153Y-78711256D01*
X130236358Y-78715627D01*
X130236364Y-78715627D01*
X130246571Y-78716001D01*
X130256702Y-78714703D01*
X130256707Y-78714703D01*
X130387933Y-78697892D01*
X130485113Y-78685443D01*
X130494889Y-78682510D01*
X130494894Y-78682509D01*
X130614877Y-78646512D01*
X130715461Y-78616336D01*
X130931429Y-78510534D01*
X131127217Y-78370880D01*
X131275515Y-78223099D01*
X131356391Y-78169264D01*
X131451712Y-78150476D01*
X131546967Y-78169597D01*
X131627654Y-78223714D01*
X131639483Y-78236444D01*
X131686544Y-78290772D01*
X131693236Y-78298497D01*
X131878270Y-78452115D01*
X131887091Y-78457270D01*
X131887093Y-78457271D01*
X131968087Y-78504600D01*
X132085909Y-78573450D01*
X132095449Y-78577093D01*
X132198216Y-78616336D01*
X132310577Y-78659243D01*
X132546241Y-78707189D01*
X132657153Y-78711256D01*
X132776358Y-78715627D01*
X132776364Y-78715627D01*
X132786571Y-78716001D01*
X132796702Y-78714703D01*
X132796707Y-78714703D01*
X132927933Y-78697892D01*
X133025113Y-78685443D01*
X133034889Y-78682510D01*
X133034894Y-78682509D01*
X133154877Y-78646512D01*
X133255461Y-78616336D01*
X133471429Y-78510534D01*
X133477414Y-78506265D01*
X135069700Y-78506265D01*
X135082019Y-78509279D01*
X135249165Y-78523903D01*
X135270835Y-78523903D01*
X135432527Y-78509757D01*
X135450988Y-78504376D01*
X135443490Y-78494150D01*
X135277341Y-78328001D01*
X135260000Y-78316414D01*
X135242659Y-78328001D01*
X135080382Y-78490278D01*
X135069700Y-78506265D01*
X133477414Y-78506265D01*
X133667217Y-78370880D01*
X133753585Y-78284813D01*
X133830333Y-78208333D01*
X133830334Y-78208332D01*
X133837567Y-78201124D01*
X133977903Y-78005825D01*
X134020132Y-77920382D01*
X134079929Y-77799391D01*
X134079929Y-77799390D01*
X134084458Y-77790227D01*
X134154370Y-77560122D01*
X134185760Y-77321688D01*
X134186014Y-77311289D01*
X134190725Y-77268785D01*
X134194462Y-77250000D01*
X134194462Y-77249999D01*
X136325539Y-77249999D01*
X136334689Y-77296003D01*
X136335368Y-77297645D01*
X136339704Y-77331707D01*
X136343802Y-77402771D01*
X136346770Y-77454238D01*
X136399641Y-77688846D01*
X136490120Y-77911668D01*
X136495460Y-77920382D01*
X136610441Y-78108016D01*
X136610445Y-78108021D01*
X136615776Y-78116721D01*
X136773236Y-78298497D01*
X136958270Y-78452115D01*
X136967091Y-78457270D01*
X136967093Y-78457271D01*
X137048087Y-78504600D01*
X137165909Y-78573450D01*
X137175449Y-78577093D01*
X137278216Y-78616336D01*
X137390577Y-78659243D01*
X137626241Y-78707189D01*
X137737153Y-78711256D01*
X137856358Y-78715627D01*
X137856364Y-78715627D01*
X137866571Y-78716001D01*
X137876702Y-78714703D01*
X137876707Y-78714703D01*
X138007933Y-78697892D01*
X138105113Y-78685443D01*
X138114889Y-78682510D01*
X138114894Y-78682509D01*
X138234877Y-78646512D01*
X138335461Y-78616336D01*
X138551429Y-78510534D01*
X138747217Y-78370880D01*
X138895515Y-78223099D01*
X138976391Y-78169264D01*
X139071712Y-78150476D01*
X139166967Y-78169597D01*
X139247654Y-78223714D01*
X139259483Y-78236444D01*
X139306544Y-78290772D01*
X139313236Y-78298497D01*
X139498270Y-78452115D01*
X139507091Y-78457270D01*
X139507093Y-78457271D01*
X139588087Y-78504600D01*
X139705909Y-78573450D01*
X139715449Y-78577093D01*
X139818216Y-78616336D01*
X139930577Y-78659243D01*
X140166241Y-78707189D01*
X140277153Y-78711256D01*
X140396358Y-78715627D01*
X140396364Y-78715627D01*
X140406571Y-78716001D01*
X140416702Y-78714703D01*
X140416707Y-78714703D01*
X140547933Y-78697892D01*
X140645113Y-78685443D01*
X140654889Y-78682510D01*
X140654894Y-78682509D01*
X140774877Y-78646512D01*
X140875461Y-78616336D01*
X141091429Y-78510534D01*
X141287217Y-78370880D01*
X141435515Y-78223099D01*
X141516391Y-78169264D01*
X141611712Y-78150476D01*
X141706967Y-78169597D01*
X141787654Y-78223714D01*
X141799483Y-78236444D01*
X141846544Y-78290772D01*
X141853236Y-78298497D01*
X142038270Y-78452115D01*
X142047091Y-78457270D01*
X142047093Y-78457271D01*
X142128087Y-78504600D01*
X142245909Y-78573450D01*
X142255449Y-78577093D01*
X142358216Y-78616336D01*
X142470577Y-78659243D01*
X142706241Y-78707189D01*
X142817153Y-78711256D01*
X142936358Y-78715627D01*
X142936364Y-78715627D01*
X142946571Y-78716001D01*
X142956702Y-78714703D01*
X142956707Y-78714703D01*
X143087933Y-78697892D01*
X143185113Y-78685443D01*
X143194889Y-78682510D01*
X143194894Y-78682509D01*
X143314877Y-78646512D01*
X143415461Y-78616336D01*
X143631429Y-78510534D01*
X143827217Y-78370880D01*
X143975515Y-78223099D01*
X144056391Y-78169264D01*
X144151712Y-78150476D01*
X144246967Y-78169597D01*
X144327654Y-78223714D01*
X144339483Y-78236444D01*
X144386544Y-78290772D01*
X144393236Y-78298497D01*
X144578270Y-78452115D01*
X144587091Y-78457270D01*
X144587093Y-78457271D01*
X144668087Y-78504600D01*
X144785909Y-78573450D01*
X144795449Y-78577093D01*
X144898216Y-78616336D01*
X145010577Y-78659243D01*
X145246241Y-78707189D01*
X145357153Y-78711256D01*
X145476358Y-78715627D01*
X145476364Y-78715627D01*
X145486571Y-78716001D01*
X145496702Y-78714703D01*
X145496707Y-78714703D01*
X145627933Y-78697892D01*
X145725113Y-78685443D01*
X145734889Y-78682510D01*
X145734894Y-78682509D01*
X145854877Y-78646512D01*
X145955461Y-78616336D01*
X146171429Y-78510534D01*
X146367217Y-78370880D01*
X146453585Y-78284813D01*
X146530333Y-78208333D01*
X146530334Y-78208332D01*
X146537567Y-78201124D01*
X146677903Y-78005825D01*
X146720132Y-77920382D01*
X146779929Y-77799391D01*
X146779929Y-77799390D01*
X146784458Y-77790227D01*
X146854370Y-77560122D01*
X146885760Y-77321688D01*
X146887512Y-77250000D01*
X146885239Y-77222347D01*
X146868643Y-77020499D01*
X146867806Y-77010317D01*
X146809219Y-76777071D01*
X146722661Y-76578001D01*
X146717398Y-76565897D01*
X146717396Y-76565893D01*
X146713323Y-76556526D01*
X146707776Y-76547952D01*
X146707773Y-76547946D01*
X146588246Y-76363186D01*
X146582695Y-76354605D01*
X146420841Y-76176730D01*
X146301190Y-76082235D01*
X146240127Y-76034010D01*
X146240125Y-76034009D01*
X146232109Y-76027678D01*
X146138670Y-75976097D01*
X146030513Y-75916391D01*
X146030509Y-75916389D01*
X146021567Y-75911453D01*
X146011941Y-75908044D01*
X146011936Y-75908042D01*
X145804500Y-75834585D01*
X145804498Y-75834584D01*
X145794870Y-75831175D01*
X145558105Y-75789001D01*
X145547884Y-75788876D01*
X145547883Y-75788876D01*
X145407107Y-75787156D01*
X145317632Y-75786063D01*
X145131172Y-75814595D01*
X145090003Y-75820895D01*
X145090002Y-75820895D01*
X145079907Y-75822440D01*
X144851316Y-75897155D01*
X144842245Y-75901877D01*
X144673233Y-75989859D01*
X144637998Y-76008201D01*
X144445680Y-76152597D01*
X144329572Y-76274098D01*
X144250040Y-76329891D01*
X144155206Y-76351002D01*
X144059512Y-76334215D01*
X143977527Y-76282086D01*
X143965388Y-76269646D01*
X143887716Y-76184286D01*
X143880841Y-76176730D01*
X143761190Y-76082235D01*
X143700127Y-76034010D01*
X143700125Y-76034009D01*
X143692109Y-76027678D01*
X143598670Y-75976097D01*
X143490513Y-75916391D01*
X143490509Y-75916389D01*
X143481567Y-75911453D01*
X143471941Y-75908044D01*
X143471936Y-75908042D01*
X143264500Y-75834585D01*
X143264498Y-75834584D01*
X143254870Y-75831175D01*
X143018105Y-75789001D01*
X143007884Y-75788876D01*
X143007883Y-75788876D01*
X142867107Y-75787156D01*
X142777632Y-75786063D01*
X142591172Y-75814595D01*
X142550003Y-75820895D01*
X142550002Y-75820895D01*
X142539907Y-75822440D01*
X142311316Y-75897155D01*
X142302245Y-75901877D01*
X142133233Y-75989859D01*
X142097998Y-76008201D01*
X141905680Y-76152597D01*
X141789572Y-76274098D01*
X141710040Y-76329891D01*
X141615206Y-76351002D01*
X141519512Y-76334215D01*
X141437527Y-76282086D01*
X141425388Y-76269646D01*
X141347716Y-76184286D01*
X141340841Y-76176730D01*
X141221190Y-76082235D01*
X141160127Y-76034010D01*
X141160125Y-76034009D01*
X141152109Y-76027678D01*
X141058670Y-75976097D01*
X140950513Y-75916391D01*
X140950509Y-75916389D01*
X140941567Y-75911453D01*
X140931941Y-75908044D01*
X140931936Y-75908042D01*
X140724500Y-75834585D01*
X140724498Y-75834584D01*
X140714870Y-75831175D01*
X140478105Y-75789001D01*
X140467884Y-75788876D01*
X140467883Y-75788876D01*
X140327107Y-75787156D01*
X140237632Y-75786063D01*
X140051172Y-75814595D01*
X140010003Y-75820895D01*
X140010002Y-75820895D01*
X139999907Y-75822440D01*
X139771316Y-75897155D01*
X139762245Y-75901877D01*
X139593233Y-75989859D01*
X139557998Y-76008201D01*
X139365680Y-76152597D01*
X139249572Y-76274098D01*
X139170040Y-76329891D01*
X139075206Y-76351002D01*
X138979512Y-76334215D01*
X138897527Y-76282086D01*
X138885388Y-76269646D01*
X138807716Y-76184286D01*
X138800841Y-76176730D01*
X138681190Y-76082235D01*
X138620127Y-76034010D01*
X138620125Y-76034009D01*
X138612109Y-76027678D01*
X138518670Y-75976097D01*
X138410513Y-75916391D01*
X138410509Y-75916389D01*
X138401567Y-75911453D01*
X138391941Y-75908044D01*
X138391936Y-75908042D01*
X138184500Y-75834585D01*
X138184498Y-75834584D01*
X138174870Y-75831175D01*
X137938105Y-75789001D01*
X137927884Y-75788876D01*
X137927883Y-75788876D01*
X137787107Y-75787156D01*
X137697632Y-75786063D01*
X137511172Y-75814595D01*
X137470003Y-75820895D01*
X137470002Y-75820895D01*
X137459907Y-75822440D01*
X137231316Y-75897155D01*
X137222245Y-75901877D01*
X137053233Y-75989859D01*
X137017998Y-76008201D01*
X136825680Y-76152597D01*
X136793956Y-76185795D01*
X136666597Y-76319068D01*
X136666593Y-76319073D01*
X136659529Y-76326465D01*
X136524006Y-76525134D01*
X136422750Y-76743271D01*
X136358482Y-76975016D01*
X136357396Y-76985180D01*
X136357395Y-76985184D01*
X136334413Y-77200230D01*
X136331039Y-77222347D01*
X136325539Y-77249999D01*
X134194462Y-77249999D01*
X134185395Y-77204419D01*
X134181448Y-77176245D01*
X134168643Y-77020499D01*
X134167806Y-77010317D01*
X134109219Y-76777071D01*
X134022661Y-76578001D01*
X134017398Y-76565897D01*
X134017396Y-76565893D01*
X134013323Y-76556526D01*
X134007776Y-76547952D01*
X134007773Y-76547946D01*
X133888246Y-76363186D01*
X133882695Y-76354605D01*
X133720841Y-76176730D01*
X133601190Y-76082235D01*
X133540127Y-76034010D01*
X133540125Y-76034009D01*
X133532109Y-76027678D01*
X133474043Y-75995624D01*
X135069012Y-75995624D01*
X135076510Y-76005850D01*
X135242659Y-76171999D01*
X135260000Y-76183586D01*
X135277341Y-76171999D01*
X135439618Y-76009722D01*
X135450300Y-75993735D01*
X135437981Y-75990721D01*
X135270835Y-75976097D01*
X135249165Y-75976097D01*
X135087473Y-75990243D01*
X135069012Y-75995624D01*
X133474043Y-75995624D01*
X133438670Y-75976097D01*
X133330513Y-75916391D01*
X133330509Y-75916389D01*
X133321567Y-75911453D01*
X133311932Y-75908041D01*
X133250308Y-75886218D01*
X133166813Y-75836543D01*
X133108683Y-75758697D01*
X133084769Y-75664531D01*
X133098711Y-75568381D01*
X133148386Y-75484886D01*
X133157358Y-75475431D01*
X134459359Y-74173430D01*
X134540141Y-74119454D01*
X134635429Y-74100500D01*
X150758135Y-74100500D01*
X150853423Y-74119454D01*
G37*
%TD.AperFunction*%
%TA.AperFunction,Conductor*%
G36*
X173953308Y-74119454D02*
G01*
X174034090Y-74173430D01*
X175738609Y-75877949D01*
X175754630Y-75888654D01*
X175759177Y-75881848D01*
X175791755Y-75746151D01*
X175794808Y-75726872D01*
X175811895Y-75509759D01*
X175811895Y-75490241D01*
X175798599Y-75321296D01*
X175810018Y-75224814D01*
X175857490Y-75140047D01*
X175933788Y-75079899D01*
X176027295Y-75053528D01*
X176123777Y-75064947D01*
X176208544Y-75112419D01*
X176222901Y-75125690D01*
X177976570Y-76879359D01*
X178030546Y-76960141D01*
X178049500Y-77055429D01*
X178049500Y-83357275D01*
X178030546Y-83452563D01*
X177976570Y-83533345D01*
X177895788Y-83587321D01*
X177800500Y-83606275D01*
X177705212Y-83587321D01*
X177657680Y-83561244D01*
X177640404Y-83549147D01*
X177621651Y-83538320D01*
X177433919Y-83450779D01*
X177413576Y-83443375D01*
X177213493Y-83389763D01*
X177192176Y-83386004D01*
X176985824Y-83367951D01*
X176964176Y-83367951D01*
X176758228Y-83385969D01*
X176749947Y-83390053D01*
X176754068Y-83398408D01*
X177859590Y-84503930D01*
X177913566Y-84584712D01*
X177932520Y-84680000D01*
X177913566Y-84775288D01*
X177859590Y-84856070D01*
X176760880Y-85954780D01*
X176750175Y-85970801D01*
X176753928Y-85973308D01*
X176757830Y-85973996D01*
X176964176Y-85992049D01*
X176985824Y-85992049D01*
X177192176Y-85973996D01*
X177213493Y-85970237D01*
X177413576Y-85916625D01*
X177433919Y-85909221D01*
X177621651Y-85821680D01*
X177640404Y-85810853D01*
X177657680Y-85798756D01*
X177746607Y-85759627D01*
X177843739Y-85757508D01*
X177934288Y-85792721D01*
X178004469Y-85859905D01*
X178043598Y-85948832D01*
X178049500Y-86002725D01*
X178049500Y-86144572D01*
X178030546Y-86239860D01*
X177976570Y-86320641D01*
X177820643Y-86476569D01*
X177739862Y-86530546D01*
X177644573Y-86549500D01*
X175104017Y-86549500D01*
X175008729Y-86530546D01*
X174927947Y-86476570D01*
X174873971Y-86395788D01*
X174855017Y-86300500D01*
X174873971Y-86205212D01*
X174927947Y-86124430D01*
X174994472Y-86076891D01*
X175048096Y-86050621D01*
X175205954Y-85973287D01*
X175299132Y-85906824D01*
X175398512Y-85835937D01*
X175398516Y-85835934D01*
X175406829Y-85830004D01*
X175581605Y-85655837D01*
X175725588Y-85455463D01*
X175834911Y-85234264D01*
X175866514Y-85130249D01*
X175903669Y-85007956D01*
X175903669Y-85007954D01*
X175906639Y-84998180D01*
X175926693Y-84845859D01*
X175937981Y-84760114D01*
X175937981Y-84760111D01*
X175938845Y-84753550D01*
X175940643Y-84680000D01*
X175936272Y-84626829D01*
X175921262Y-84444271D01*
X175920425Y-84434089D01*
X175860316Y-84194783D01*
X175761928Y-83968507D01*
X175627905Y-83761339D01*
X175461846Y-83578842D01*
X175268210Y-83425918D01*
X175256117Y-83419242D01*
X175061143Y-83311611D01*
X175061144Y-83311611D01*
X175052198Y-83306673D01*
X175042572Y-83303264D01*
X175042567Y-83303262D01*
X174829240Y-83227719D01*
X174829238Y-83227718D01*
X174819610Y-83224309D01*
X174576694Y-83181039D01*
X174566474Y-83180914D01*
X174566472Y-83180914D01*
X174426179Y-83179200D01*
X174329972Y-83178025D01*
X174140826Y-83206968D01*
X174096166Y-83213802D01*
X174096165Y-83213802D01*
X174086070Y-83215347D01*
X174076359Y-83218521D01*
X173861250Y-83288829D01*
X173861247Y-83288830D01*
X173851540Y-83292003D01*
X173632679Y-83405935D01*
X173435364Y-83554083D01*
X173428307Y-83561467D01*
X173428301Y-83561473D01*
X173345255Y-83648376D01*
X173265719Y-83704172D01*
X173170886Y-83725283D01*
X173075192Y-83708496D01*
X172993207Y-83656366D01*
X172981077Y-83643937D01*
X172921846Y-83578842D01*
X172728210Y-83425918D01*
X172716117Y-83419242D01*
X172521143Y-83311611D01*
X172521144Y-83311611D01*
X172512198Y-83306673D01*
X172502572Y-83303264D01*
X172502567Y-83303262D01*
X172289240Y-83227719D01*
X172289238Y-83227718D01*
X172279610Y-83224309D01*
X172036694Y-83181039D01*
X172026474Y-83180914D01*
X172026472Y-83180914D01*
X171886179Y-83179200D01*
X171789972Y-83178025D01*
X171600826Y-83206968D01*
X171556166Y-83213802D01*
X171556165Y-83213802D01*
X171546070Y-83215347D01*
X171536359Y-83218521D01*
X171321250Y-83288829D01*
X171321247Y-83288830D01*
X171311540Y-83292003D01*
X171092679Y-83405935D01*
X170895364Y-83554083D01*
X170888307Y-83561467D01*
X170888301Y-83561473D01*
X170805255Y-83648376D01*
X170725719Y-83704172D01*
X170630886Y-83725283D01*
X170535192Y-83708496D01*
X170453207Y-83656366D01*
X170441077Y-83643937D01*
X170381846Y-83578842D01*
X170188210Y-83425918D01*
X170176117Y-83419242D01*
X169981143Y-83311611D01*
X169981144Y-83311611D01*
X169972198Y-83306673D01*
X169962572Y-83303264D01*
X169962567Y-83303262D01*
X169749240Y-83227719D01*
X169749238Y-83227718D01*
X169739610Y-83224309D01*
X169496694Y-83181039D01*
X169486474Y-83180914D01*
X169486472Y-83180914D01*
X169346179Y-83179200D01*
X169249972Y-83178025D01*
X169060826Y-83206968D01*
X169016166Y-83213802D01*
X169016165Y-83213802D01*
X169006070Y-83215347D01*
X168996359Y-83218521D01*
X168781250Y-83288829D01*
X168781247Y-83288830D01*
X168771540Y-83292003D01*
X168552679Y-83405935D01*
X168355364Y-83554083D01*
X168348307Y-83561467D01*
X168348301Y-83561473D01*
X168265255Y-83648376D01*
X168185719Y-83704172D01*
X168090886Y-83725283D01*
X167995192Y-83708496D01*
X167913207Y-83656366D01*
X167901077Y-83643937D01*
X167841846Y-83578842D01*
X167648210Y-83425918D01*
X167636117Y-83419242D01*
X167441143Y-83311611D01*
X167441144Y-83311611D01*
X167432198Y-83306673D01*
X167422572Y-83303264D01*
X167422567Y-83303262D01*
X167209240Y-83227719D01*
X167209238Y-83227718D01*
X167199610Y-83224309D01*
X166956694Y-83181039D01*
X166946474Y-83180914D01*
X166946472Y-83180914D01*
X166806179Y-83179200D01*
X166709972Y-83178025D01*
X166520826Y-83206968D01*
X166476166Y-83213802D01*
X166476165Y-83213802D01*
X166466070Y-83215347D01*
X166456359Y-83218521D01*
X166241250Y-83288829D01*
X166241247Y-83288830D01*
X166231540Y-83292003D01*
X166012679Y-83405935D01*
X165815364Y-83554083D01*
X165808307Y-83561467D01*
X165808301Y-83561473D01*
X165725255Y-83648376D01*
X165645719Y-83704172D01*
X165550886Y-83725283D01*
X165455192Y-83708496D01*
X165373207Y-83656366D01*
X165361077Y-83643937D01*
X165301846Y-83578842D01*
X165108210Y-83425918D01*
X165096117Y-83419242D01*
X164901143Y-83311611D01*
X164901144Y-83311611D01*
X164892198Y-83306673D01*
X164882572Y-83303264D01*
X164882567Y-83303262D01*
X164669240Y-83227719D01*
X164669238Y-83227718D01*
X164659610Y-83224309D01*
X164416694Y-83181039D01*
X164406474Y-83180914D01*
X164406472Y-83180914D01*
X164266179Y-83179200D01*
X164169972Y-83178025D01*
X163980826Y-83206968D01*
X163936166Y-83213802D01*
X163936165Y-83213802D01*
X163926070Y-83215347D01*
X163916359Y-83218521D01*
X163701250Y-83288829D01*
X163701247Y-83288830D01*
X163691540Y-83292003D01*
X163472679Y-83405935D01*
X163275364Y-83554083D01*
X163268307Y-83561467D01*
X163268301Y-83561473D01*
X163185255Y-83648376D01*
X163105719Y-83704172D01*
X163010886Y-83725283D01*
X162915192Y-83708496D01*
X162833207Y-83656366D01*
X162821077Y-83643937D01*
X162761846Y-83578842D01*
X162568210Y-83425918D01*
X162556117Y-83419242D01*
X162361143Y-83311611D01*
X162361144Y-83311611D01*
X162352198Y-83306673D01*
X162342572Y-83303264D01*
X162342567Y-83303262D01*
X162129240Y-83227719D01*
X162129238Y-83227718D01*
X162119610Y-83224309D01*
X161876694Y-83181039D01*
X161866474Y-83180914D01*
X161866472Y-83180914D01*
X161726179Y-83179200D01*
X161629972Y-83178025D01*
X161440826Y-83206968D01*
X161396166Y-83213802D01*
X161396165Y-83213802D01*
X161386070Y-83215347D01*
X161376359Y-83218521D01*
X161161250Y-83288829D01*
X161161247Y-83288830D01*
X161151540Y-83292003D01*
X160932679Y-83405935D01*
X160735364Y-83554083D01*
X160728307Y-83561467D01*
X160728301Y-83561473D01*
X160645255Y-83648376D01*
X160565719Y-83704172D01*
X160470886Y-83725283D01*
X160375192Y-83708496D01*
X160293207Y-83656366D01*
X160281078Y-83643937D01*
X160253111Y-83613202D01*
X160239782Y-83598553D01*
X160189672Y-83515318D01*
X160175230Y-83419242D01*
X160198653Y-83324953D01*
X160247883Y-83254906D01*
X166229358Y-77273430D01*
X166310140Y-77219454D01*
X166405428Y-77200500D01*
X167679798Y-77200499D01*
X167755992Y-77200499D01*
X167781921Y-77198117D01*
X167815439Y-77195038D01*
X167815443Y-77195037D01*
X167828594Y-77193829D01*
X167841197Y-77189879D01*
X167841199Y-77189879D01*
X167905462Y-77169740D01*
X167990383Y-77143127D01*
X168135408Y-77055297D01*
X168236075Y-76954630D01*
X173911346Y-76954630D01*
X173918152Y-76959177D01*
X174053849Y-76991755D01*
X174073128Y-76994808D01*
X174290241Y-77011895D01*
X174309759Y-77011895D01*
X174526872Y-76994808D01*
X174546151Y-76991755D01*
X174671444Y-76961675D01*
X174688942Y-76953608D01*
X174685515Y-76946175D01*
X174317341Y-76578001D01*
X174300000Y-76566414D01*
X174282659Y-76578001D01*
X173922051Y-76938609D01*
X173911346Y-76954630D01*
X168236075Y-76954630D01*
X168255297Y-76935408D01*
X168343127Y-76790383D01*
X168393829Y-76628594D01*
X168400500Y-76555993D01*
X168400500Y-75509759D01*
X172788105Y-75509759D01*
X172805192Y-75726872D01*
X172808245Y-75746151D01*
X172838325Y-75871444D01*
X172846392Y-75888942D01*
X172853825Y-75885515D01*
X173221999Y-75517341D01*
X173233586Y-75500000D01*
X173221999Y-75482659D01*
X172861391Y-75122051D01*
X172845370Y-75111346D01*
X172840823Y-75118152D01*
X172808245Y-75253849D01*
X172805192Y-75273128D01*
X172788105Y-75490241D01*
X172788105Y-75509759D01*
X168400500Y-75509759D01*
X168400500Y-75500000D01*
X168400499Y-74449713D01*
X168400499Y-74444008D01*
X168393909Y-74372279D01*
X168404066Y-74275658D01*
X168450425Y-74190277D01*
X168525930Y-74129137D01*
X168619084Y-74101544D01*
X168641865Y-74100500D01*
X173858020Y-74100500D01*
X173953308Y-74119454D01*
G37*
%TD.AperFunction*%
%TA.AperFunction,Conductor*%
G36*
X159953308Y-74119454D02*
G01*
X160034090Y-74173430D01*
X160282659Y-74421999D01*
X160300000Y-74433586D01*
X160317341Y-74421999D01*
X160565910Y-74173430D01*
X160646692Y-74119454D01*
X160741980Y-74100500D01*
X164758135Y-74100500D01*
X164853423Y-74119454D01*
X164934205Y-74173430D01*
X164988181Y-74254212D01*
X165007135Y-74349500D01*
X165006091Y-74372271D01*
X164999500Y-74444007D01*
X164999501Y-75253849D01*
X164999501Y-75994570D01*
X164980547Y-76089858D01*
X164926571Y-76170640D01*
X158626284Y-82470928D01*
X158610933Y-82485043D01*
X158575460Y-82515020D01*
X158567270Y-82525732D01*
X158527499Y-82577750D01*
X158523745Y-82582538D01*
X158474269Y-82644073D01*
X158469599Y-82653480D01*
X158463223Y-82661820D01*
X158429848Y-82733394D01*
X158427231Y-82738831D01*
X158392105Y-82809593D01*
X158389565Y-82819779D01*
X158385127Y-82829297D01*
X158382186Y-82842453D01*
X158382184Y-82842460D01*
X158367897Y-82906377D01*
X158366498Y-82912297D01*
X158347400Y-82988894D01*
X158347113Y-82999187D01*
X158347047Y-82999663D01*
X158344817Y-83009637D01*
X158344500Y-83015307D01*
X158344500Y-83089249D01*
X158344403Y-83096201D01*
X158342241Y-83173611D01*
X158344089Y-83183301D01*
X158344500Y-83193526D01*
X158344500Y-83317690D01*
X158325546Y-83412978D01*
X158271570Y-83493760D01*
X158245005Y-83516811D01*
X158216358Y-83538320D01*
X158195364Y-83554083D01*
X158188307Y-83561467D01*
X158188301Y-83561473D01*
X158105255Y-83648376D01*
X158025719Y-83704172D01*
X157930886Y-83725283D01*
X157835192Y-83708496D01*
X157753207Y-83656366D01*
X157741077Y-83643937D01*
X157681846Y-83578842D01*
X157673829Y-83572511D01*
X157673822Y-83572504D01*
X157600175Y-83514341D01*
X157537142Y-83440409D01*
X157507200Y-83347983D01*
X157505500Y-83318932D01*
X157505500Y-79501223D01*
X157506373Y-79480387D01*
X157509132Y-79447536D01*
X157509132Y-79447532D01*
X157510260Y-79434098D01*
X157505988Y-79402080D01*
X157499813Y-79355795D01*
X157499083Y-79349759D01*
X157492015Y-79284701D01*
X157492015Y-79284700D01*
X157490558Y-79271291D01*
X157487209Y-79261339D01*
X157485820Y-79250931D01*
X157458794Y-79176679D01*
X157456804Y-79170993D01*
X157435920Y-79108937D01*
X157435919Y-79108934D01*
X157431617Y-79096152D01*
X157426209Y-79087152D01*
X157422618Y-79077285D01*
X157380321Y-79010635D01*
X157377125Y-79005461D01*
X157343388Y-78949314D01*
X157343387Y-78949313D01*
X157336443Y-78937756D01*
X157329375Y-78930282D01*
X157329072Y-78929881D01*
X157323602Y-78921262D01*
X157319817Y-78917028D01*
X157267504Y-78864715D01*
X157262657Y-78859730D01*
X157218742Y-78813291D01*
X157218740Y-78813289D01*
X157209476Y-78803493D01*
X157201320Y-78797950D01*
X157193804Y-78791015D01*
X155357419Y-76954630D01*
X159911346Y-76954630D01*
X159918152Y-76959177D01*
X160053849Y-76991755D01*
X160073128Y-76994808D01*
X160290241Y-77011895D01*
X160309759Y-77011895D01*
X160526872Y-76994808D01*
X160546151Y-76991755D01*
X160671444Y-76961675D01*
X160688942Y-76953608D01*
X160685515Y-76946175D01*
X160317341Y-76578001D01*
X160300000Y-76566414D01*
X160282659Y-76578001D01*
X159922051Y-76938609D01*
X159911346Y-76954630D01*
X155357419Y-76954630D01*
X154473430Y-76070641D01*
X154419454Y-75989859D01*
X154400500Y-75894571D01*
X154400500Y-75509759D01*
X158788105Y-75509759D01*
X158805192Y-75726872D01*
X158808245Y-75746151D01*
X158838325Y-75871444D01*
X158846392Y-75888942D01*
X158853825Y-75885515D01*
X159221999Y-75517341D01*
X159233586Y-75500000D01*
X161366414Y-75500000D01*
X161378001Y-75517341D01*
X161738609Y-75877949D01*
X161754630Y-75888654D01*
X161759177Y-75881848D01*
X161791755Y-75746151D01*
X161794808Y-75726872D01*
X161811895Y-75509759D01*
X161811895Y-75490241D01*
X161794808Y-75273128D01*
X161791755Y-75253849D01*
X161761675Y-75128556D01*
X161753608Y-75111058D01*
X161746175Y-75114485D01*
X161378001Y-75482659D01*
X161366414Y-75500000D01*
X159233586Y-75500000D01*
X159221999Y-75482659D01*
X158861391Y-75122051D01*
X158845370Y-75111346D01*
X158840823Y-75118152D01*
X158808245Y-75253849D01*
X158805192Y-75273128D01*
X158788105Y-75490241D01*
X158788105Y-75509759D01*
X154400500Y-75509759D01*
X154400499Y-74449713D01*
X154400499Y-74444008D01*
X154393909Y-74372279D01*
X154404066Y-74275658D01*
X154450425Y-74190277D01*
X154525930Y-74129137D01*
X154619084Y-74101544D01*
X154641865Y-74100500D01*
X159858020Y-74100500D01*
X159953308Y-74119454D01*
G37*
%TD.AperFunction*%
%TA.AperFunction,Conductor*%
G36*
X175731489Y-48718954D02*
G01*
X175812271Y-48772930D01*
X177000000Y-49960660D01*
X179227070Y-52187729D01*
X179281046Y-52268511D01*
X179300000Y-52363799D01*
X179300000Y-75196071D01*
X179281046Y-75291359D01*
X179227070Y-75372141D01*
X179146288Y-75426117D01*
X179051000Y-75445071D01*
X178955712Y-75426117D01*
X178874930Y-75372141D01*
X176165363Y-72662575D01*
X176155038Y-72650400D01*
X176154604Y-72650788D01*
X176145614Y-72640732D01*
X176137766Y-72629771D01*
X176127751Y-72620753D01*
X176127747Y-72620749D01*
X176090334Y-72587063D01*
X176080878Y-72578090D01*
X176068751Y-72565963D01*
X176063504Y-72561744D01*
X176063497Y-72561738D01*
X176056880Y-72556418D01*
X176046289Y-72547404D01*
X176010468Y-72515150D01*
X176010461Y-72515145D01*
X176000440Y-72506122D01*
X175988711Y-72499459D01*
X175980232Y-72493344D01*
X175971436Y-72487719D01*
X175960927Y-72479269D01*
X175905643Y-72451826D01*
X175893431Y-72445333D01*
X175839766Y-72414847D01*
X175826881Y-72410859D01*
X175817311Y-72406717D01*
X175807492Y-72403104D01*
X175795407Y-72397105D01*
X175735559Y-72382183D01*
X175722185Y-72378450D01*
X175663240Y-72360203D01*
X175649801Y-72359075D01*
X175639529Y-72357078D01*
X175629186Y-72355661D01*
X175616106Y-72352400D01*
X175574898Y-72351249D01*
X175554457Y-72350678D01*
X175540575Y-72349902D01*
X175492542Y-72345869D01*
X175479098Y-72344740D01*
X175465724Y-72346525D01*
X175455275Y-72346780D01*
X175444865Y-72347617D01*
X175431389Y-72347241D01*
X175418149Y-72349767D01*
X175418144Y-72349767D01*
X175370803Y-72358798D01*
X175357079Y-72361021D01*
X175309299Y-72367396D01*
X175309296Y-72367397D01*
X175295931Y-72369180D01*
X175283257Y-72373793D01*
X175273104Y-72376287D01*
X175263117Y-72379340D01*
X175249872Y-72381867D01*
X175237476Y-72387180D01*
X175232766Y-72388620D01*
X175159965Y-72399500D01*
X134552956Y-72399500D01*
X134457668Y-72380546D01*
X134376886Y-72326570D01*
X134322910Y-72245788D01*
X134303956Y-72150500D01*
X134322910Y-72055212D01*
X134376886Y-71974430D01*
X138760515Y-67590801D01*
X152465175Y-67590801D01*
X152468928Y-67593308D01*
X152472830Y-67593996D01*
X152679176Y-67612049D01*
X152700824Y-67612049D01*
X152906772Y-67594031D01*
X152915053Y-67589947D01*
X152910932Y-67581592D01*
X152707341Y-67378001D01*
X152690000Y-67366414D01*
X152672659Y-67378001D01*
X152475880Y-67574780D01*
X152465175Y-67590801D01*
X138760515Y-67590801D01*
X140040492Y-66310824D01*
X151377951Y-66310824D01*
X151395969Y-66516772D01*
X151400053Y-66525053D01*
X151408408Y-66520932D01*
X151611999Y-66317341D01*
X151623586Y-66300000D01*
X153756414Y-66300000D01*
X153768001Y-66317341D01*
X153964780Y-66514120D01*
X153980801Y-66524825D01*
X153983308Y-66521072D01*
X153983996Y-66517170D01*
X154002049Y-66310824D01*
X154002049Y-66289176D01*
X153999778Y-66263214D01*
X158804806Y-66263214D01*
X158819010Y-66509545D01*
X158821257Y-66519514D01*
X158821257Y-66519517D01*
X158865800Y-66717170D01*
X158873255Y-66750249D01*
X158966084Y-66978861D01*
X159095006Y-67189241D01*
X159256557Y-67375741D01*
X159446399Y-67533351D01*
X159581075Y-67612049D01*
X159646027Y-67650004D01*
X159659433Y-67657838D01*
X159889939Y-67745859D01*
X159899950Y-67747896D01*
X159899954Y-67747897D01*
X160121713Y-67793015D01*
X160121715Y-67793015D01*
X160131726Y-67795052D01*
X160234353Y-67798815D01*
X160368087Y-67803719D01*
X160368093Y-67803719D01*
X160378300Y-67804093D01*
X160388431Y-67802795D01*
X160388436Y-67802795D01*
X160482063Y-67790801D01*
X166975175Y-67790801D01*
X166978928Y-67793308D01*
X166982830Y-67793996D01*
X167189176Y-67812049D01*
X167210824Y-67812049D01*
X167416772Y-67794031D01*
X167425053Y-67789947D01*
X167420932Y-67781592D01*
X167217341Y-67578001D01*
X167200000Y-67566414D01*
X167182659Y-67578001D01*
X166985880Y-67774780D01*
X166975175Y-67790801D01*
X160482063Y-67790801D01*
X160523670Y-67785471D01*
X160623041Y-67772741D01*
X160859374Y-67701838D01*
X161080954Y-67593287D01*
X161174132Y-67526824D01*
X161273512Y-67455937D01*
X161273516Y-67455934D01*
X161281829Y-67450004D01*
X161456605Y-67275837D01*
X161600588Y-67075463D01*
X161709911Y-66854264D01*
X161720875Y-66818180D01*
X161778669Y-66627956D01*
X161778669Y-66627954D01*
X161781639Y-66618180D01*
X161786651Y-66580114D01*
X161795773Y-66510824D01*
X165887951Y-66510824D01*
X165905969Y-66716772D01*
X165910053Y-66725053D01*
X165918408Y-66720932D01*
X166121999Y-66517341D01*
X166133586Y-66500000D01*
X168266414Y-66500000D01*
X168278001Y-66517341D01*
X168474780Y-66714120D01*
X168490801Y-66724825D01*
X168493308Y-66721072D01*
X168493996Y-66717170D01*
X168512049Y-66510824D01*
X168512049Y-66489176D01*
X168509778Y-66463214D01*
X173314806Y-66463214D01*
X173329010Y-66709545D01*
X173331257Y-66719514D01*
X173331257Y-66719517D01*
X173351209Y-66808049D01*
X173383255Y-66950249D01*
X173476084Y-67178861D01*
X173481421Y-67187571D01*
X173481422Y-67187572D01*
X173529669Y-67266303D01*
X173605006Y-67389241D01*
X173766557Y-67575741D01*
X173865443Y-67657838D01*
X173913024Y-67697340D01*
X173956399Y-67733351D01*
X174169433Y-67857838D01*
X174399939Y-67945859D01*
X174409950Y-67947896D01*
X174409954Y-67947897D01*
X174631713Y-67993015D01*
X174631715Y-67993015D01*
X174641726Y-67995052D01*
X174744353Y-67998815D01*
X174878087Y-68003719D01*
X174878093Y-68003719D01*
X174888300Y-68004093D01*
X174898431Y-68002795D01*
X174898436Y-68002795D01*
X175033670Y-67985471D01*
X175133041Y-67972741D01*
X175369374Y-67901838D01*
X175590954Y-67793287D01*
X175654588Y-67747897D01*
X175783512Y-67655937D01*
X175783516Y-67655934D01*
X175791829Y-67650004D01*
X175966605Y-67475837D01*
X176110588Y-67275463D01*
X176219911Y-67054264D01*
X176242821Y-66978861D01*
X176288669Y-66827956D01*
X176288669Y-66827954D01*
X176291639Y-66818180D01*
X176303900Y-66725053D01*
X176322981Y-66580114D01*
X176322981Y-66580111D01*
X176323845Y-66573550D01*
X176325643Y-66500000D01*
X176305425Y-66254089D01*
X176245316Y-66014783D01*
X176146928Y-65788507D01*
X176012905Y-65581339D01*
X175846846Y-65398842D01*
X175653210Y-65245918D01*
X175608463Y-65221216D01*
X175446143Y-65131611D01*
X175446144Y-65131611D01*
X175437198Y-65126673D01*
X175427572Y-65123264D01*
X175427567Y-65123262D01*
X175214240Y-65047719D01*
X175214238Y-65047718D01*
X175204610Y-65044309D01*
X174961694Y-65001039D01*
X174951474Y-65000914D01*
X174951472Y-65000914D01*
X174811179Y-64999200D01*
X174714972Y-64998025D01*
X174537251Y-65025220D01*
X174481166Y-65033802D01*
X174481165Y-65033802D01*
X174471070Y-65035347D01*
X174461359Y-65038521D01*
X174246250Y-65108829D01*
X174246247Y-65108830D01*
X174236540Y-65112003D01*
X174081886Y-65192511D01*
X174049829Y-65209199D01*
X174017679Y-65225935D01*
X173820364Y-65374083D01*
X173813312Y-65381463D01*
X173813307Y-65381467D01*
X173656957Y-65545079D01*
X173649896Y-65552468D01*
X173510851Y-65756300D01*
X173406965Y-65980104D01*
X173404238Y-65989939D01*
X173404236Y-65989943D01*
X173343757Y-66208022D01*
X173341026Y-66217871D01*
X173334926Y-66274947D01*
X173325096Y-66366933D01*
X173314806Y-66463214D01*
X168509778Y-66463214D01*
X168494031Y-66283228D01*
X168489947Y-66274947D01*
X168481592Y-66279068D01*
X168278001Y-66482659D01*
X168266414Y-66500000D01*
X166133586Y-66500000D01*
X166121999Y-66482659D01*
X165925220Y-66285880D01*
X165909199Y-66275175D01*
X165906692Y-66278928D01*
X165906004Y-66282830D01*
X165887951Y-66489176D01*
X165887951Y-66510824D01*
X161795773Y-66510824D01*
X161812981Y-66380114D01*
X161812981Y-66380111D01*
X161813845Y-66373550D01*
X161815643Y-66300000D01*
X161812706Y-66264271D01*
X161796262Y-66064271D01*
X161795425Y-66054089D01*
X161735316Y-65814783D01*
X161636928Y-65588507D01*
X161502905Y-65381339D01*
X161347047Y-65210053D01*
X166974947Y-65210053D01*
X166979068Y-65218408D01*
X167182659Y-65421999D01*
X167200000Y-65433586D01*
X167217341Y-65421999D01*
X167414120Y-65225220D01*
X167424825Y-65209199D01*
X167421072Y-65206692D01*
X167417170Y-65206004D01*
X167210824Y-65187951D01*
X167189176Y-65187951D01*
X166983228Y-65205969D01*
X166974947Y-65210053D01*
X161347047Y-65210053D01*
X161336846Y-65198842D01*
X161143210Y-65045918D01*
X161129811Y-65038521D01*
X160936143Y-64931611D01*
X160936144Y-64931611D01*
X160927198Y-64926673D01*
X160917572Y-64923264D01*
X160917567Y-64923262D01*
X160704240Y-64847719D01*
X160704238Y-64847718D01*
X160694610Y-64844309D01*
X160451694Y-64801039D01*
X160441474Y-64800914D01*
X160441472Y-64800914D01*
X160301179Y-64799200D01*
X160204972Y-64798025D01*
X160015826Y-64826968D01*
X159971166Y-64833802D01*
X159971165Y-64833802D01*
X159961070Y-64835347D01*
X159951359Y-64838521D01*
X159736250Y-64908829D01*
X159736247Y-64908830D01*
X159726540Y-64912003D01*
X159561294Y-64998025D01*
X159539829Y-65009199D01*
X159507679Y-65025935D01*
X159310364Y-65174083D01*
X159303312Y-65181463D01*
X159303307Y-65181467D01*
X159246435Y-65240981D01*
X159139896Y-65352468D01*
X159000851Y-65556300D01*
X158896965Y-65780104D01*
X158894238Y-65789939D01*
X158894236Y-65789943D01*
X158833757Y-66008022D01*
X158831026Y-66017871D01*
X158826067Y-66064271D01*
X158808566Y-66228036D01*
X158804806Y-66263214D01*
X153999778Y-66263214D01*
X153984031Y-66083228D01*
X153979947Y-66074947D01*
X153971592Y-66079068D01*
X153768001Y-66282659D01*
X153756414Y-66300000D01*
X151623586Y-66300000D01*
X151611999Y-66282659D01*
X151415220Y-66085880D01*
X151399199Y-66075175D01*
X151396692Y-66078928D01*
X151396004Y-66082830D01*
X151377951Y-66289176D01*
X151377951Y-66310824D01*
X140040492Y-66310824D01*
X141341263Y-65010053D01*
X152464947Y-65010053D01*
X152469068Y-65018408D01*
X152672659Y-65221999D01*
X152690000Y-65233586D01*
X152707341Y-65221999D01*
X152904120Y-65025220D01*
X152914825Y-65009199D01*
X152911072Y-65006692D01*
X152907170Y-65006004D01*
X152700824Y-64987951D01*
X152679176Y-64987951D01*
X152473228Y-65005969D01*
X152464947Y-65010053D01*
X141341263Y-65010053D01*
X145827886Y-60523430D01*
X145908668Y-60469454D01*
X146003956Y-60450500D01*
X151513221Y-60450500D01*
X151608509Y-60469454D01*
X151689291Y-60523430D01*
X151743267Y-60604212D01*
X151762221Y-60699500D01*
X151743267Y-60794788D01*
X151690316Y-60874037D01*
X151690364Y-60874083D01*
X151685797Y-60878862D01*
X151685796Y-60878863D01*
X151679419Y-60885536D01*
X151519896Y-61052468D01*
X151514134Y-61060915D01*
X151431899Y-61181467D01*
X151380851Y-61256300D01*
X151276965Y-61480104D01*
X151274238Y-61489939D01*
X151274236Y-61489943D01*
X151213757Y-61708022D01*
X151211026Y-61717871D01*
X151184806Y-61963214D01*
X151199010Y-62209545D01*
X151253255Y-62450249D01*
X151346084Y-62678861D01*
X151475006Y-62889241D01*
X151636557Y-63075741D01*
X151826399Y-63233351D01*
X152039433Y-63357838D01*
X152269939Y-63445859D01*
X152279950Y-63447896D01*
X152279954Y-63447897D01*
X152501713Y-63493015D01*
X152501715Y-63493015D01*
X152511726Y-63495052D01*
X152614353Y-63498815D01*
X152748087Y-63503719D01*
X152748093Y-63503719D01*
X152758300Y-63504093D01*
X152768431Y-63502795D01*
X152768436Y-63502795D01*
X152903670Y-63485471D01*
X153003041Y-63472741D01*
X153239374Y-63401838D01*
X153460954Y-63293287D01*
X153606821Y-63189241D01*
X153653512Y-63155937D01*
X153653516Y-63155934D01*
X153661829Y-63150004D01*
X153836605Y-62975837D01*
X153980588Y-62775463D01*
X154089911Y-62554264D01*
X154106599Y-62499340D01*
X154158669Y-62327956D01*
X154158669Y-62327954D01*
X154161639Y-62318180D01*
X154164033Y-62300000D01*
X154192981Y-62080114D01*
X154192981Y-62080111D01*
X154193845Y-62073550D01*
X154195643Y-62000000D01*
X154192619Y-61963214D01*
X158804806Y-61963214D01*
X158819010Y-62209545D01*
X158873255Y-62450249D01*
X158966084Y-62678861D01*
X159095006Y-62889241D01*
X159256557Y-63075741D01*
X159446399Y-63233351D01*
X159659433Y-63357838D01*
X159889939Y-63445859D01*
X159899950Y-63447896D01*
X159899954Y-63447897D01*
X160121713Y-63493015D01*
X160121715Y-63493015D01*
X160131726Y-63495052D01*
X160234353Y-63498815D01*
X160368087Y-63503719D01*
X160368093Y-63503719D01*
X160378300Y-63504093D01*
X160388431Y-63502795D01*
X160388436Y-63502795D01*
X160523670Y-63485471D01*
X160623041Y-63472741D01*
X160859374Y-63401838D01*
X161080954Y-63293287D01*
X161226821Y-63189241D01*
X161273512Y-63155937D01*
X161273516Y-63155934D01*
X161281829Y-63150004D01*
X161456605Y-62975837D01*
X161600588Y-62775463D01*
X161709911Y-62554264D01*
X161726599Y-62499340D01*
X161778669Y-62327956D01*
X161778669Y-62327954D01*
X161781639Y-62318180D01*
X161784033Y-62300000D01*
X161788876Y-62263214D01*
X165674806Y-62263214D01*
X165689010Y-62509545D01*
X165691257Y-62519514D01*
X165691257Y-62519517D01*
X165727167Y-62678861D01*
X165743255Y-62750249D01*
X165836084Y-62978861D01*
X165965006Y-63189241D01*
X166126557Y-63375741D01*
X166239860Y-63469807D01*
X166281158Y-63504093D01*
X166316399Y-63533351D01*
X166529433Y-63657838D01*
X166759939Y-63745859D01*
X166769950Y-63747896D01*
X166769954Y-63747897D01*
X166991713Y-63793015D01*
X166991715Y-63793015D01*
X167001726Y-63795052D01*
X167104353Y-63798815D01*
X167238087Y-63803719D01*
X167238093Y-63803719D01*
X167248300Y-63804093D01*
X167258431Y-63802795D01*
X167258436Y-63802795D01*
X167393670Y-63785471D01*
X167493041Y-63772741D01*
X167729374Y-63701838D01*
X167950954Y-63593287D01*
X168044132Y-63526824D01*
X168143512Y-63455937D01*
X168143516Y-63455934D01*
X168151829Y-63450004D01*
X168326605Y-63275837D01*
X168470588Y-63075463D01*
X168579911Y-62854264D01*
X168611514Y-62750249D01*
X168648669Y-62627956D01*
X168648669Y-62627954D01*
X168651639Y-62618180D01*
X168673748Y-62450249D01*
X168682981Y-62380114D01*
X168682981Y-62380111D01*
X168683845Y-62373550D01*
X168685643Y-62300000D01*
X168682619Y-62263214D01*
X173294806Y-62263214D01*
X173309010Y-62509545D01*
X173311257Y-62519514D01*
X173311257Y-62519517D01*
X173347167Y-62678861D01*
X173363255Y-62750249D01*
X173456084Y-62978861D01*
X173585006Y-63189241D01*
X173746557Y-63375741D01*
X173859860Y-63469807D01*
X173901158Y-63504093D01*
X173936399Y-63533351D01*
X174149433Y-63657838D01*
X174379939Y-63745859D01*
X174389950Y-63747896D01*
X174389954Y-63747897D01*
X174611713Y-63793015D01*
X174611715Y-63793015D01*
X174621726Y-63795052D01*
X174724353Y-63798815D01*
X174858087Y-63803719D01*
X174858093Y-63803719D01*
X174868300Y-63804093D01*
X174878431Y-63802795D01*
X174878436Y-63802795D01*
X175013670Y-63785471D01*
X175113041Y-63772741D01*
X175349374Y-63701838D01*
X175570954Y-63593287D01*
X175664132Y-63526824D01*
X175763512Y-63455937D01*
X175763516Y-63455934D01*
X175771829Y-63450004D01*
X175946605Y-63275837D01*
X176090588Y-63075463D01*
X176199911Y-62854264D01*
X176231514Y-62750249D01*
X176268669Y-62627956D01*
X176268669Y-62627954D01*
X176271639Y-62618180D01*
X176293748Y-62450249D01*
X176302981Y-62380114D01*
X176302981Y-62380111D01*
X176303845Y-62373550D01*
X176305643Y-62300000D01*
X176285425Y-62054089D01*
X176225316Y-61814783D01*
X176126928Y-61588507D01*
X175992905Y-61381339D01*
X175826846Y-61198842D01*
X175633210Y-61045918D01*
X175588463Y-61021216D01*
X175426143Y-60931611D01*
X175426144Y-60931611D01*
X175417198Y-60926673D01*
X175407572Y-60923264D01*
X175407567Y-60923262D01*
X175194240Y-60847719D01*
X175194238Y-60847718D01*
X175184610Y-60844309D01*
X174941694Y-60801039D01*
X174931474Y-60800914D01*
X174931472Y-60800914D01*
X174791179Y-60799200D01*
X174694972Y-60798025D01*
X174505826Y-60826968D01*
X174461166Y-60833802D01*
X174461165Y-60833802D01*
X174451070Y-60835347D01*
X174441359Y-60838521D01*
X174226250Y-60908829D01*
X174226247Y-60908830D01*
X174216540Y-60912003D01*
X173997679Y-61025935D01*
X173800364Y-61174083D01*
X173793312Y-61181463D01*
X173793307Y-61181467D01*
X173691018Y-61288507D01*
X173629896Y-61352468D01*
X173624134Y-61360915D01*
X173536117Y-61489943D01*
X173490851Y-61556300D01*
X173386965Y-61780104D01*
X173384238Y-61789939D01*
X173384236Y-61789943D01*
X173323757Y-62008022D01*
X173321026Y-62017871D01*
X173316067Y-62064271D01*
X173300542Y-62209545D01*
X173294806Y-62263214D01*
X168682619Y-62263214D01*
X168665425Y-62054089D01*
X168605316Y-61814783D01*
X168506928Y-61588507D01*
X168372905Y-61381339D01*
X168206846Y-61198842D01*
X168013210Y-61045918D01*
X167968463Y-61021216D01*
X167806143Y-60931611D01*
X167806144Y-60931611D01*
X167797198Y-60926673D01*
X167787572Y-60923264D01*
X167787567Y-60923262D01*
X167574240Y-60847719D01*
X167574238Y-60847718D01*
X167564610Y-60844309D01*
X167321694Y-60801039D01*
X167311474Y-60800914D01*
X167311472Y-60800914D01*
X167171179Y-60799200D01*
X167074972Y-60798025D01*
X166885826Y-60826968D01*
X166841166Y-60833802D01*
X166841165Y-60833802D01*
X166831070Y-60835347D01*
X166821359Y-60838521D01*
X166606250Y-60908829D01*
X166606247Y-60908830D01*
X166596540Y-60912003D01*
X166377679Y-61025935D01*
X166180364Y-61174083D01*
X166173312Y-61181463D01*
X166173307Y-61181467D01*
X166071018Y-61288507D01*
X166009896Y-61352468D01*
X166004134Y-61360915D01*
X165916117Y-61489943D01*
X165870851Y-61556300D01*
X165766965Y-61780104D01*
X165764238Y-61789939D01*
X165764236Y-61789943D01*
X165703757Y-62008022D01*
X165701026Y-62017871D01*
X165696067Y-62064271D01*
X165680542Y-62209545D01*
X165674806Y-62263214D01*
X161788876Y-62263214D01*
X161812981Y-62080114D01*
X161812981Y-62080111D01*
X161813845Y-62073550D01*
X161815643Y-62000000D01*
X161795425Y-61754089D01*
X161735316Y-61514783D01*
X161636928Y-61288507D01*
X161502905Y-61081339D01*
X161336846Y-60898842D01*
X161143210Y-60745918D01*
X161098463Y-60721216D01*
X160936143Y-60631611D01*
X160936144Y-60631611D01*
X160927198Y-60626673D01*
X160917572Y-60623264D01*
X160917567Y-60623262D01*
X160704240Y-60547719D01*
X160704238Y-60547718D01*
X160694610Y-60544309D01*
X160451694Y-60501039D01*
X160441474Y-60500914D01*
X160441472Y-60500914D01*
X160301179Y-60499200D01*
X160204972Y-60498025D01*
X160015826Y-60526968D01*
X159971166Y-60533802D01*
X159971165Y-60533802D01*
X159961070Y-60535347D01*
X159951359Y-60538521D01*
X159736250Y-60608829D01*
X159736247Y-60608830D01*
X159726540Y-60612003D01*
X159507679Y-60725935D01*
X159310364Y-60874083D01*
X159303312Y-60881463D01*
X159303307Y-60881467D01*
X159255389Y-60931611D01*
X159139896Y-61052468D01*
X159134134Y-61060915D01*
X159051899Y-61181467D01*
X159000851Y-61256300D01*
X158896965Y-61480104D01*
X158894238Y-61489939D01*
X158894236Y-61489943D01*
X158833757Y-61708022D01*
X158831026Y-61717871D01*
X158804806Y-61963214D01*
X154192619Y-61963214D01*
X154175425Y-61754089D01*
X154115316Y-61514783D01*
X154016928Y-61288507D01*
X153882905Y-61081339D01*
X153716846Y-60898842D01*
X153708829Y-60892511D01*
X153701350Y-60885536D01*
X153702670Y-60884121D01*
X153648837Y-60820982D01*
X153618893Y-60728556D01*
X153626598Y-60631707D01*
X153670779Y-60545179D01*
X153744710Y-60482145D01*
X153837136Y-60452201D01*
X153866192Y-60450500D01*
X153879860Y-60450500D01*
X153894628Y-60450938D01*
X153903560Y-60451469D01*
X153913681Y-60452909D01*
X154017022Y-60450564D01*
X154022672Y-60450500D01*
X154060463Y-60450500D01*
X154068577Y-60449833D01*
X154083328Y-60449060D01*
X154117580Y-60448282D01*
X154141924Y-60447730D01*
X154141927Y-60447730D01*
X154152138Y-60447498D01*
X154181808Y-60441892D01*
X154207626Y-60438401D01*
X154237716Y-60435927D01*
X154247632Y-60433436D01*
X154247634Y-60433436D01*
X154304447Y-60419166D01*
X154318874Y-60415994D01*
X154376464Y-60405112D01*
X154376473Y-60405109D01*
X154386510Y-60403213D01*
X154414865Y-60392837D01*
X154439766Y-60385176D01*
X154469048Y-60377821D01*
X154532165Y-60350377D01*
X154545867Y-60344896D01*
X154610500Y-60321244D01*
X154619391Y-60316214D01*
X154619397Y-60316211D01*
X154636773Y-60306380D01*
X154660095Y-60294751D01*
X154687784Y-60282712D01*
X154745580Y-60245322D01*
X154758186Y-60237687D01*
X154818096Y-60203792D01*
X154826043Y-60197380D01*
X154826050Y-60197375D01*
X154841590Y-60184836D01*
X154862698Y-60169556D01*
X154879463Y-60158710D01*
X154879466Y-60158707D01*
X154888049Y-60153155D01*
X154938949Y-60106839D01*
X154950170Y-60097222D01*
X154965333Y-60084987D01*
X154970494Y-60080823D01*
X154996185Y-60055132D01*
X155004674Y-60047034D01*
X155056915Y-59999498D01*
X155064464Y-59992629D01*
X155070792Y-59984616D01*
X155070797Y-59984611D01*
X155077132Y-59976590D01*
X155096470Y-59954847D01*
X155940705Y-59110611D01*
X155951456Y-59100479D01*
X155958146Y-59094539D01*
X155966325Y-59088398D01*
X156037714Y-59013694D01*
X156041662Y-59009654D01*
X156068412Y-58982904D01*
X156073689Y-58976682D01*
X156083554Y-58965726D01*
X156131113Y-58915958D01*
X156148126Y-58891018D01*
X156163919Y-58870287D01*
X156176835Y-58855057D01*
X156183445Y-58847263D01*
X156188771Y-58838365D01*
X156218790Y-58788206D01*
X156226750Y-58775760D01*
X156259764Y-58727364D01*
X156259766Y-58727360D01*
X156265525Y-58718918D01*
X156269827Y-58709649D01*
X156269831Y-58709643D01*
X156278237Y-58691533D01*
X156290422Y-58668518D01*
X156305934Y-58642599D01*
X156309683Y-58633082D01*
X156331156Y-58578572D01*
X156336974Y-58564996D01*
X156361647Y-58511842D01*
X156361651Y-58511832D01*
X156365949Y-58502572D01*
X156374017Y-58473478D01*
X156382284Y-58448773D01*
X156389604Y-58430191D01*
X156389606Y-58430183D01*
X156393351Y-58420677D01*
X156407777Y-58353385D01*
X156411301Y-58339037D01*
X156426960Y-58282575D01*
X156429691Y-58272728D01*
X156432900Y-58242703D01*
X156437021Y-58216976D01*
X156443349Y-58187458D01*
X156446592Y-58118694D01*
X156447723Y-58104002D01*
X156450500Y-58078014D01*
X156450500Y-58041703D01*
X156450776Y-58029973D01*
X156454104Y-57959408D01*
X156454104Y-57959406D01*
X156454585Y-57949205D01*
X156452201Y-57928911D01*
X156450500Y-57899860D01*
X156450500Y-56689007D01*
X166807000Y-56689007D01*
X166807001Y-58800992D01*
X166813671Y-58873594D01*
X166817621Y-58886197D01*
X166817621Y-58886199D01*
X166837760Y-58950462D01*
X166864373Y-59035383D01*
X166952203Y-59180408D01*
X167072092Y-59300297D01*
X167217117Y-59388127D01*
X167378906Y-59438829D01*
X167392061Y-59440038D01*
X167392062Y-59440038D01*
X167408463Y-59441545D01*
X167451507Y-59445500D01*
X167457225Y-59445500D01*
X168461147Y-59445499D01*
X169468492Y-59445499D01*
X169494421Y-59443117D01*
X169527939Y-59440038D01*
X169527943Y-59440037D01*
X169541094Y-59438829D01*
X169553697Y-59434879D01*
X169553699Y-59434879D01*
X169617962Y-59414740D01*
X169702883Y-59388127D01*
X169847908Y-59300297D01*
X169879689Y-59268516D01*
X169960471Y-59214540D01*
X170055759Y-59195586D01*
X170151047Y-59214540D01*
X170185863Y-59232280D01*
X170238892Y-59264777D01*
X170238894Y-59264778D01*
X170247233Y-59269888D01*
X170256267Y-59273630D01*
X170256271Y-59273632D01*
X170478579Y-59365714D01*
X170478581Y-59365715D01*
X170487616Y-59369457D01*
X170740614Y-59430197D01*
X171000000Y-59450611D01*
X171259386Y-59430197D01*
X171512384Y-59369457D01*
X171521419Y-59365715D01*
X171521421Y-59365714D01*
X171743729Y-59273632D01*
X171743733Y-59273630D01*
X171752767Y-59269888D01*
X171974613Y-59133940D01*
X172172462Y-58964962D01*
X172178820Y-58957518D01*
X172216445Y-58913465D01*
X172292743Y-58853317D01*
X172386250Y-58826946D01*
X172482732Y-58838365D01*
X172560110Y-58879768D01*
X172720985Y-59006819D01*
X172737946Y-59018088D01*
X172768529Y-59034971D01*
X172786891Y-59040813D01*
X172790000Y-59031043D01*
X172790000Y-59024176D01*
X174290000Y-59024176D01*
X174293760Y-59043076D01*
X174305167Y-59040807D01*
X174311867Y-59037320D01*
X174329107Y-59026463D01*
X174504818Y-58894536D01*
X174520046Y-58881015D01*
X174671843Y-58722168D01*
X174684676Y-58706320D01*
X174808491Y-58524815D01*
X174814632Y-58514005D01*
X174818392Y-58498520D01*
X174803896Y-58495000D01*
X174314527Y-58495000D01*
X174294069Y-58499069D01*
X174290000Y-58519527D01*
X174290000Y-59024176D01*
X172790000Y-59024176D01*
X172790000Y-56970473D01*
X174290000Y-56970473D01*
X174294069Y-56990931D01*
X174314527Y-56995000D01*
X174800575Y-56995000D01*
X174819475Y-56991240D01*
X174818057Y-56984110D01*
X174706652Y-56811905D01*
X174694229Y-56795773D01*
X174546352Y-56633258D01*
X174531449Y-56619361D01*
X174359015Y-56483181D01*
X174342054Y-56471912D01*
X174311471Y-56455029D01*
X174293109Y-56449187D01*
X174290000Y-56458957D01*
X174290000Y-56970473D01*
X172790000Y-56970473D01*
X172790000Y-56465824D01*
X172786240Y-56446924D01*
X172774833Y-56449193D01*
X172768133Y-56452680D01*
X172750893Y-56463537D01*
X172575188Y-56595460D01*
X172570166Y-56599919D01*
X172486326Y-56649011D01*
X172390082Y-56662282D01*
X172296085Y-56637712D01*
X172215505Y-56575434D01*
X172178821Y-56532483D01*
X172178818Y-56532480D01*
X172172462Y-56525038D01*
X171974613Y-56356060D01*
X171752767Y-56220112D01*
X171743733Y-56216370D01*
X171743729Y-56216368D01*
X171521421Y-56124286D01*
X171521419Y-56124285D01*
X171512384Y-56120543D01*
X171259386Y-56059803D01*
X171000000Y-56039389D01*
X170740614Y-56059803D01*
X170487616Y-56120543D01*
X170478581Y-56124285D01*
X170478579Y-56124286D01*
X170256271Y-56216368D01*
X170256267Y-56216370D01*
X170247233Y-56220112D01*
X170238896Y-56225221D01*
X170238892Y-56225223D01*
X170185863Y-56257720D01*
X170094714Y-56291348D01*
X169997633Y-56287535D01*
X169909402Y-56246861D01*
X169879689Y-56221484D01*
X169847908Y-56189703D01*
X169702883Y-56101873D01*
X169541094Y-56051171D01*
X169527939Y-56049962D01*
X169527938Y-56049962D01*
X169511537Y-56048455D01*
X169468493Y-56044500D01*
X169462775Y-56044500D01*
X168458853Y-56044501D01*
X167451508Y-56044501D01*
X167425579Y-56046883D01*
X167392061Y-56049962D01*
X167392057Y-56049963D01*
X167378906Y-56051171D01*
X167366303Y-56055121D01*
X167366301Y-56055121D01*
X167353812Y-56059035D01*
X167217117Y-56101873D01*
X167072092Y-56189703D01*
X166952203Y-56309592D01*
X166864373Y-56454617D01*
X166813671Y-56616406D01*
X166812462Y-56629561D01*
X166812462Y-56629562D01*
X166811713Y-56637712D01*
X166807000Y-56689007D01*
X156450500Y-56689007D01*
X156450500Y-55030021D01*
X156469454Y-54934733D01*
X156523129Y-54805149D01*
X156526873Y-54796111D01*
X156585683Y-54551148D01*
X156605449Y-54300000D01*
X156585683Y-54048852D01*
X156530679Y-53819741D01*
X156529157Y-53813401D01*
X156529156Y-53813396D01*
X156526873Y-53803889D01*
X156430466Y-53571141D01*
X156425352Y-53562795D01*
X156425349Y-53562790D01*
X156350853Y-53441225D01*
X156298836Y-53356341D01*
X156293186Y-53349725D01*
X158399500Y-53349725D01*
X158399501Y-54301078D01*
X158399501Y-55255992D01*
X158406171Y-55328594D01*
X158456873Y-55490383D01*
X158544703Y-55635408D01*
X158664592Y-55755297D01*
X158809617Y-55843127D01*
X158971406Y-55893829D01*
X158984561Y-55895038D01*
X158984562Y-55895038D01*
X159000963Y-55896545D01*
X159044007Y-55900500D01*
X159049725Y-55900500D01*
X160001087Y-55900499D01*
X160955992Y-55900499D01*
X160981921Y-55898117D01*
X161015439Y-55895038D01*
X161015443Y-55895037D01*
X161028594Y-55893829D01*
X161041197Y-55889879D01*
X161041199Y-55889879D01*
X161105462Y-55869740D01*
X161190383Y-55843127D01*
X161335408Y-55755297D01*
X161455297Y-55635408D01*
X161543127Y-55490383D01*
X161593829Y-55328594D01*
X161600500Y-55255993D01*
X161600500Y-54300000D01*
X161600499Y-53394361D01*
X175693374Y-53394361D01*
X175696955Y-53399720D01*
X175699491Y-53401735D01*
X175712286Y-53408682D01*
X175994503Y-53540582D01*
X176008422Y-53546093D01*
X176304450Y-53643136D01*
X176318912Y-53646930D01*
X176624467Y-53707708D01*
X176639277Y-53709737D01*
X176949918Y-53733367D01*
X176964876Y-53733601D01*
X177276092Y-53719741D01*
X177290968Y-53718178D01*
X177598261Y-53667030D01*
X177612873Y-53663684D01*
X177911779Y-53575994D01*
X177925872Y-53570921D01*
X178212086Y-53447954D01*
X178225466Y-53441225D01*
X178288885Y-53404388D01*
X178304529Y-53390596D01*
X178303091Y-53386397D01*
X178298669Y-53380650D01*
X177017341Y-52099321D01*
X177000000Y-52087734D01*
X176982659Y-52099321D01*
X175704961Y-53377020D01*
X175693374Y-53394361D01*
X161600499Y-53394361D01*
X161600499Y-53349713D01*
X161600499Y-53344008D01*
X161593829Y-53271406D01*
X161543127Y-53109617D01*
X161455297Y-52964592D01*
X161335408Y-52844703D01*
X161190383Y-52756873D01*
X161028594Y-52706171D01*
X161015439Y-52704962D01*
X161015438Y-52704962D01*
X160999037Y-52703455D01*
X160955993Y-52699500D01*
X160950275Y-52699500D01*
X159998913Y-52699501D01*
X159044008Y-52699501D01*
X159018079Y-52701883D01*
X158984561Y-52704962D01*
X158984557Y-52704963D01*
X158971406Y-52706171D01*
X158958803Y-52710121D01*
X158958801Y-52710121D01*
X158894538Y-52730260D01*
X158809617Y-52756873D01*
X158664592Y-52844703D01*
X158544703Y-52964592D01*
X158456873Y-53109617D01*
X158406171Y-53271406D01*
X158399500Y-53344007D01*
X158399500Y-53349725D01*
X156293186Y-53349725D01*
X156283453Y-53338329D01*
X156141580Y-53172218D01*
X156135224Y-53164776D01*
X155943659Y-53001164D01*
X155833137Y-52933436D01*
X155737210Y-52874651D01*
X155737205Y-52874648D01*
X155728859Y-52869534D01*
X155496111Y-52773127D01*
X155486604Y-52770844D01*
X155486599Y-52770843D01*
X155384145Y-52746246D01*
X155251148Y-52714317D01*
X155000000Y-52694551D01*
X154748852Y-52714317D01*
X154615855Y-52746246D01*
X154513401Y-52770843D01*
X154513396Y-52770844D01*
X154503889Y-52773127D01*
X154271141Y-52869534D01*
X154262795Y-52874648D01*
X154262790Y-52874651D01*
X154166863Y-52933436D01*
X154056341Y-53001164D01*
X153864776Y-53164776D01*
X153858420Y-53172218D01*
X153716548Y-53338329D01*
X153701164Y-53356341D01*
X153649147Y-53441225D01*
X153574651Y-53562790D01*
X153574648Y-53562795D01*
X153569534Y-53571141D01*
X153473127Y-53803889D01*
X153470844Y-53813396D01*
X153470843Y-53813401D01*
X153469321Y-53819741D01*
X153414317Y-54048852D01*
X153394551Y-54300000D01*
X153414317Y-54551148D01*
X153473127Y-54796111D01*
X153476871Y-54805149D01*
X153530546Y-54934733D01*
X153549500Y-55030021D01*
X153549500Y-57296043D01*
X153530546Y-57391331D01*
X153476570Y-57472113D01*
X153472113Y-57476570D01*
X153391331Y-57530546D01*
X153296043Y-57549500D01*
X149402957Y-57549500D01*
X149307669Y-57530546D01*
X149226887Y-57476570D01*
X149172911Y-57395788D01*
X149153957Y-57300500D01*
X149172911Y-57205212D01*
X149226887Y-57124430D01*
X150509457Y-55841860D01*
X150590239Y-55787884D01*
X150650139Y-55763073D01*
X150728859Y-55730466D01*
X150737205Y-55725352D01*
X150737210Y-55725349D01*
X150883979Y-55635408D01*
X150943659Y-55598836D01*
X150963028Y-55582294D01*
X151127782Y-55441580D01*
X151135224Y-55435224D01*
X151281306Y-55264184D01*
X151292488Y-55251092D01*
X151292490Y-55251089D01*
X151298836Y-55243659D01*
X151366564Y-55133137D01*
X151425349Y-55037210D01*
X151425352Y-55037205D01*
X151430466Y-55028859D01*
X151526873Y-54796111D01*
X151585683Y-54551148D01*
X151605449Y-54300000D01*
X151585683Y-54048852D01*
X151530679Y-53819741D01*
X151529157Y-53813401D01*
X151529156Y-53813396D01*
X151526873Y-53803889D01*
X151430466Y-53571141D01*
X151425352Y-53562795D01*
X151425349Y-53562790D01*
X151350853Y-53441225D01*
X151298836Y-53356341D01*
X151283453Y-53338329D01*
X151141580Y-53172218D01*
X151135224Y-53164776D01*
X150943659Y-53001164D01*
X150833137Y-52933436D01*
X150737210Y-52874651D01*
X150737205Y-52874648D01*
X150728859Y-52869534D01*
X150496111Y-52773127D01*
X150486604Y-52770844D01*
X150486599Y-52770843D01*
X150384145Y-52746246D01*
X150251148Y-52714317D01*
X150000000Y-52694551D01*
X149748852Y-52714317D01*
X149615855Y-52746246D01*
X149513401Y-52770843D01*
X149513396Y-52770844D01*
X149503889Y-52773127D01*
X149271141Y-52869534D01*
X149262795Y-52874648D01*
X149262790Y-52874651D01*
X149166863Y-52933436D01*
X149056341Y-53001164D01*
X148864776Y-53164776D01*
X148858420Y-53172218D01*
X148716548Y-53338329D01*
X148701164Y-53356341D01*
X148649147Y-53441225D01*
X148574651Y-53562790D01*
X148574648Y-53562795D01*
X148569534Y-53571141D01*
X148565787Y-53580188D01*
X148512115Y-53709763D01*
X148458139Y-53790545D01*
X146646720Y-55601964D01*
X146565938Y-55655940D01*
X146470650Y-55674894D01*
X146375362Y-55655940D01*
X146321343Y-55619846D01*
X146362705Y-55693702D01*
X146374126Y-55790183D01*
X146347755Y-55883691D01*
X146301963Y-55946720D01*
X144386119Y-57862564D01*
X144383954Y-57864702D01*
X144301541Y-57945125D01*
X144297333Y-57950853D01*
X144290473Y-57958210D01*
X126125070Y-76123613D01*
X126044288Y-76177589D01*
X125949000Y-76196543D01*
X125853712Y-76177589D01*
X125772930Y-76123613D01*
X125718954Y-76042831D01*
X125700000Y-75947543D01*
X125700000Y-56689007D01*
X129847000Y-56689007D01*
X129847001Y-58800992D01*
X129853671Y-58873594D01*
X129857621Y-58886197D01*
X129857621Y-58886199D01*
X129877760Y-58950462D01*
X129904373Y-59035383D01*
X129992203Y-59180408D01*
X130112092Y-59300297D01*
X130257117Y-59388127D01*
X130418906Y-59438829D01*
X130432061Y-59440038D01*
X130432062Y-59440038D01*
X130448463Y-59441545D01*
X130491507Y-59445500D01*
X130497225Y-59445500D01*
X131501147Y-59445499D01*
X132508492Y-59445499D01*
X132534421Y-59443117D01*
X132567939Y-59440038D01*
X132567943Y-59440037D01*
X132581094Y-59438829D01*
X132593697Y-59434879D01*
X132593699Y-59434879D01*
X132657962Y-59414740D01*
X132742883Y-59388127D01*
X132887908Y-59300297D01*
X132919689Y-59268516D01*
X133000471Y-59214540D01*
X133095759Y-59195586D01*
X133191047Y-59214540D01*
X133225863Y-59232280D01*
X133278892Y-59264777D01*
X133278894Y-59264778D01*
X133287233Y-59269888D01*
X133296267Y-59273630D01*
X133296271Y-59273632D01*
X133518579Y-59365714D01*
X133518581Y-59365715D01*
X133527616Y-59369457D01*
X133780614Y-59430197D01*
X134040000Y-59450611D01*
X134299386Y-59430197D01*
X134552384Y-59369457D01*
X134561419Y-59365715D01*
X134561421Y-59365714D01*
X134783729Y-59273632D01*
X134783733Y-59273630D01*
X134792767Y-59269888D01*
X135014613Y-59133940D01*
X135212462Y-58964962D01*
X135218820Y-58957518D01*
X135256445Y-58913465D01*
X135332743Y-58853317D01*
X135426250Y-58826946D01*
X135522732Y-58838365D01*
X135600110Y-58879768D01*
X135760985Y-59006819D01*
X135777946Y-59018088D01*
X135808529Y-59034971D01*
X135826891Y-59040813D01*
X135830000Y-59031043D01*
X135830000Y-59024176D01*
X137330000Y-59024176D01*
X137333760Y-59043076D01*
X137345167Y-59040807D01*
X137351867Y-59037320D01*
X137369107Y-59026463D01*
X137544818Y-58894536D01*
X137560046Y-58881015D01*
X137711843Y-58722168D01*
X137724676Y-58706320D01*
X137848491Y-58524815D01*
X137854632Y-58514005D01*
X137858392Y-58498520D01*
X137843896Y-58495000D01*
X137354527Y-58495000D01*
X137334069Y-58499069D01*
X137330000Y-58519527D01*
X137330000Y-59024176D01*
X135830000Y-59024176D01*
X135830000Y-56970473D01*
X137330000Y-56970473D01*
X137334069Y-56990931D01*
X137354527Y-56995000D01*
X137840575Y-56995000D01*
X137859475Y-56991240D01*
X137858057Y-56984110D01*
X137746652Y-56811905D01*
X137734229Y-56795773D01*
X137586352Y-56633258D01*
X137571449Y-56619361D01*
X137399015Y-56483181D01*
X137382054Y-56471912D01*
X137351471Y-56455029D01*
X137333109Y-56449187D01*
X137330000Y-56458957D01*
X137330000Y-56970473D01*
X135830000Y-56970473D01*
X135830000Y-56465824D01*
X135826240Y-56446924D01*
X135814833Y-56449193D01*
X135808133Y-56452680D01*
X135790893Y-56463537D01*
X135615188Y-56595460D01*
X135610166Y-56599919D01*
X135526326Y-56649011D01*
X135430082Y-56662282D01*
X135336085Y-56637712D01*
X135255505Y-56575434D01*
X135218821Y-56532483D01*
X135218818Y-56532480D01*
X135212462Y-56525038D01*
X135014613Y-56356060D01*
X134792767Y-56220112D01*
X134783733Y-56216370D01*
X134783729Y-56216368D01*
X134561421Y-56124286D01*
X134561419Y-56124285D01*
X134552384Y-56120543D01*
X134299386Y-56059803D01*
X134040000Y-56039389D01*
X133780614Y-56059803D01*
X133527616Y-56120543D01*
X133518581Y-56124285D01*
X133518579Y-56124286D01*
X133296271Y-56216368D01*
X133296267Y-56216370D01*
X133287233Y-56220112D01*
X133278896Y-56225221D01*
X133278892Y-56225223D01*
X133225863Y-56257720D01*
X133134714Y-56291348D01*
X133037633Y-56287535D01*
X132949402Y-56246861D01*
X132919689Y-56221484D01*
X132887908Y-56189703D01*
X132742883Y-56101873D01*
X132581094Y-56051171D01*
X132567939Y-56049962D01*
X132567938Y-56049962D01*
X132551537Y-56048455D01*
X132508493Y-56044500D01*
X132502775Y-56044500D01*
X131498853Y-56044501D01*
X130491508Y-56044501D01*
X130465579Y-56046883D01*
X130432061Y-56049962D01*
X130432057Y-56049963D01*
X130418906Y-56051171D01*
X130406303Y-56055121D01*
X130406301Y-56055121D01*
X130393812Y-56059035D01*
X130257117Y-56101873D01*
X130112092Y-56189703D01*
X129992203Y-56309592D01*
X129904373Y-56454617D01*
X129853671Y-56616406D01*
X129852462Y-56629561D01*
X129852462Y-56629562D01*
X129851713Y-56637712D01*
X129847000Y-56689007D01*
X125700000Y-56689007D01*
X125700000Y-54300000D01*
X143394551Y-54300000D01*
X143414317Y-54551148D01*
X143473127Y-54796111D01*
X143569534Y-55028859D01*
X143574648Y-55037205D01*
X143574651Y-55037210D01*
X143633436Y-55133137D01*
X143701164Y-55243659D01*
X143707510Y-55251089D01*
X143707512Y-55251092D01*
X143718694Y-55264184D01*
X143864776Y-55435224D01*
X143872218Y-55441580D01*
X144036973Y-55582294D01*
X144056341Y-55598836D01*
X144116021Y-55635408D01*
X144262790Y-55725349D01*
X144262795Y-55725352D01*
X144271141Y-55730466D01*
X144503889Y-55826873D01*
X144513396Y-55829156D01*
X144513401Y-55829157D01*
X144571592Y-55843127D01*
X144748852Y-55885683D01*
X145000000Y-55905449D01*
X145251148Y-55885683D01*
X145428408Y-55843127D01*
X145486599Y-55829157D01*
X145486604Y-55829156D01*
X145496111Y-55826873D01*
X145728859Y-55730466D01*
X145737205Y-55725352D01*
X145737210Y-55725349D01*
X145883979Y-55635408D01*
X145943659Y-55598836D01*
X145964178Y-55581311D01*
X146048945Y-55533838D01*
X146145426Y-55522417D01*
X146238934Y-55548788D01*
X146281437Y-55582294D01*
X146240604Y-55521182D01*
X146221650Y-55425894D01*
X146240604Y-55330606D01*
X146281307Y-55264184D01*
X146292484Y-55251097D01*
X146292488Y-55251092D01*
X146298836Y-55243659D01*
X146366564Y-55133137D01*
X146425349Y-55037210D01*
X146425352Y-55037205D01*
X146430466Y-55028859D01*
X146526873Y-54796111D01*
X146585683Y-54551148D01*
X146605449Y-54300000D01*
X146585683Y-54048852D01*
X146530679Y-53819741D01*
X146529157Y-53813401D01*
X146529156Y-53813396D01*
X146526873Y-53803889D01*
X146430466Y-53571141D01*
X146425352Y-53562795D01*
X146425349Y-53562790D01*
X146350853Y-53441225D01*
X146298836Y-53356341D01*
X146283453Y-53338329D01*
X146141580Y-53172218D01*
X146135224Y-53164776D01*
X145943659Y-53001164D01*
X145833137Y-52933436D01*
X145737210Y-52874651D01*
X145737205Y-52874648D01*
X145728859Y-52869534D01*
X145496111Y-52773127D01*
X145486604Y-52770844D01*
X145486599Y-52770843D01*
X145384145Y-52746246D01*
X145251148Y-52714317D01*
X145000000Y-52694551D01*
X144748852Y-52714317D01*
X144615855Y-52746246D01*
X144513401Y-52770843D01*
X144513396Y-52770844D01*
X144503889Y-52773127D01*
X144271141Y-52869534D01*
X144262795Y-52874648D01*
X144262790Y-52874651D01*
X144166863Y-52933436D01*
X144056341Y-53001164D01*
X143864776Y-53164776D01*
X143858420Y-53172218D01*
X143716548Y-53338329D01*
X143701164Y-53356341D01*
X143649147Y-53441225D01*
X143574651Y-53562790D01*
X143574648Y-53562795D01*
X143569534Y-53571141D01*
X143473127Y-53803889D01*
X143470844Y-53813396D01*
X143470843Y-53813401D01*
X143469321Y-53819741D01*
X143414317Y-54048852D01*
X143394551Y-54300000D01*
X125700000Y-54300000D01*
X125700000Y-53494361D01*
X126693374Y-53494361D01*
X126696955Y-53499720D01*
X126699491Y-53501735D01*
X126712286Y-53508682D01*
X126994503Y-53640582D01*
X127008422Y-53646093D01*
X127304450Y-53743136D01*
X127318912Y-53746930D01*
X127624467Y-53807708D01*
X127639277Y-53809737D01*
X127949918Y-53833367D01*
X127964876Y-53833601D01*
X128276092Y-53819741D01*
X128290968Y-53818178D01*
X128598261Y-53767030D01*
X128612873Y-53763684D01*
X128911779Y-53675994D01*
X128925872Y-53670921D01*
X129212086Y-53547954D01*
X129225466Y-53541225D01*
X129288885Y-53504388D01*
X129304529Y-53490596D01*
X129303091Y-53486397D01*
X129298669Y-53480650D01*
X128017341Y-52199321D01*
X128000000Y-52187734D01*
X127982659Y-52199321D01*
X126704961Y-53477020D01*
X126693374Y-53494361D01*
X125700000Y-53494361D01*
X125700000Y-52463799D01*
X125718954Y-52368511D01*
X125772930Y-52287729D01*
X126939340Y-51121320D01*
X129066414Y-51121320D01*
X129078001Y-51138661D01*
X130356267Y-52416926D01*
X130373608Y-52428513D01*
X130378561Y-52425203D01*
X130380583Y-52421525D01*
X130513961Y-52139996D01*
X130519548Y-52126098D01*
X130618135Y-51830597D01*
X130622009Y-51816140D01*
X130684383Y-51510929D01*
X130686494Y-51496094D01*
X130711997Y-51182543D01*
X130712401Y-51173715D01*
X130712904Y-51125720D01*
X130712686Y-51116936D01*
X130705660Y-51000396D01*
X174287572Y-51000396D01*
X174303061Y-51311532D01*
X174304704Y-51326413D01*
X174357459Y-51633432D01*
X174360880Y-51648016D01*
X174450135Y-51946467D01*
X174455279Y-51960525D01*
X174579751Y-52246108D01*
X174586537Y-52259426D01*
X174616571Y-52310517D01*
X174630446Y-52326089D01*
X174634953Y-52324520D01*
X174640193Y-52320466D01*
X175921999Y-51038661D01*
X175933586Y-51021320D01*
X175921999Y-51003979D01*
X174644814Y-49726795D01*
X174627473Y-49715208D01*
X174622393Y-49718603D01*
X174619853Y-49721816D01*
X174613001Y-49732932D01*
X174605930Y-49746119D01*
X174475506Y-50029031D01*
X174470070Y-50042973D01*
X174374579Y-50339503D01*
X174370859Y-50353995D01*
X174311682Y-50659858D01*
X174309731Y-50674683D01*
X174287728Y-50985434D01*
X174287572Y-51000396D01*
X130705660Y-51000396D01*
X130693752Y-50802882D01*
X130691952Y-50788011D01*
X130635988Y-50481580D01*
X130632413Y-50467022D01*
X130540036Y-50169519D01*
X130534747Y-50155521D01*
X130407288Y-49871251D01*
X130400366Y-49858010D01*
X130384307Y-49831335D01*
X130370269Y-49815909D01*
X130365148Y-49817753D01*
X130360930Y-49821051D01*
X129078001Y-51103979D01*
X129066414Y-51121320D01*
X126939340Y-51121320D01*
X128000000Y-50060660D01*
X129287729Y-48772930D01*
X129368511Y-48718954D01*
X129463799Y-48700000D01*
X175636201Y-48700000D01*
X175731489Y-48718954D01*
G37*
%TD.AperFunction*%
%TD*%
M02*
