%TF.GenerationSoftware,KiCad,Pcbnew,(6.0.1)*%
%TF.CreationDate,2022-04-27T15:56:50+10:00*%
%TF.ProjectId,bellerophon,62656c6c-6572-46f7-9068-6f6e2e6b6963,rev?*%
%TF.SameCoordinates,Original*%
%TF.FileFunction,Legend,Top*%
%TF.FilePolarity,Positive*%
%FSLAX46Y46*%
G04 Gerber Fmt 4.6, Leading zero omitted, Abs format (unit mm)*
G04 Created by KiCad (PCBNEW (6.0.1)) date 2022-04-27 15:56:50*
%MOMM*%
%LPD*%
G01*
G04 APERTURE LIST*
%ADD10C,0.300000*%
%ADD11C,0.250000*%
%ADD12C,0.200000*%
%ADD13C,0.150000*%
%ADD14C,0.120000*%
%ADD15C,0.100000*%
G04 APERTURE END LIST*
D10*
X149238095Y-49042857D02*
X150761904Y-49042857D01*
X150000000Y-49804761D02*
X150000000Y-48280952D01*
X138561904Y-133557142D02*
X138847619Y-133652380D01*
X138942857Y-133747619D01*
X139038095Y-133938095D01*
X139038095Y-134223809D01*
X138942857Y-134414285D01*
X138847619Y-134509523D01*
X138657142Y-134604761D01*
X137895238Y-134604761D01*
X137895238Y-132604761D01*
X138561904Y-132604761D01*
X138752380Y-132700000D01*
X138847619Y-132795238D01*
X138942857Y-132985714D01*
X138942857Y-133176190D01*
X138847619Y-133366666D01*
X138752380Y-133461904D01*
X138561904Y-133557142D01*
X137895238Y-133557142D01*
X139800000Y-134033333D02*
X140752380Y-134033333D01*
X139609523Y-134604761D02*
X140276190Y-132604761D01*
X140942857Y-134604761D01*
X141323809Y-132604761D02*
X142466666Y-132604761D01*
X141895238Y-134604761D02*
X141895238Y-132604761D01*
X142847619Y-132604761D02*
X143990476Y-132604761D01*
X143419047Y-134604761D02*
X143419047Y-132604761D01*
X154213095Y-49042857D02*
X155736904Y-49042857D01*
X154975000Y-49804761D02*
X154975000Y-48280952D01*
X132438095Y-144842857D02*
X133961904Y-144842857D01*
X133200000Y-145604761D02*
X133200000Y-144080952D01*
X154438095Y-145142857D02*
X155961904Y-145142857D01*
X157595238Y-113544761D02*
X157595238Y-111544761D01*
X159690476Y-113354285D02*
X159595238Y-113449523D01*
X159309523Y-113544761D01*
X159119047Y-113544761D01*
X158833333Y-113449523D01*
X158642857Y-113259047D01*
X158547619Y-113068571D01*
X158452380Y-112687619D01*
X158452380Y-112401904D01*
X158547619Y-112020952D01*
X158642857Y-111830476D01*
X158833333Y-111640000D01*
X159119047Y-111544761D01*
X159309523Y-111544761D01*
X159595238Y-111640000D01*
X159690476Y-111735238D01*
X160547619Y-113544761D02*
X160547619Y-111544761D01*
X161214285Y-112973333D01*
X161880952Y-111544761D01*
X161880952Y-113544761D01*
X162738095Y-111735238D02*
X162833333Y-111640000D01*
X163023809Y-111544761D01*
X163500000Y-111544761D01*
X163690476Y-111640000D01*
X163785714Y-111735238D01*
X163880952Y-111925714D01*
X163880952Y-112116190D01*
X163785714Y-112401904D01*
X162642857Y-113544761D01*
X163880952Y-113544761D01*
X165119047Y-111544761D02*
X165309523Y-111544761D01*
X165500000Y-111640000D01*
X165595238Y-111735238D01*
X165690476Y-111925714D01*
X165785714Y-112306666D01*
X165785714Y-112782857D01*
X165690476Y-113163809D01*
X165595238Y-113354285D01*
X165500000Y-113449523D01*
X165309523Y-113544761D01*
X165119047Y-113544761D01*
X164928571Y-113449523D01*
X164833333Y-113354285D01*
X164738095Y-113163809D01*
X164642857Y-112782857D01*
X164642857Y-112306666D01*
X164738095Y-111925714D01*
X164833333Y-111735238D01*
X164928571Y-111640000D01*
X165119047Y-111544761D01*
X166738095Y-113544761D02*
X167119047Y-113544761D01*
X167309523Y-113449523D01*
X167404761Y-113354285D01*
X167595238Y-113068571D01*
X167690476Y-112687619D01*
X167690476Y-111925714D01*
X167595238Y-111735238D01*
X167500000Y-111640000D01*
X167309523Y-111544761D01*
X166928571Y-111544761D01*
X166738095Y-111640000D01*
X166642857Y-111735238D01*
X166547619Y-111925714D01*
X166547619Y-112401904D01*
X166642857Y-112592380D01*
X166738095Y-112687619D01*
X166928571Y-112782857D01*
X167309523Y-112782857D01*
X167500000Y-112687619D01*
X167595238Y-112592380D01*
X167690476Y-112401904D01*
X169404761Y-112211428D02*
X169404761Y-113544761D01*
X168928571Y-111449523D02*
X168452380Y-112878095D01*
X169690476Y-112878095D01*
X170738095Y-112401904D02*
X170547619Y-112306666D01*
X170452380Y-112211428D01*
X170357142Y-112020952D01*
X170357142Y-111925714D01*
X170452380Y-111735238D01*
X170547619Y-111640000D01*
X170738095Y-111544761D01*
X171119047Y-111544761D01*
X171309523Y-111640000D01*
X171404761Y-111735238D01*
X171500000Y-111925714D01*
X171500000Y-112020952D01*
X171404761Y-112211428D01*
X171309523Y-112306666D01*
X171119047Y-112401904D01*
X170738095Y-112401904D01*
X170547619Y-112497142D01*
X170452380Y-112592380D01*
X170357142Y-112782857D01*
X170357142Y-113163809D01*
X170452380Y-113354285D01*
X170547619Y-113449523D01*
X170738095Y-113544761D01*
X171119047Y-113544761D01*
X171309523Y-113449523D01*
X171404761Y-113354285D01*
X171500000Y-113163809D01*
X171500000Y-112782857D01*
X171404761Y-112592380D01*
X171309523Y-112497142D01*
X171119047Y-112401904D01*
X159338095Y-49042857D02*
X160861904Y-49042857D01*
X144238095Y-49042857D02*
X145761904Y-49042857D01*
X159528571Y-127507142D02*
X160671428Y-127507142D01*
X160100000Y-128078571D02*
X160100000Y-126935714D01*
X130869047Y-114019047D02*
X130869047Y-112319047D01*
X131435714Y-113533333D01*
X132002380Y-112319047D01*
X132002380Y-114019047D01*
X132811904Y-114019047D02*
X132811904Y-112319047D01*
X133459523Y-112319047D01*
X133621428Y-112400000D01*
X133702380Y-112480952D01*
X133783333Y-112642857D01*
X133783333Y-112885714D01*
X133702380Y-113047619D01*
X133621428Y-113128571D01*
X133459523Y-113209523D01*
X132811904Y-113209523D01*
X135321428Y-114019047D02*
X134511904Y-114019047D01*
X134511904Y-112319047D01*
X135726190Y-112319047D02*
X136778571Y-112319047D01*
X136211904Y-112966666D01*
X136454761Y-112966666D01*
X136616666Y-113047619D01*
X136697619Y-113128571D01*
X136778571Y-113290476D01*
X136778571Y-113695238D01*
X136697619Y-113857142D01*
X136616666Y-113938095D01*
X136454761Y-114019047D01*
X135969047Y-114019047D01*
X135807142Y-113938095D01*
X135726190Y-113857142D01*
X138397619Y-114019047D02*
X137426190Y-114019047D01*
X137911904Y-114019047D02*
X137911904Y-112319047D01*
X137750000Y-112561904D01*
X137588095Y-112723809D01*
X137426190Y-112804761D01*
X140016666Y-114019047D02*
X139045238Y-114019047D01*
X139530952Y-114019047D02*
X139530952Y-112319047D01*
X139369047Y-112561904D01*
X139207142Y-112723809D01*
X139045238Y-112804761D01*
X141554761Y-112319047D02*
X140745238Y-112319047D01*
X140664285Y-113128571D01*
X140745238Y-113047619D01*
X140907142Y-112966666D01*
X141311904Y-112966666D01*
X141473809Y-113047619D01*
X141554761Y-113128571D01*
X141635714Y-113290476D01*
X141635714Y-113695238D01*
X141554761Y-113857142D01*
X141473809Y-113938095D01*
X141311904Y-114019047D01*
X140907142Y-114019047D01*
X140745238Y-113938095D01*
X140664285Y-113857142D01*
X142283333Y-113533333D02*
X143092857Y-113533333D01*
X142121428Y-114019047D02*
X142688095Y-112319047D01*
X143254761Y-114019047D01*
X143740476Y-112480952D02*
X143821428Y-112400000D01*
X143983333Y-112319047D01*
X144388095Y-112319047D01*
X144550000Y-112400000D01*
X144630952Y-112480952D01*
X144711904Y-112642857D01*
X144711904Y-112804761D01*
X144630952Y-113047619D01*
X143659523Y-114019047D01*
X144711904Y-114019047D01*
X133528571Y-130407142D02*
X134671428Y-130407142D01*
X134100000Y-130978571D02*
X134100000Y-129835714D01*
X137488095Y-144842857D02*
X139011904Y-144842857D01*
X142513095Y-144842857D02*
X144036904Y-144842857D01*
X143275000Y-145604761D02*
X143275000Y-144080952D01*
X147638095Y-144842857D02*
X149161904Y-144842857D01*
D11*
X164878571Y-58471428D02*
X163378571Y-58471428D01*
X163378571Y-57900000D01*
X163450000Y-57757142D01*
X163521428Y-57685714D01*
X163664285Y-57614285D01*
X163878571Y-57614285D01*
X164021428Y-57685714D01*
X164092857Y-57757142D01*
X164164285Y-57900000D01*
X164164285Y-58471428D01*
X164164285Y-56685714D02*
X164878571Y-56685714D01*
X163378571Y-57185714D02*
X164164285Y-56685714D01*
X163378571Y-56185714D01*
X164878571Y-54828571D02*
X164164285Y-55328571D01*
X164878571Y-55685714D02*
X163378571Y-55685714D01*
X163378571Y-55114285D01*
X163450000Y-54971428D01*
X163521428Y-54900000D01*
X163664285Y-54828571D01*
X163878571Y-54828571D01*
X164021428Y-54900000D01*
X164092857Y-54971428D01*
X164164285Y-55114285D01*
X164164285Y-55685714D01*
X163378571Y-53900000D02*
X163378571Y-53614285D01*
X163450000Y-53471428D01*
X163592857Y-53328571D01*
X163878571Y-53257142D01*
X164378571Y-53257142D01*
X164664285Y-53328571D01*
X164807142Y-53471428D01*
X164878571Y-53614285D01*
X164878571Y-53900000D01*
X164807142Y-54042857D01*
X164664285Y-54185714D01*
X164378571Y-54257142D01*
X163878571Y-54257142D01*
X163592857Y-54185714D01*
X163450000Y-54042857D01*
X163378571Y-53900000D01*
D10*
X130166666Y-71309523D02*
X130452380Y-71404761D01*
X130928571Y-71404761D01*
X131119047Y-71309523D01*
X131214285Y-71214285D01*
X131309523Y-71023809D01*
X131309523Y-70833333D01*
X131214285Y-70642857D01*
X131119047Y-70547619D01*
X130928571Y-70452380D01*
X130547619Y-70357142D01*
X130357142Y-70261904D01*
X130261904Y-70166666D01*
X130166666Y-69976190D01*
X130166666Y-69785714D01*
X130261904Y-69595238D01*
X130357142Y-69500000D01*
X130547619Y-69404761D01*
X131023809Y-69404761D01*
X131309523Y-69500000D01*
X132166666Y-71404761D02*
X132166666Y-69404761D01*
X132928571Y-69404761D01*
X133119047Y-69500000D01*
X133214285Y-69595238D01*
X133309523Y-69785714D01*
X133309523Y-70071428D01*
X133214285Y-70261904D01*
X133119047Y-70357142D01*
X132928571Y-70452380D01*
X132166666Y-70452380D01*
X134166666Y-71404761D02*
X134166666Y-69404761D01*
X137309523Y-70357142D02*
X136642857Y-70357142D01*
X136642857Y-71404761D02*
X136642857Y-69404761D01*
X137595238Y-69404761D01*
X139309523Y-71404761D02*
X138357142Y-71404761D01*
X138357142Y-69404761D01*
X139880952Y-70833333D02*
X140833333Y-70833333D01*
X139690476Y-71404761D02*
X140357142Y-69404761D01*
X141023809Y-71404761D01*
X141595238Y-71309523D02*
X141880952Y-71404761D01*
X142357142Y-71404761D01*
X142547619Y-71309523D01*
X142642857Y-71214285D01*
X142738095Y-71023809D01*
X142738095Y-70833333D01*
X142642857Y-70642857D01*
X142547619Y-70547619D01*
X142357142Y-70452380D01*
X141976190Y-70357142D01*
X141785714Y-70261904D01*
X141690476Y-70166666D01*
X141595238Y-69976190D01*
X141595238Y-69785714D01*
X141690476Y-69595238D01*
X141785714Y-69500000D01*
X141976190Y-69404761D01*
X142452380Y-69404761D01*
X142738095Y-69500000D01*
X143595238Y-71404761D02*
X143595238Y-69404761D01*
X143595238Y-70357142D02*
X144738095Y-70357142D01*
X144738095Y-71404761D02*
X144738095Y-69404761D01*
X152700000Y-134009523D02*
X152985714Y-134104761D01*
X153461904Y-134104761D01*
X153652380Y-134009523D01*
X153747619Y-133914285D01*
X153842857Y-133723809D01*
X153842857Y-133533333D01*
X153747619Y-133342857D01*
X153652380Y-133247619D01*
X153461904Y-133152380D01*
X153080952Y-133057142D01*
X152890476Y-132961904D01*
X152795238Y-132866666D01*
X152700000Y-132676190D01*
X152700000Y-132485714D01*
X152795238Y-132295238D01*
X152890476Y-132200000D01*
X153080952Y-132104761D01*
X153557142Y-132104761D01*
X153842857Y-132200000D01*
X154509523Y-132104761D02*
X154985714Y-134104761D01*
X155366666Y-132676190D01*
X155747619Y-134104761D01*
X156223809Y-132104761D01*
X156985714Y-134104761D02*
X156985714Y-132104761D01*
X157652380Y-132104761D02*
X158795238Y-132104761D01*
X158223809Y-134104761D02*
X158223809Y-132104761D01*
X160604761Y-133914285D02*
X160509523Y-134009523D01*
X160223809Y-134104761D01*
X160033333Y-134104761D01*
X159747619Y-134009523D01*
X159557142Y-133819047D01*
X159461904Y-133628571D01*
X159366666Y-133247619D01*
X159366666Y-132961904D01*
X159461904Y-132580952D01*
X159557142Y-132390476D01*
X159747619Y-132200000D01*
X160033333Y-132104761D01*
X160223809Y-132104761D01*
X160509523Y-132200000D01*
X160604761Y-132295238D01*
X161461904Y-134104761D02*
X161461904Y-132104761D01*
X161461904Y-133057142D02*
X162604761Y-133057142D01*
X162604761Y-134104761D02*
X162604761Y-132104761D01*
X159628571Y-145107142D02*
X160771428Y-145107142D01*
X160200000Y-145678571D02*
X160200000Y-144535714D01*
D12*
X167288095Y-97847619D02*
X167288095Y-97104761D01*
X168588095Y-97476190D02*
X167288095Y-97476190D01*
X167907142Y-96671428D02*
X167907142Y-96238095D01*
X168588095Y-96052380D02*
X168588095Y-96671428D01*
X167288095Y-96671428D01*
X167288095Y-96052380D01*
X167907142Y-95495238D02*
X167907142Y-95061904D01*
X168588095Y-94876190D02*
X168588095Y-95495238D01*
X167288095Y-95495238D01*
X167288095Y-94876190D01*
X168588095Y-94319047D02*
X167288095Y-94319047D01*
X168588095Y-93576190D01*
X167288095Y-93576190D01*
X168526190Y-93019047D02*
X168588095Y-92833333D01*
X168588095Y-92523809D01*
X168526190Y-92400000D01*
X168464285Y-92338095D01*
X168340476Y-92276190D01*
X168216666Y-92276190D01*
X168092857Y-92338095D01*
X168030952Y-92400000D01*
X167969047Y-92523809D01*
X167907142Y-92771428D01*
X167845238Y-92895238D01*
X167783333Y-92957142D01*
X167659523Y-93019047D01*
X167535714Y-93019047D01*
X167411904Y-92957142D01*
X167350000Y-92895238D01*
X167288095Y-92771428D01*
X167288095Y-92461904D01*
X167350000Y-92276190D01*
X167969047Y-91471428D02*
X168588095Y-91471428D01*
X167288095Y-91904761D02*
X167969047Y-91471428D01*
X167288095Y-91038095D01*
X167721428Y-89057142D02*
X168588095Y-89057142D01*
X167226190Y-89366666D02*
X168154761Y-89676190D01*
X168154761Y-88871428D01*
X168464285Y-88376190D02*
X168526190Y-88314285D01*
X168588095Y-88376190D01*
X168526190Y-88438095D01*
X168464285Y-88376190D01*
X168588095Y-88376190D01*
X167288095Y-87509523D02*
X167288095Y-87385714D01*
X167350000Y-87261904D01*
X167411904Y-87200000D01*
X167535714Y-87138095D01*
X167783333Y-87076190D01*
X168092857Y-87076190D01*
X168340476Y-87138095D01*
X168464285Y-87200000D01*
X168526190Y-87261904D01*
X168588095Y-87385714D01*
X168588095Y-87509523D01*
X168526190Y-87633333D01*
X168464285Y-87695238D01*
X168340476Y-87757142D01*
X168092857Y-87819047D01*
X167783333Y-87819047D01*
X167535714Y-87757142D01*
X167411904Y-87695238D01*
X167350000Y-87633333D01*
X167288095Y-87509523D01*
D13*
%TO.C,D2*%
X175752380Y-135263095D02*
X174752380Y-135263095D01*
X174752380Y-135025000D01*
X174800000Y-134882142D01*
X174895238Y-134786904D01*
X174990476Y-134739285D01*
X175180952Y-134691666D01*
X175323809Y-134691666D01*
X175514285Y-134739285D01*
X175609523Y-134786904D01*
X175704761Y-134882142D01*
X175752380Y-135025000D01*
X175752380Y-135263095D01*
X174847619Y-134310714D02*
X174800000Y-134263095D01*
X174752380Y-134167857D01*
X174752380Y-133929761D01*
X174800000Y-133834523D01*
X174847619Y-133786904D01*
X174942857Y-133739285D01*
X175038095Y-133739285D01*
X175180952Y-133786904D01*
X175752380Y-134358333D01*
X175752380Y-133739285D01*
X168152380Y-142101904D02*
X167152380Y-142101904D01*
X168152380Y-141530476D02*
X167580952Y-141959047D01*
X167152380Y-141530476D02*
X167723809Y-142101904D01*
%TO.C,R6*%
X150333333Y-66852380D02*
X150000000Y-66376190D01*
X149761904Y-66852380D02*
X149761904Y-65852380D01*
X150142857Y-65852380D01*
X150238095Y-65900000D01*
X150285714Y-65947619D01*
X150333333Y-66042857D01*
X150333333Y-66185714D01*
X150285714Y-66280952D01*
X150238095Y-66328571D01*
X150142857Y-66376190D01*
X149761904Y-66376190D01*
X151190476Y-65852380D02*
X151000000Y-65852380D01*
X150904761Y-65900000D01*
X150857142Y-65947619D01*
X150761904Y-66090476D01*
X150714285Y-66280952D01*
X150714285Y-66661904D01*
X150761904Y-66757142D01*
X150809523Y-66804761D01*
X150904761Y-66852380D01*
X151095238Y-66852380D01*
X151190476Y-66804761D01*
X151238095Y-66757142D01*
X151285714Y-66661904D01*
X151285714Y-66423809D01*
X151238095Y-66328571D01*
X151190476Y-66280952D01*
X151095238Y-66233333D01*
X150904761Y-66233333D01*
X150809523Y-66280952D01*
X150761904Y-66328571D01*
X150714285Y-66423809D01*
%TO.C,D1*%
X127761904Y-90152380D02*
X127761904Y-89152380D01*
X128000000Y-89152380D01*
X128142857Y-89200000D01*
X128238095Y-89295238D01*
X128285714Y-89390476D01*
X128333333Y-89580952D01*
X128333333Y-89723809D01*
X128285714Y-89914285D01*
X128238095Y-90009523D01*
X128142857Y-90104761D01*
X128000000Y-90152380D01*
X127761904Y-90152380D01*
X129285714Y-90152380D02*
X128714285Y-90152380D01*
X129000000Y-90152380D02*
X129000000Y-89152380D01*
X128904761Y-89295238D01*
X128809523Y-89390476D01*
X128714285Y-89438095D01*
%TO.C,R3*%
X126733333Y-83852380D02*
X126400000Y-83376190D01*
X126161904Y-83852380D02*
X126161904Y-82852380D01*
X126542857Y-82852380D01*
X126638095Y-82900000D01*
X126685714Y-82947619D01*
X126733333Y-83042857D01*
X126733333Y-83185714D01*
X126685714Y-83280952D01*
X126638095Y-83328571D01*
X126542857Y-83376190D01*
X126161904Y-83376190D01*
X127066666Y-82852380D02*
X127685714Y-82852380D01*
X127352380Y-83233333D01*
X127495238Y-83233333D01*
X127590476Y-83280952D01*
X127638095Y-83328571D01*
X127685714Y-83423809D01*
X127685714Y-83661904D01*
X127638095Y-83757142D01*
X127590476Y-83804761D01*
X127495238Y-83852380D01*
X127209523Y-83852380D01*
X127114285Y-83804761D01*
X127066666Y-83757142D01*
%TO.C,R7*%
X150433333Y-62652380D02*
X150100000Y-62176190D01*
X149861904Y-62652380D02*
X149861904Y-61652380D01*
X150242857Y-61652380D01*
X150338095Y-61700000D01*
X150385714Y-61747619D01*
X150433333Y-61842857D01*
X150433333Y-61985714D01*
X150385714Y-62080952D01*
X150338095Y-62128571D01*
X150242857Y-62176190D01*
X149861904Y-62176190D01*
X150766666Y-61652380D02*
X151433333Y-61652380D01*
X151004761Y-62652380D01*
%TO.C,C1*%
X156933333Y-123357142D02*
X156885714Y-123404761D01*
X156742857Y-123452380D01*
X156647619Y-123452380D01*
X156504761Y-123404761D01*
X156409523Y-123309523D01*
X156361904Y-123214285D01*
X156314285Y-123023809D01*
X156314285Y-122880952D01*
X156361904Y-122690476D01*
X156409523Y-122595238D01*
X156504761Y-122500000D01*
X156647619Y-122452380D01*
X156742857Y-122452380D01*
X156885714Y-122500000D01*
X156933333Y-122547619D01*
X157885714Y-123452380D02*
X157314285Y-123452380D01*
X157600000Y-123452380D02*
X157600000Y-122452380D01*
X157504761Y-122595238D01*
X157409523Y-122690476D01*
X157314285Y-122738095D01*
%TO.C,BZ1*%
X152309047Y-73031428D02*
X153070952Y-73031428D01*
X152690000Y-73412380D02*
X152690000Y-72650476D01*
%TO.C,BZ2*%
X166309047Y-73031428D02*
X167070952Y-73031428D01*
X166690000Y-73412380D02*
X166690000Y-72650476D01*
%TO.C,R2*%
X126733333Y-101152380D02*
X126400000Y-100676190D01*
X126161904Y-101152380D02*
X126161904Y-100152380D01*
X126542857Y-100152380D01*
X126638095Y-100200000D01*
X126685714Y-100247619D01*
X126733333Y-100342857D01*
X126733333Y-100485714D01*
X126685714Y-100580952D01*
X126638095Y-100628571D01*
X126542857Y-100676190D01*
X126161904Y-100676190D01*
X127114285Y-100247619D02*
X127161904Y-100200000D01*
X127257142Y-100152380D01*
X127495238Y-100152380D01*
X127590476Y-100200000D01*
X127638095Y-100247619D01*
X127685714Y-100342857D01*
X127685714Y-100438095D01*
X127638095Y-100580952D01*
X127066666Y-101152380D01*
X127685714Y-101152380D01*
%TO.C,R1*%
X126833333Y-96452380D02*
X126500000Y-95976190D01*
X126261904Y-96452380D02*
X126261904Y-95452380D01*
X126642857Y-95452380D01*
X126738095Y-95500000D01*
X126785714Y-95547619D01*
X126833333Y-95642857D01*
X126833333Y-95785714D01*
X126785714Y-95880952D01*
X126738095Y-95928571D01*
X126642857Y-95976190D01*
X126261904Y-95976190D01*
X127785714Y-96452380D02*
X127214285Y-96452380D01*
X127500000Y-96452380D02*
X127500000Y-95452380D01*
X127404761Y-95595238D01*
X127309523Y-95690476D01*
X127214285Y-95738095D01*
%TO.C,R4*%
X176933333Y-67052380D02*
X176600000Y-66576190D01*
X176361904Y-67052380D02*
X176361904Y-66052380D01*
X176742857Y-66052380D01*
X176838095Y-66100000D01*
X176885714Y-66147619D01*
X176933333Y-66242857D01*
X176933333Y-66385714D01*
X176885714Y-66480952D01*
X176838095Y-66528571D01*
X176742857Y-66576190D01*
X176361904Y-66576190D01*
X177790476Y-66385714D02*
X177790476Y-67052380D01*
X177552380Y-66004761D02*
X177314285Y-66719047D01*
X177933333Y-66719047D01*
%TO.C,U2*%
X159003666Y-93700000D02*
X158303666Y-93700000D01*
X158303666Y-93533333D01*
X158337000Y-93433333D01*
X158403666Y-93366666D01*
X158470333Y-93333333D01*
X158603666Y-93300000D01*
X158703666Y-93300000D01*
X158837000Y-93333333D01*
X158903666Y-93366666D01*
X158970333Y-93433333D01*
X159003666Y-93533333D01*
X159003666Y-93700000D01*
X158303666Y-93100000D02*
X159003666Y-92866666D01*
X158303666Y-92633333D01*
X159003666Y-92066666D02*
X159003666Y-92400000D01*
X158303666Y-92400000D01*
X158303666Y-91533333D02*
X158303666Y-91666666D01*
X158337000Y-91733333D01*
X158370333Y-91766666D01*
X158470333Y-91833333D01*
X158603666Y-91866666D01*
X158870333Y-91866666D01*
X158937000Y-91833333D01*
X158970333Y-91800000D01*
X159003666Y-91733333D01*
X159003666Y-91600000D01*
X158970333Y-91533333D01*
X158937000Y-91500000D01*
X158870333Y-91466666D01*
X158703666Y-91466666D01*
X158637000Y-91500000D01*
X158603666Y-91533333D01*
X158570333Y-91600000D01*
X158570333Y-91733333D01*
X158603666Y-91800000D01*
X158637000Y-91833333D01*
X158703666Y-91866666D01*
X158803666Y-91200000D02*
X158803666Y-90866666D01*
X159003666Y-91266666D02*
X158303666Y-91033333D01*
X159003666Y-90800000D01*
X160527666Y-95383333D02*
X159827666Y-95383333D01*
X160327666Y-95150000D01*
X159827666Y-94916666D01*
X160527666Y-94916666D01*
X160527666Y-94583333D02*
X159827666Y-94583333D01*
X160527666Y-94250000D02*
X159827666Y-94250000D01*
X160327666Y-94016666D01*
X159827666Y-93783333D01*
X160527666Y-93783333D01*
X159827666Y-93516666D02*
X160527666Y-93050000D01*
X159827666Y-93050000D02*
X160527666Y-93516666D01*
X160527666Y-92383333D02*
X160194333Y-92616666D01*
X160527666Y-92783333D02*
X159827666Y-92783333D01*
X159827666Y-92516666D01*
X159861000Y-92450000D01*
X159894333Y-92416666D01*
X159961000Y-92383333D01*
X160061000Y-92383333D01*
X160127666Y-92416666D01*
X160161000Y-92450000D01*
X160194333Y-92516666D01*
X160194333Y-92783333D01*
X159827666Y-92183333D02*
X159827666Y-91783333D01*
X160527666Y-91983333D02*
X159827666Y-91983333D01*
X160527666Y-91183333D02*
X160527666Y-91583333D01*
X160527666Y-91383333D02*
X159827666Y-91383333D01*
X159927666Y-91450000D01*
X159994333Y-91516666D01*
X160027666Y-91583333D01*
X159827666Y-90750000D02*
X159827666Y-90683333D01*
X159861000Y-90616666D01*
X159894333Y-90583333D01*
X159961000Y-90550000D01*
X160094333Y-90516666D01*
X160261000Y-90516666D01*
X160394333Y-90550000D01*
X160461000Y-90583333D01*
X160494333Y-90616666D01*
X160527666Y-90683333D01*
X160527666Y-90750000D01*
X160494333Y-90816666D01*
X160461000Y-90850000D01*
X160394333Y-90883333D01*
X160261000Y-90916666D01*
X160094333Y-90916666D01*
X159961000Y-90883333D01*
X159894333Y-90850000D01*
X159861000Y-90816666D01*
X159827666Y-90750000D01*
X159827666Y-89916666D02*
X159827666Y-90050000D01*
X159861000Y-90116666D01*
X159894333Y-90150000D01*
X159994333Y-90216666D01*
X160127666Y-90250000D01*
X160394333Y-90250000D01*
X160461000Y-90216666D01*
X160494333Y-90183333D01*
X160527666Y-90116666D01*
X160527666Y-89983333D01*
X160494333Y-89916666D01*
X160461000Y-89883333D01*
X160394333Y-89850000D01*
X160227666Y-89850000D01*
X160161000Y-89883333D01*
X160127666Y-89916666D01*
X160094333Y-89983333D01*
X160094333Y-90116666D01*
X160127666Y-90183333D01*
X160161000Y-90216666D01*
X160227666Y-90250000D01*
X159894333Y-89583333D02*
X159861000Y-89550000D01*
X159827666Y-89483333D01*
X159827666Y-89316666D01*
X159861000Y-89250000D01*
X159894333Y-89216666D01*
X159961000Y-89183333D01*
X160027666Y-89183333D01*
X160127666Y-89216666D01*
X160527666Y-89616666D01*
X160527666Y-89183333D01*
%TO.C,R5*%
X176833333Y-62752380D02*
X176500000Y-62276190D01*
X176261904Y-62752380D02*
X176261904Y-61752380D01*
X176642857Y-61752380D01*
X176738095Y-61800000D01*
X176785714Y-61847619D01*
X176833333Y-61942857D01*
X176833333Y-62085714D01*
X176785714Y-62180952D01*
X176738095Y-62228571D01*
X176642857Y-62276190D01*
X176261904Y-62276190D01*
X177738095Y-61752380D02*
X177261904Y-61752380D01*
X177214285Y-62228571D01*
X177261904Y-62180952D01*
X177357142Y-62133333D01*
X177595238Y-62133333D01*
X177690476Y-62180952D01*
X177738095Y-62228571D01*
X177785714Y-62323809D01*
X177785714Y-62561904D01*
X177738095Y-62657142D01*
X177690476Y-62704761D01*
X177595238Y-62752380D01*
X177357142Y-62752380D01*
X177261904Y-62704761D01*
X177214285Y-62657142D01*
%TO.C,C2*%
X131333333Y-124857142D02*
X131285714Y-124904761D01*
X131142857Y-124952380D01*
X131047619Y-124952380D01*
X130904761Y-124904761D01*
X130809523Y-124809523D01*
X130761904Y-124714285D01*
X130714285Y-124523809D01*
X130714285Y-124380952D01*
X130761904Y-124190476D01*
X130809523Y-124095238D01*
X130904761Y-124000000D01*
X131047619Y-123952380D01*
X131142857Y-123952380D01*
X131285714Y-124000000D01*
X131333333Y-124047619D01*
X131714285Y-124047619D02*
X131761904Y-124000000D01*
X131857142Y-123952380D01*
X132095238Y-123952380D01*
X132190476Y-124000000D01*
X132238095Y-124047619D01*
X132285714Y-124142857D01*
X132285714Y-124238095D01*
X132238095Y-124380952D01*
X131666666Y-124952380D01*
X132285714Y-124952380D01*
D14*
%TO.C,Q1*%
X176120000Y-54475000D02*
X176120000Y-59116000D01*
X169150000Y-54475000D02*
X169150000Y-55985000D01*
X165880000Y-54475000D02*
X176120000Y-54475000D01*
X165880000Y-54475000D02*
X165880000Y-59116000D01*
X165880000Y-55985000D02*
X176120000Y-55985000D01*
X172851000Y-54475000D02*
X172851000Y-55985000D01*
X165880000Y-59116000D02*
X176120000Y-59116000D01*
%TO.C,D2*%
X165050000Y-138850000D02*
X174150000Y-138850000D01*
X165050000Y-138970000D02*
X174150000Y-138970000D01*
X165050000Y-138730000D02*
X174150000Y-138730000D01*
X169600000Y-128000000D02*
X169600000Y-130450000D01*
X174150000Y-130650000D02*
X165050000Y-130650000D01*
X165050000Y-139750000D02*
X174150000Y-139750000D01*
X169600000Y-142500000D02*
X169600000Y-139900000D01*
X165050000Y-130650000D02*
X165050000Y-139750000D01*
X174200000Y-139750000D02*
X174200000Y-130650000D01*
%TO.C,R6*%
X153230000Y-64930000D02*
X159770000Y-64930000D01*
X153230000Y-67670000D02*
X159770000Y-67670000D01*
X153230000Y-65260000D02*
X153230000Y-64930000D01*
X159770000Y-67670000D02*
X159770000Y-67340000D01*
X159770000Y-64930000D02*
X159770000Y-65260000D01*
X153230000Y-67340000D02*
X153230000Y-67670000D01*
%TO.C,D1*%
X135355000Y-88820000D02*
X135355000Y-88355000D01*
X135355000Y-91445000D02*
X135355000Y-90980000D01*
X130540521Y-90980429D02*
G75*
G03*
X135049684Y-90980000I2254479J1080429D01*
G01*
X135355000Y-88355170D02*
G75*
G03*
X130007185Y-88819173I-2560000J-1544831D01*
G01*
X130007186Y-90980827D02*
G75*
G03*
X135355000Y-91444830I2787814J1080826D01*
G01*
X135049684Y-88820000D02*
G75*
G03*
X130540521Y-88819571I-2254684J-1080000D01*
G01*
%TO.C,R3*%
X136070000Y-84770000D02*
X136070000Y-84440000D01*
X129530000Y-82360000D02*
X129530000Y-82030000D01*
X136070000Y-82030000D02*
X136070000Y-82360000D01*
X129530000Y-84440000D02*
X129530000Y-84770000D01*
X129530000Y-82030000D02*
X136070000Y-82030000D01*
X129530000Y-84770000D02*
X136070000Y-84770000D01*
D12*
%TO.C,IC1*%
X148100000Y-130300000D02*
X148100000Y-127230000D01*
X137700000Y-125700000D02*
X137700000Y-130300000D01*
X137700000Y-130300000D02*
X148100000Y-130300000D01*
D14*
%TO.C,R7*%
X159770000Y-60960000D02*
X159770000Y-60630000D01*
X153230000Y-60630000D02*
X153230000Y-60960000D01*
X153230000Y-63370000D02*
X153230000Y-63040000D01*
X159770000Y-63370000D02*
X153230000Y-63370000D01*
X159770000Y-60630000D02*
X153230000Y-60630000D01*
X159770000Y-63040000D02*
X159770000Y-63370000D01*
D12*
%TO.C,PYRO1*%
X162500000Y-58300000D02*
X162500000Y-54300000D01*
X160000000Y-50300000D02*
X142500000Y-50300000D01*
X142500000Y-58300000D02*
X162500000Y-58300000D01*
X142500000Y-50300000D02*
X142500000Y-58300000D01*
D14*
%TO.C,U3*%
X127105000Y-62110000D02*
X148405000Y-62110000D01*
X148405000Y-62110000D02*
X148405000Y-79660000D01*
X148405000Y-79660000D02*
X127105000Y-79660000D01*
X127105000Y-79660000D02*
X127105000Y-62110000D01*
%TO.C,C1*%
X162970000Y-131070000D02*
X151230000Y-131070000D01*
X162970000Y-131070000D02*
X162970000Y-128165000D01*
X151230000Y-126835000D02*
X151230000Y-123930000D01*
X162970000Y-123930000D02*
X151230000Y-123930000D01*
X151230000Y-131070000D02*
X151230000Y-128165000D01*
X162970000Y-126835000D02*
X162970000Y-123930000D01*
%TO.C,Q2*%
X135891000Y-54475000D02*
X135891000Y-55985000D01*
X128920000Y-55985000D02*
X139160000Y-55985000D01*
X128920000Y-59116000D02*
X139160000Y-59116000D01*
X139160000Y-54475000D02*
X139160000Y-59116000D01*
X132190000Y-54475000D02*
X132190000Y-55985000D01*
X128920000Y-54475000D02*
X139160000Y-54475000D01*
X128920000Y-54475000D02*
X128920000Y-59116000D01*
%TO.C,IC2*%
X147725000Y-107040000D02*
X147725000Y-119740000D01*
X128475000Y-119740000D02*
X128475000Y-107040000D01*
X131115000Y-122380000D02*
X144976052Y-122400017D01*
X131115000Y-104400000D02*
X145085000Y-104400000D01*
%TO.C,BZ1*%
X162600000Y-75500000D02*
G75*
G03*
X162600000Y-75500000I-6100000J0D01*
G01*
%TO.C,BZ2*%
X176600000Y-75500000D02*
G75*
G03*
X176600000Y-75500000I-6100000J0D01*
G01*
%TO.C,R2*%
X129620000Y-101870000D02*
X129620000Y-101540000D01*
X136160000Y-99130000D02*
X129620000Y-99130000D01*
X136160000Y-101540000D02*
X136160000Y-101870000D01*
X129620000Y-99130000D02*
X129620000Y-99460000D01*
X136160000Y-101870000D02*
X129620000Y-101870000D01*
X136160000Y-99460000D02*
X136160000Y-99130000D01*
%TO.C,R1*%
X129530000Y-94630000D02*
X129530000Y-94960000D01*
X136070000Y-97040000D02*
X136070000Y-97370000D01*
X136070000Y-94960000D02*
X136070000Y-94630000D01*
X129530000Y-97370000D02*
X129530000Y-97040000D01*
X136070000Y-97370000D02*
X129530000Y-97370000D01*
X136070000Y-94630000D02*
X129530000Y-94630000D01*
%TO.C,R4*%
X167740000Y-67540000D02*
X167740000Y-67870000D01*
X167740000Y-65130000D02*
X174280000Y-65130000D01*
X167740000Y-67870000D02*
X174280000Y-67870000D01*
X174280000Y-67870000D02*
X174280000Y-67540000D01*
X167740000Y-65460000D02*
X167740000Y-65130000D01*
X174280000Y-65130000D02*
X174280000Y-65460000D01*
D12*
%TO.C,BATT1*%
X150800000Y-135500000D02*
X130800000Y-135500000D01*
X130800000Y-135500000D02*
X130800000Y-139500000D01*
X133300000Y-143500000D02*
X150800000Y-143500000D01*
X150800000Y-143500000D02*
X150800000Y-135500000D01*
%TO.C,SWITCH1*%
X152350000Y-134900000D02*
X152350000Y-144000000D01*
X163050000Y-144000000D02*
X163050000Y-139800000D01*
X152350000Y-144000000D02*
X163050000Y-144000000D01*
X160250000Y-134900000D02*
X152350000Y-134900000D01*
D13*
%TO.C,U2*%
X150305000Y-91030000D02*
X150305000Y-93570000D01*
X145733000Y-93570000D02*
X145733000Y-91030000D01*
X155385000Y-97380000D02*
X152845000Y-97380000D01*
X155385000Y-94205000D02*
X155385000Y-97380000D01*
X178245000Y-83410000D02*
X178245000Y-101190000D01*
X150305000Y-93570000D02*
X145733000Y-93570000D01*
X166180000Y-97380000D02*
X166180000Y-87220000D01*
X173165000Y-96110000D02*
X178245000Y-96110000D01*
X145733000Y-91030000D02*
X150305000Y-91030000D01*
X156020000Y-97380000D02*
X166180000Y-97380000D01*
X173165000Y-88490000D02*
X173165000Y-96110000D01*
X156020000Y-87220000D02*
X166180000Y-87220000D01*
X142685000Y-101190000D02*
X142685000Y-83410000D01*
X179515000Y-96110000D02*
X178245000Y-96110000D01*
X142685000Y-83410000D02*
X178245000Y-83410000D01*
X179515000Y-88490000D02*
X179515000Y-96110000D01*
X178245000Y-101190000D02*
X142685000Y-101190000D01*
X152845000Y-94205000D02*
X155385000Y-94205000D01*
X178245000Y-88490000D02*
X179515000Y-88490000D01*
X173165000Y-88490000D02*
X178245000Y-88490000D01*
X152845000Y-97380000D02*
X152845000Y-94205000D01*
X156020000Y-87220000D02*
X156020000Y-97380000D01*
D15*
X163259000Y-92427000D02*
X163005000Y-92681000D01*
X163005000Y-92681000D02*
X162751000Y-92300000D01*
X162751000Y-92300000D02*
X163005000Y-92046000D01*
X163005000Y-92046000D02*
X163259000Y-92427000D01*
G36*
X163259000Y-92427000D02*
G01*
X163005000Y-92681000D01*
X162751000Y-92300000D01*
X163005000Y-92046000D01*
X163259000Y-92427000D01*
G37*
X163259000Y-92427000D02*
X163005000Y-92681000D01*
X162751000Y-92300000D01*
X163005000Y-92046000D01*
X163259000Y-92427000D01*
X162878000Y-91919000D02*
X162624000Y-92173000D01*
X162624000Y-92173000D02*
X162370000Y-91792000D01*
X162370000Y-91792000D02*
X162624000Y-91538000D01*
X162624000Y-91538000D02*
X162878000Y-91919000D01*
G36*
X162878000Y-91919000D02*
G01*
X162624000Y-92173000D01*
X162370000Y-91792000D01*
X162624000Y-91538000D01*
X162878000Y-91919000D01*
G37*
X162878000Y-91919000D02*
X162624000Y-92173000D01*
X162370000Y-91792000D01*
X162624000Y-91538000D01*
X162878000Y-91919000D01*
X164021000Y-92554000D02*
X163767000Y-92808000D01*
X163767000Y-92808000D02*
X163513000Y-92427000D01*
X163513000Y-92427000D02*
X163767000Y-92173000D01*
X163767000Y-92173000D02*
X164021000Y-92554000D01*
G36*
X164021000Y-92554000D02*
G01*
X163767000Y-92808000D01*
X163513000Y-92427000D01*
X163767000Y-92173000D01*
X164021000Y-92554000D01*
G37*
X164021000Y-92554000D02*
X163767000Y-92808000D01*
X163513000Y-92427000D01*
X163767000Y-92173000D01*
X164021000Y-92554000D01*
X164402000Y-92173000D02*
X164148000Y-92427000D01*
X164148000Y-92427000D02*
X163894000Y-92046000D01*
X163894000Y-92046000D02*
X164148000Y-91792000D01*
X164148000Y-91792000D02*
X164402000Y-92173000D01*
G36*
X164402000Y-92173000D02*
G01*
X164148000Y-92427000D01*
X163894000Y-92046000D01*
X164148000Y-91792000D01*
X164402000Y-92173000D01*
G37*
X164402000Y-92173000D02*
X164148000Y-92427000D01*
X163894000Y-92046000D01*
X164148000Y-91792000D01*
X164402000Y-92173000D01*
X163640000Y-92935000D02*
X163386000Y-93189000D01*
X163386000Y-93189000D02*
X163132000Y-92808000D01*
X163132000Y-92808000D02*
X163386000Y-92554000D01*
X163386000Y-92554000D02*
X163640000Y-92935000D01*
G36*
X163640000Y-92935000D02*
G01*
X163386000Y-93189000D01*
X163132000Y-92808000D01*
X163386000Y-92554000D01*
X163640000Y-92935000D01*
G37*
X163640000Y-92935000D02*
X163386000Y-93189000D01*
X163132000Y-92808000D01*
X163386000Y-92554000D01*
X163640000Y-92935000D01*
X162116000Y-91792000D02*
X161862000Y-92046000D01*
X161862000Y-92046000D02*
X161608000Y-91665000D01*
X161608000Y-91665000D02*
X161862000Y-91411000D01*
X161862000Y-91411000D02*
X162116000Y-91792000D01*
G36*
X162116000Y-91792000D02*
G01*
X161862000Y-92046000D01*
X161608000Y-91665000D01*
X161862000Y-91411000D01*
X162116000Y-91792000D01*
G37*
X162116000Y-91792000D02*
X161862000Y-92046000D01*
X161608000Y-91665000D01*
X161862000Y-91411000D01*
X162116000Y-91792000D01*
X162497000Y-92300000D02*
X162243000Y-92554000D01*
X162243000Y-92554000D02*
X161989000Y-92173000D01*
X161989000Y-92173000D02*
X162243000Y-91919000D01*
X162243000Y-91919000D02*
X162497000Y-92300000D01*
G36*
X162497000Y-92300000D02*
G01*
X162243000Y-92554000D01*
X161989000Y-92173000D01*
X162243000Y-91919000D01*
X162497000Y-92300000D01*
G37*
X162497000Y-92300000D02*
X162243000Y-92554000D01*
X161989000Y-92173000D01*
X162243000Y-91919000D01*
X162497000Y-92300000D01*
X162878000Y-92808000D02*
X162624000Y-93062000D01*
X162624000Y-93062000D02*
X162370000Y-92681000D01*
X162370000Y-92681000D02*
X162624000Y-92427000D01*
X162624000Y-92427000D02*
X162878000Y-92808000D01*
G36*
X162878000Y-92808000D02*
G01*
X162624000Y-93062000D01*
X162370000Y-92681000D01*
X162624000Y-92427000D01*
X162878000Y-92808000D01*
G37*
X162878000Y-92808000D02*
X162624000Y-93062000D01*
X162370000Y-92681000D01*
X162624000Y-92427000D01*
X162878000Y-92808000D01*
D14*
%TO.C,R5*%
X174260000Y-63670000D02*
X167720000Y-63670000D01*
X167720000Y-63670000D02*
X167720000Y-63340000D01*
X174260000Y-63340000D02*
X174260000Y-63670000D01*
X174260000Y-61260000D02*
X174260000Y-60930000D01*
X174260000Y-60930000D02*
X167720000Y-60930000D01*
X167720000Y-60930000D02*
X167720000Y-61260000D01*
%TO.C,C2*%
X135220000Y-131620000D02*
X127980000Y-131620000D01*
X135220000Y-125380000D02*
X127980000Y-125380000D01*
X127980000Y-131620000D02*
X127980000Y-125380000D01*
X135220000Y-131620000D02*
X135220000Y-125380000D01*
%TO.C,U1*%
X178114988Y-106570526D02*
X178114988Y-119270526D01*
X152514988Y-106570526D02*
X152514988Y-119170526D01*
X175474988Y-103850526D02*
X155154988Y-103850526D01*
X155154988Y-121830526D02*
X175474988Y-121830526D01*
%TD*%
M02*
