%TF.GenerationSoftware,KiCad,Pcbnew,(6.0.1)*%
%TF.CreationDate,2022-04-27T15:56:50+10:00*%
%TF.ProjectId,bellerophon,62656c6c-6572-46f7-9068-6f6e2e6b6963,rev?*%
%TF.SameCoordinates,Original*%
%TF.FileFunction,Legend,Bot*%
%TF.FilePolarity,Positive*%
%FSLAX46Y46*%
G04 Gerber Fmt 4.6, Leading zero omitted, Abs format (unit mm)*
G04 Created by KiCad (PCBNEW (6.0.1)) date 2022-04-27 15:56:50*
%MOMM*%
%LPD*%
G01*
G04 APERTURE LIST*
%ADD10C,0.400000*%
%ADD11C,0.150000*%
G04 APERTURE END LIST*
D10*
X166263467Y-142921428D02*
X167096800Y-142921428D01*
X167260491Y-144230952D02*
X166947991Y-141730952D01*
X165757514Y-141730952D01*
X164760491Y-144230952D02*
X164983705Y-144111904D01*
X165072991Y-143873809D01*
X164805133Y-141730952D01*
X163808110Y-144230952D02*
X163599776Y-142564285D01*
X163495610Y-141730952D02*
X163629538Y-141850000D01*
X163525372Y-141969047D01*
X163391443Y-141850000D01*
X163495610Y-141730952D01*
X163525372Y-141969047D01*
X161337872Y-142564285D02*
X161590848Y-144588095D01*
X161739657Y-144826190D01*
X161873586Y-144945238D01*
X162126562Y-145064285D01*
X162483705Y-145064285D01*
X162706919Y-144945238D01*
X161531324Y-144111904D02*
X161784300Y-144230952D01*
X162260491Y-144230952D01*
X162483705Y-144111904D01*
X162587872Y-143992857D01*
X162677157Y-143754761D01*
X162587872Y-143040476D01*
X162439062Y-142802380D01*
X162305133Y-142683333D01*
X162052157Y-142564285D01*
X161575967Y-142564285D01*
X161352752Y-142683333D01*
X160355729Y-144230952D02*
X160043229Y-141730952D01*
X159284300Y-144230952D02*
X159120610Y-142921428D01*
X159209895Y-142683333D01*
X159433110Y-142564285D01*
X159790252Y-142564285D01*
X160043229Y-142683333D01*
X160177157Y-142802380D01*
X158242633Y-142564285D02*
X157290252Y-142564285D01*
X157781324Y-141730952D02*
X158049181Y-143873809D01*
X157959895Y-144111904D01*
X157736681Y-144230952D01*
X157498586Y-144230952D01*
X153302157Y-143992857D02*
X153436086Y-144111904D01*
X153808110Y-144230952D01*
X154046205Y-144230952D01*
X154388467Y-144111904D01*
X154596800Y-143873809D01*
X154686086Y-143635714D01*
X154745610Y-143159523D01*
X154700967Y-142802380D01*
X154522395Y-142326190D01*
X154373586Y-142088095D01*
X154105729Y-141850000D01*
X153733705Y-141730952D01*
X153495610Y-141730952D01*
X153153348Y-141850000D01*
X153049181Y-141969047D01*
X151903348Y-144230952D02*
X152126562Y-144111904D01*
X152230729Y-143992857D01*
X152320014Y-143754761D01*
X152230729Y-143040476D01*
X152081919Y-142802380D01*
X151947991Y-142683333D01*
X151695014Y-142564285D01*
X151337872Y-142564285D01*
X151114657Y-142683333D01*
X151010491Y-142802380D01*
X150921205Y-143040476D01*
X151010491Y-143754761D01*
X151159300Y-143992857D01*
X151293229Y-144111904D01*
X151546205Y-144230952D01*
X151903348Y-144230952D01*
X149998586Y-144230952D02*
X149790252Y-142564285D01*
X149820014Y-142802380D02*
X149686086Y-142683333D01*
X149433110Y-142564285D01*
X149075967Y-142564285D01*
X148852752Y-142683333D01*
X148763467Y-142921428D01*
X148927157Y-144230952D01*
X148763467Y-142921428D02*
X148614657Y-142683333D01*
X148361681Y-142564285D01*
X148004538Y-142564285D01*
X147781324Y-142683333D01*
X147692038Y-142921428D01*
X147855729Y-144230952D01*
X146456919Y-142564285D02*
X146769419Y-145064285D01*
X146471800Y-142683333D02*
X146218824Y-142564285D01*
X145742633Y-142564285D01*
X145519419Y-142683333D01*
X145415252Y-142802380D01*
X145325967Y-143040476D01*
X145415252Y-143754761D01*
X145564062Y-143992857D01*
X145697991Y-144111904D01*
X145950967Y-144230952D01*
X146427157Y-144230952D01*
X146650372Y-144111904D01*
X143123586Y-142564285D02*
X143331919Y-144230952D01*
X144195014Y-142564285D02*
X144358705Y-143873809D01*
X144269419Y-144111904D01*
X144046205Y-144230952D01*
X143689062Y-144230952D01*
X143436086Y-144111904D01*
X143302157Y-143992857D01*
X142290252Y-142564285D02*
X141337872Y-142564285D01*
X141828943Y-141730952D02*
X142096800Y-143873809D01*
X142007514Y-144111904D01*
X141784300Y-144230952D01*
X141546205Y-144230952D01*
X139745610Y-144111904D02*
X139998586Y-144230952D01*
X140474776Y-144230952D01*
X140697991Y-144111904D01*
X140787276Y-143873809D01*
X140668229Y-142921428D01*
X140519419Y-142683333D01*
X140266443Y-142564285D01*
X139790252Y-142564285D01*
X139567038Y-142683333D01*
X139477752Y-142921428D01*
X139507514Y-143159523D01*
X140727752Y-143397619D01*
X138570014Y-144230952D02*
X138361681Y-142564285D01*
X138421205Y-143040476D02*
X138272395Y-142802380D01*
X138138467Y-142683333D01*
X137885491Y-142564285D01*
X137647395Y-142564285D01*
X162275372Y-133121428D02*
X161933110Y-133240476D01*
X161828943Y-133359523D01*
X161739657Y-133597619D01*
X161784300Y-133954761D01*
X161933110Y-134192857D01*
X162067038Y-134311904D01*
X162320014Y-134430952D01*
X163272395Y-134430952D01*
X162959895Y-131930952D01*
X162126562Y-131930952D01*
X161903348Y-132050000D01*
X161799181Y-132169047D01*
X161709895Y-132407142D01*
X161739657Y-132645238D01*
X161888467Y-132883333D01*
X162022395Y-133002380D01*
X162275372Y-133121428D01*
X163108705Y-133121428D01*
X159805133Y-134311904D02*
X160058110Y-134430952D01*
X160534300Y-134430952D01*
X160757514Y-134311904D01*
X160846800Y-134073809D01*
X160727752Y-133121428D01*
X160578943Y-132883333D01*
X160325967Y-132764285D01*
X159849776Y-132764285D01*
X159626562Y-132883333D01*
X159537276Y-133121428D01*
X159567038Y-133359523D01*
X160787276Y-133597619D01*
X158272395Y-134430952D02*
X158495610Y-134311904D01*
X158584895Y-134073809D01*
X158317038Y-131930952D01*
X156962872Y-134430952D02*
X157186086Y-134311904D01*
X157275372Y-134073809D01*
X157007514Y-131930952D01*
X155043229Y-134311904D02*
X155296205Y-134430952D01*
X155772395Y-134430952D01*
X155995610Y-134311904D01*
X156084895Y-134073809D01*
X155965848Y-133121428D01*
X155817038Y-132883333D01*
X155564062Y-132764285D01*
X155087872Y-132764285D01*
X154864657Y-132883333D01*
X154775372Y-133121428D01*
X154805133Y-133359523D01*
X156025372Y-133597619D01*
X153867633Y-134430952D02*
X153659300Y-132764285D01*
X153718824Y-133240476D02*
X153570014Y-133002380D01*
X153436086Y-132883333D01*
X153183110Y-132764285D01*
X152945014Y-132764285D01*
X151962872Y-134430952D02*
X152186086Y-134311904D01*
X152290252Y-134192857D01*
X152379538Y-133954761D01*
X152290252Y-133240476D01*
X152141443Y-133002380D01*
X152007514Y-132883333D01*
X151754538Y-132764285D01*
X151397395Y-132764285D01*
X151174181Y-132883333D01*
X151070014Y-133002380D01*
X150980729Y-133240476D01*
X151070014Y-133954761D01*
X151218824Y-134192857D01*
X151352752Y-134311904D01*
X151605729Y-134430952D01*
X151962872Y-134430952D01*
X149849776Y-132764285D02*
X150162276Y-135264285D01*
X149864657Y-132883333D02*
X149611681Y-132764285D01*
X149135491Y-132764285D01*
X148912276Y-132883333D01*
X148808110Y-133002380D01*
X148718824Y-133240476D01*
X148808110Y-133954761D01*
X148956919Y-134192857D01*
X149090848Y-134311904D01*
X149343824Y-134430952D01*
X149820014Y-134430952D01*
X150043229Y-134311904D01*
X147796205Y-134430952D02*
X147483705Y-131930952D01*
X146724776Y-134430952D02*
X146561086Y-133121428D01*
X146650372Y-132883333D01*
X146873586Y-132764285D01*
X147230729Y-132764285D01*
X147483705Y-132883333D01*
X147617633Y-133002380D01*
X145177157Y-134430952D02*
X145400372Y-134311904D01*
X145504538Y-134192857D01*
X145593824Y-133954761D01*
X145504538Y-133240476D01*
X145355729Y-133002380D01*
X145221800Y-132883333D01*
X144968824Y-132764285D01*
X144611681Y-132764285D01*
X144388467Y-132883333D01*
X144284300Y-133002380D01*
X144195014Y-133240476D01*
X144284300Y-133954761D01*
X144433110Y-134192857D01*
X144567038Y-134311904D01*
X144820014Y-134430952D01*
X145177157Y-134430952D01*
X143064062Y-132764285D02*
X143272395Y-134430952D01*
X143093824Y-133002380D02*
X142959895Y-132883333D01*
X142706919Y-132764285D01*
X142349776Y-132764285D01*
X142126562Y-132883333D01*
X142037276Y-133121428D01*
X142200967Y-134430952D01*
X167559523Y-49530952D02*
X167559523Y-51554761D01*
X167440476Y-51792857D01*
X167321428Y-51911904D01*
X167083333Y-52030952D01*
X166607142Y-52030952D01*
X166369047Y-51911904D01*
X166250000Y-51792857D01*
X166130952Y-51554761D01*
X166130952Y-49530952D01*
X164940476Y-52030952D02*
X164940476Y-49530952D01*
X163511904Y-52030952D01*
X163511904Y-49530952D01*
X162440476Y-51911904D02*
X162083333Y-52030952D01*
X161488095Y-52030952D01*
X161250000Y-51911904D01*
X161130952Y-51792857D01*
X161011904Y-51554761D01*
X161011904Y-51316666D01*
X161130952Y-51078571D01*
X161250000Y-50959523D01*
X161488095Y-50840476D01*
X161964285Y-50721428D01*
X162202380Y-50602380D01*
X162321428Y-50483333D01*
X162440476Y-50245238D01*
X162440476Y-50007142D01*
X162321428Y-49769047D01*
X162202380Y-49650000D01*
X161964285Y-49530952D01*
X161369047Y-49530952D01*
X161011904Y-49650000D01*
X160178571Y-49530952D02*
X159583333Y-52030952D01*
X159107142Y-50245238D01*
X158630952Y-52030952D01*
X158035714Y-49530952D01*
X153750000Y-52030952D02*
X154583333Y-50840476D01*
X155178571Y-52030952D02*
X155178571Y-49530952D01*
X154226190Y-49530952D01*
X153988095Y-49650000D01*
X153869047Y-49769047D01*
X153750000Y-50007142D01*
X153750000Y-50364285D01*
X153869047Y-50602380D01*
X153988095Y-50721428D01*
X154226190Y-50840476D01*
X155178571Y-50840476D01*
X152202380Y-49530952D02*
X151726190Y-49530952D01*
X151488095Y-49650000D01*
X151250000Y-49888095D01*
X151130952Y-50364285D01*
X151130952Y-51197619D01*
X151250000Y-51673809D01*
X151488095Y-51911904D01*
X151726190Y-52030952D01*
X152202380Y-52030952D01*
X152440476Y-51911904D01*
X152678571Y-51673809D01*
X152797619Y-51197619D01*
X152797619Y-50364285D01*
X152678571Y-49888095D01*
X152440476Y-49650000D01*
X152202380Y-49530952D01*
X148630952Y-51792857D02*
X148750000Y-51911904D01*
X149107142Y-52030952D01*
X149345238Y-52030952D01*
X149702380Y-51911904D01*
X149940476Y-51673809D01*
X150059523Y-51435714D01*
X150178571Y-50959523D01*
X150178571Y-50602380D01*
X150059523Y-50126190D01*
X149940476Y-49888095D01*
X149702380Y-49650000D01*
X149345238Y-49530952D01*
X149107142Y-49530952D01*
X148750000Y-49650000D01*
X148630952Y-49769047D01*
X147559523Y-52030952D02*
X147559523Y-49530952D01*
X146130952Y-52030952D02*
X147202380Y-50602380D01*
X146130952Y-49530952D02*
X147559523Y-50959523D01*
X145059523Y-50721428D02*
X144226190Y-50721428D01*
X143869047Y-52030952D02*
X145059523Y-52030952D01*
X145059523Y-49530952D01*
X143869047Y-49530952D01*
X143154761Y-49530952D02*
X141726190Y-49530952D01*
X142440476Y-52030952D02*
X142440476Y-49530952D01*
X139464285Y-52030952D02*
X140297619Y-50840476D01*
X140892857Y-52030952D02*
X140892857Y-49530952D01*
X139940476Y-49530952D01*
X139702380Y-49650000D01*
X139583333Y-49769047D01*
X139464285Y-50007142D01*
X139464285Y-50364285D01*
X139583333Y-50602380D01*
X139702380Y-50721428D01*
X139940476Y-50840476D01*
X140892857Y-50840476D01*
X137916666Y-50840476D02*
X137916666Y-52030952D01*
X138750000Y-49530952D02*
X137916666Y-50840476D01*
X137083333Y-49530952D01*
D11*
X130414285Y-138485714D02*
X129700000Y-138485714D01*
X130128571Y-138057142D02*
X130414285Y-139342857D01*
X129795238Y-138914285D02*
X130509523Y-138914285D01*
X130080952Y-139342857D02*
X129795238Y-138057142D01*
X129176190Y-138152380D02*
X129080952Y-138152380D01*
X128985714Y-138200000D01*
X128938095Y-138247619D01*
X128890476Y-138342857D01*
X128842857Y-138533333D01*
X128842857Y-138771428D01*
X128890476Y-138961904D01*
X128938095Y-139057142D01*
X128985714Y-139104761D01*
X129080952Y-139152380D01*
X129176190Y-139152380D01*
X129271428Y-139104761D01*
X129319047Y-139057142D01*
X129366666Y-138961904D01*
X129414285Y-138771428D01*
X129414285Y-138533333D01*
X129366666Y-138342857D01*
X129319047Y-138247619D01*
X129271428Y-138200000D01*
X129176190Y-138152380D01*
X128223809Y-138152380D02*
X128128571Y-138152380D01*
X128033333Y-138200000D01*
X127985714Y-138247619D01*
X127938095Y-138342857D01*
X127890476Y-138533333D01*
X127890476Y-138771428D01*
X127938095Y-138961904D01*
X127985714Y-139057142D01*
X128033333Y-139104761D01*
X128128571Y-139152380D01*
X128223809Y-139152380D01*
X128319047Y-139104761D01*
X128366666Y-139057142D01*
X128414285Y-138961904D01*
X128461904Y-138771428D01*
X128461904Y-138533333D01*
X128414285Y-138342857D01*
X128366666Y-138247619D01*
X128319047Y-138200000D01*
X128223809Y-138152380D01*
X127271428Y-138152380D02*
X127176190Y-138152380D01*
X127080952Y-138200000D01*
X127033333Y-138247619D01*
X126985714Y-138342857D01*
X126938095Y-138533333D01*
X126938095Y-138771428D01*
X126985714Y-138961904D01*
X127033333Y-139057142D01*
X127080952Y-139104761D01*
X127176190Y-139152380D01*
X127271428Y-139152380D01*
X127366666Y-139104761D01*
X127414285Y-139057142D01*
X127461904Y-138961904D01*
X127509523Y-138771428D01*
X127509523Y-138533333D01*
X127461904Y-138342857D01*
X127414285Y-138247619D01*
X127366666Y-138200000D01*
X127271428Y-138152380D01*
X125985714Y-139152380D02*
X126557142Y-139152380D01*
X126271428Y-139152380D02*
X126271428Y-138152380D01*
X126366666Y-138295238D01*
X126461904Y-138390476D01*
X126557142Y-138438095D01*
M02*
