M48
; DRILL file {KiCad (6.0.1)} date Wed Apr 27 16:37:49 2022
; FORMAT={-:-/ absolute / metric / decimal}
; #@! TF.CreationDate,2022-04-27T16:37:49+10:00
; #@! TF.GenerationSoftware,Kicad,Pcbnew,(6.0.1)
; #@! TF.FileFunction,Plated,1,2,PTH
FMAT,2
METRIC
; #@! TA.AperFunction,Plated,PTH,ComponentDrill
T1C0.762
; #@! TA.AperFunction,Plated,PTH,ComponentDrill
T2C0.800
; #@! TA.AperFunction,Plated,PTH,ComponentDrill
T3C0.900
; #@! TA.AperFunction,Plated,PTH,ComponentDrill
T4C1.000
; #@! TA.AperFunction,Plated,PTH,ComponentDrill
T5C1.100
; #@! TA.AperFunction,Plated,PTH,ComponentDrill
T6C1.200
; #@! TA.AperFunction,Plated,PTH,ComponentDrill
T7C1.250
; #@! TA.AperFunction,Plated,PTH,ComponentDrill
T8C1.300
; #@! TA.AperFunction,Plated,PTH,ComponentDrill
T9C1.320
; #@! TA.AperFunction,Plated,PTH,ComponentDrill
T10C2.200
%
G90
G05
T1
X130.18Y-77.25
X132.72Y-77.25
X135.26Y-77.25
X137.8Y-77.25
X140.34Y-77.25
X142.88Y-77.25
X145.42Y-77.25
T2
X128.99Y-83.4
X128.99Y-96.0
X129.08Y-100.5
X129.1Y-128.5
X134.1Y-128.5
X136.61Y-83.4
X136.61Y-96.0
X136.7Y-100.5
X152.1Y-127.5
X152.69Y-62.0
X152.69Y-66.3
X160.31Y-62.0
X160.31Y-66.3
X162.1Y-127.5
X167.18Y-62.3
X167.2Y-66.5
X174.8Y-62.3
X174.82Y-66.5
T3
X130.89Y-89.9
X132.16Y-89.9
X133.43Y-89.9
X134.7Y-89.9
T4
X130.48Y-119.74
X133.02Y-119.74
X135.56Y-119.74
X138.1Y-119.74
X140.64Y-119.74
X143.18Y-119.74
X145.72Y-119.74
X152.7Y-75.5
X158.965Y-106.494
X158.965Y-119.194
X160.3Y-75.5
X161.505Y-106.494
X161.505Y-119.194
X164.045Y-106.494
X164.045Y-119.194
X166.585Y-106.494
X166.585Y-119.194
X166.7Y-75.5
X169.125Y-106.494
X169.125Y-119.194
X171.665Y-106.494
X171.665Y-119.194
X174.3Y-75.5
T5
X131.5Y-57.745
X134.04Y-57.745
X136.58Y-57.745
X143.955Y-84.68
X143.955Y-87.22
X143.955Y-89.76
X143.955Y-92.3
X143.955Y-94.84
X143.955Y-97.38
X143.955Y-99.92
X146.495Y-84.68
X146.495Y-99.92
X149.035Y-84.68
X149.035Y-87.22
X149.035Y-89.76
X149.035Y-92.3
X149.035Y-94.84
X149.035Y-97.38
X149.035Y-99.92
X151.575Y-84.68
X151.575Y-87.22
X151.575Y-89.76
X151.575Y-92.3
X151.575Y-94.84
X151.575Y-97.38
X151.575Y-99.92
X154.115Y-84.68
X154.115Y-99.92
X156.655Y-84.68
X156.655Y-99.92
X159.195Y-84.68
X159.195Y-99.92
X161.735Y-84.68
X161.735Y-99.92
X164.275Y-84.68
X164.275Y-99.92
X166.815Y-84.68
X166.815Y-99.92
X168.46Y-57.745
X169.355Y-84.68
X169.355Y-99.92
X171.0Y-57.745
X171.895Y-84.68
X171.895Y-99.92
X173.54Y-57.745
X174.435Y-84.68
X174.435Y-97.38
X174.435Y-99.92
X176.975Y-84.68
X176.975Y-99.92
T6
X133.3Y-139.5
X138.3Y-139.5
X143.3Y-139.5
X145.0Y-54.3
X148.3Y-139.5
X150.0Y-54.3
X155.0Y-54.3
X160.0Y-54.3
T7
X155.25Y-139.8
X160.25Y-139.8
T8
X169.6Y-126.5
X169.6Y-143.95
T9
X140.35Y-127.23
X142.9Y-127.23
X145.45Y-127.23
T10
X128.0Y-51.121
X128.0Y-143.0
X177.0Y-51.021
X177.0Y-143.0
T0
M30
